<svg width="390" height="368" viewBox="0 0 390 368" fill="none" xmlns="http://www.w3.org/2000/svg">
<path d="M332.354 111.967C332.888 112.6 333.834 112.681 334.467 112.146L344.785 103.441C345.418 102.906 345.499 101.96 344.964 101.327C344.43 100.694 343.484 100.614 342.851 101.148L333.679 108.886L325.941 99.7148C325.406 99.0816 324.46 99.0014 323.827 99.5356C323.194 100.07 323.114 101.016 323.648 101.649L332.354 111.967ZM275.342 68.3292C274.971 67.5882 274.07 67.2879 273.329 67.6584C272.588 68.0288 272.288 68.9299 272.658 69.6708L275.342 68.3292ZM334.995 111.127C335.625 103.685 335.486 97.9729 334.674 93.6213C333.861 89.2642 332.352 86.1605 330.156 84.0824C327.947 81.9919 325.212 81.0999 322.279 80.8361C319.375 80.575 316.17 80.9203 312.911 81.3904C306.257 82.3501 299.3 83.8135 292.695 82.6629C286.285 81.5463 280.142 77.929 275.342 68.3292L272.658 69.6708C277.858 80.071 284.777 84.3287 292.18 85.6184C299.388 86.874 306.993 85.2749 313.339 84.3596C316.58 83.8922 319.484 83.5969 322.01 83.824C324.506 84.0485 326.522 84.7737 328.094 86.2614C329.679 87.7614 330.983 90.1967 331.725 94.1716C332.467 98.1521 332.625 103.565 332.005 110.873L334.995 111.127Z" fill="white"/>
<path d="M31.8626 244.373C31.5163 243.62 30.6255 243.291 29.873 243.637L17.6089 249.28C16.8563 249.627 16.527 250.517 16.8732 251.27C17.2195 252.023 18.1103 252.352 18.8629 252.006L29.7643 246.99L34.7803 257.891C35.1265 258.644 36.0173 258.973 36.7699 258.627C37.5225 258.28 37.8519 257.39 37.5056 256.637L31.8626 244.373ZM97.0283 298.709C96.8676 299.522 97.3961 300.311 98.2087 300.471C99.0214 300.632 99.8106 300.104 99.9713 299.291L97.0283 298.709ZM29.093 244.48C26.3016 252.029 25.3582 258.005 25.9877 262.735C26.6269 267.539 28.88 270.975 32.2405 273.363C35.5386 275.707 39.8235 276.986 44.4882 277.718C49.1665 278.452 54.3726 278.656 59.598 278.75C64.8613 278.844 70.1179 278.828 75.0545 279.105C79.9894 279.382 84.4601 279.948 88.1054 281.158C91.7387 282.364 94.4109 284.162 95.9655 286.815C97.5208 289.469 98.1103 293.239 97.0283 298.709L99.9713 299.291C101.139 293.386 100.604 288.797 98.5538 285.298C96.503 281.799 93.0892 279.651 89.0507 278.311C85.0241 276.974 80.2371 276.391 75.2227 276.11C70.2102 275.828 64.8262 275.843 59.6519 275.75C54.4398 275.657 49.4116 275.454 44.9532 274.754C40.4812 274.053 36.7269 272.871 33.9782 270.918C31.2918 269.009 29.4902 266.313 28.9615 262.339C28.4229 258.292 29.1983 252.846 31.9069 245.52L29.093 244.48Z" fill="white"/>
<path d="M346.06 254.405C346.389 253.644 347.272 253.294 348.033 253.623L360.424 258.982C361.184 259.311 361.534 260.194 361.205 260.954C360.876 261.715 359.993 262.064 359.233 261.736L348.219 256.972L343.455 267.986C343.126 268.747 342.243 269.096 341.483 268.768C340.723 268.439 340.373 267.556 340.702 266.795L346.06 254.405ZM297.12 313.587C296.795 312.825 297.15 311.944 297.913 311.62C298.675 311.295 299.556 311.65 299.88 312.413L297.12 313.587ZM348.832 254.448C355.064 270.18 355.762 283.353 353.011 293.902C350.259 304.453 344.084 312.264 336.781 317.298C329.498 322.317 321.056 324.601 313.71 324.066C306.368 323.532 299.907 320.137 297.12 313.587L299.88 312.413C302.093 317.613 307.319 320.593 313.928 321.074C320.534 321.555 328.307 319.495 335.078 314.827C341.83 310.174 347.55 302.953 350.108 293.145C352.667 283.334 352.091 270.82 346.043 255.552L348.832 254.448Z" fill="white"/>
<path d="M214.827 74.1518C214.168 73.8846 213.576 73.4882 213.049 72.9627C212.542 72.432 212.09 71.8459 211.695 71.2042C211.318 70.5574 210.992 69.8765 210.718 69.1614C210.458 68.4225 210.246 67.711 210.082 67.0271C210.114 66.4722 210.197 65.9542 210.33 65.4732C210.458 64.9733 210.622 64.4941 210.822 64.0355C211.017 63.5581 211.228 63.1064 211.457 62.6805C211.7 62.2306 211.933 61.7832 212.157 61.3384C212.27 61.3079 212.382 61.3082 212.491 61.3393C212.511 61.1115 212.575 60.9018 212.686 60.7103C212.796 60.5187 212.92 60.3434 213.059 60.1845C213.194 60.0067 213.33 59.8383 213.469 59.6794C213.603 59.5016 213.704 59.3125 213.771 59.1123C214.212 58.8719 214.584 58.5996 214.886 58.2955C215.207 57.9863 215.504 57.6633 215.778 57.3265C216.051 56.9898 216.339 56.6693 216.641 56.3652C216.943 56.0611 217.315 55.7888 217.756 55.5484C217.875 55.3141 218.039 55.0978 218.248 54.8996C218.477 54.6964 218.698 54.5051 218.913 54.3258C219.146 54.1414 219.358 53.9526 219.549 53.7596C219.758 53.5614 219.908 53.3288 219.998 53.0618C220.152 53.1821 220.327 53.1954 220.524 53.1017C220.716 52.9892 220.89 52.8817 221.044 52.7793C221.152 52.7299 221.252 52.7233 221.342 52.7595C221.433 52.7958 221.517 52.8439 221.594 52.9041C221.684 52.9403 221.751 52.9627 221.794 52.9714C221.856 52.975 221.897 52.9032 221.918 52.7559C222.074 52.734 222.129 52.7899 222.084 52.9234C222.058 53.0518 222.041 53.1374 222.032 53.1802C222.211 53.0916 222.372 53.0885 222.516 53.1711C222.673 53.2298 222.889 53.2423 223.163 53.2088C223.283 53.2776 223.331 53.3454 223.309 53.4122C223.286 53.4789 223.284 53.5808 223.3 53.7179C224.035 53.7421 224.558 53.955 224.869 54.3567C225.174 54.7395 225.318 55.1963 225.299 55.7273C225.276 56.2395 225.113 56.7589 224.81 57.2858C224.521 57.7886 224.149 58.1722 223.694 58.4366C223.15 58.7452 222.644 59.0437 222.176 59.332C221.726 59.6151 221.291 59.9147 220.871 60.2305C220.469 60.5412 220.096 60.8845 219.753 61.2605C219.423 61.6125 219.153 61.999 218.943 62.4198C218.456 62.7132 218.031 63.0504 217.668 63.4315C217.325 63.8074 217.008 64.2066 216.717 64.629C216.445 65.0462 216.188 65.4798 215.946 65.9297C215.698 66.3607 215.45 66.7918 215.202 67.2228C215.289 67.5434 215.298 67.8038 215.231 68.004C215.164 68.2043 215.087 68.4071 215.001 68.6124C215.135 68.9605 215.295 69.2513 215.479 69.4847C215.677 69.6942 215.878 69.9131 216.081 70.1415C217.712 70.1868 219.381 70.0396 221.09 69.6997C222.813 69.3359 224.506 68.9394 226.171 68.5104C226.401 68.6908 226.649 68.8568 226.912 69.0082C227.189 69.1357 227.441 69.2802 227.666 69.4418C227.911 69.5984 228.118 69.8053 228.289 70.0627C228.473 70.2962 228.588 70.6091 228.633 71.0015C228.399 71.4086 228.135 71.8139 227.839 72.2174C227.538 72.602 227.237 72.9866 226.937 73.3713C226.772 73.436 226.565 73.492 226.314 73.5393C226.083 73.5815 225.835 73.6382 225.571 73.7095C225.326 73.7757 225.077 73.8632 224.823 73.9722C224.583 74.0572 224.362 74.1774 224.162 74.3328C222.963 74.6158 221.709 74.8026 220.398 74.8935C219.083 74.9654 217.848 74.9648 216.696 74.8916C216.422 74.7024 216.144 74.5347 215.862 74.3883C215.575 74.2231 215.23 74.1443 214.827 74.1518ZM237.95 70.2163C237.468 70.5285 236.939 70.8534 236.362 71.1911C235.786 71.5288 235.186 71.7816 234.564 71.9496C233.621 72.2041 232.813 72.1695 232.139 71.8457C231.988 71.6637 231.865 71.5452 231.77 71.4901C231.693 71.43 231.616 71.3698 231.539 71.3096C231.476 71.2255 231.414 71.1106 231.355 70.9649C231.057 70.7619 230.797 70.5086 230.573 70.2048C230.344 69.8822 230.153 69.5494 230 69.2064C229.86 68.8394 229.749 68.4648 229.666 68.0826C229.602 67.6953 229.571 67.3192 229.574 66.9544C229.592 66.8688 229.59 66.7882 229.57 66.7128C229.568 66.6323 229.564 66.5424 229.557 66.443C229.551 66.1209 229.548 65.8083 229.547 65.5051C229.565 65.1968 229.621 64.9186 229.716 64.6704C229.595 64.5211 229.544 64.3325 229.564 64.1047C229.583 63.877 229.617 63.6655 229.665 63.4703C229.736 62.6825 229.79 62.0206 229.827 61.4845C229.878 60.9245 229.932 60.3739 229.988 59.8327C230.08 58.8977 230.155 57.9771 230.214 57.0711C230.273 56.1651 230.286 55.2007 230.252 54.1779C230.378 54.0429 230.473 53.9464 230.538 53.8883C230.641 53.8201 230.728 53.7663 230.798 53.7271C231.183 53.8052 231.625 53.868 232.124 53.9155C232.617 53.9442 233.014 53.9179 233.316 53.8364C233.492 53.89 233.607 53.94 233.66 53.9863C233.708 54.0139 233.756 54.0414 233.804 54.0689C234.077 54.2581 234.325 54.4643 234.547 54.6876C234.764 54.892 234.9 55.2092 234.956 55.6393C234.888 55.8396 234.827 55.9473 234.77 55.9626C234.778 56.3652 234.76 56.7137 234.718 57.0083C234.695 57.2977 234.663 57.5897 234.621 57.8842C234.565 58.2027 234.519 58.5186 234.482 58.832C234.446 59.1454 234.446 59.5197 234.482 59.9549C234.432 60.0695 234.398 60.1697 234.381 60.2553C234.383 60.3358 234.377 60.4283 234.365 60.5327C234.353 60.6372 234.334 60.7536 234.308 60.882C234.295 60.9865 234.252 61.0892 234.178 61.19C234.254 61.6956 234.267 62.117 234.216 62.4543C234.184 62.7866 234.143 63.1214 234.093 63.4587C234.014 64.0666 233.954 64.6694 233.913 65.2672C233.891 65.8598 233.955 66.5101 234.106 67.2179C234.19 67.1548 234.27 67.113 234.345 67.0926C234.44 67.0672 234.525 67.0443 234.6 67.0239C234.77 66.9781 234.975 66.953 235.217 66.9484C235.701 66.494 236.266 66.1495 236.91 65.9148C237.574 65.6749 238.233 65.4565 238.888 65.2595C239.152 65.1883 239.416 65.117 239.68 65.0457C239.944 64.9745 240.184 64.8895 240.4 64.7907C240.595 64.8391 240.714 64.8677 240.757 64.8764C240.814 64.8611 240.889 64.8408 240.983 64.8153C241.115 64.7797 241.231 64.7586 241.33 64.752C241.613 64.8983 241.87 64.9906 242.103 65.0289C242.336 65.0672 242.576 65.0935 242.822 65.1079C243.05 65.1273 243.271 65.1587 243.485 65.2021C243.713 65.2215 243.941 65.2812 244.171 65.3812L244.697 66.5439C244.875 66.678 244.962 66.7759 244.958 66.8376C244.999 66.9884 244.992 67.1117 244.937 67.2075L245.077 67.5034C244.81 67.6363 244.629 67.7557 244.537 67.8617C244.463 67.9626 244.391 68.0729 244.323 68.1926C244.177 68.2522 244.066 68.2922 243.991 68.3125C243.934 68.3278 243.878 68.3431 243.821 68.3583C243.557 68.4296 243.249 68.5633 242.898 68.7593C242.343 68.7271 241.792 68.7847 241.245 68.9323C241.037 68.9883 240.823 69.0563 240.602 69.1362C240.381 69.2162 240.16 69.2961 239.938 69.376C239.722 69.4748 239.494 69.5668 239.254 69.6518C239.033 69.7317 238.8 69.8048 238.555 69.8709L237.95 70.2163ZM260.21 55.4377C260.252 55.669 260.329 55.8808 260.442 56.0729C260.554 56.2651 260.676 56.4547 260.808 56.6418C260.953 56.8049 261.091 56.98 261.223 57.167C261.354 57.3541 261.467 57.5462 261.56 57.7435C261.669 57.9973 261.748 58.2895 261.797 58.6203C261.841 58.9322 261.856 59.2517 261.843 59.5788C261.825 59.8871 261.774 60.1842 261.689 60.47C261.6 60.737 261.466 60.9551 261.289 61.1242C261.117 61.5349 260.868 61.8854 260.541 62.1758C260.215 62.4662 259.928 62.7866 259.678 63.1371C259.506 63.3251 259.296 63.483 259.047 63.6108C258.818 63.7336 258.578 63.8589 258.33 63.9867C258.153 64.1558 257.941 64.3446 257.693 64.5529C257.441 64.7424 257.179 64.9344 256.908 65.129C256.632 65.3047 256.351 65.4616 256.064 65.5996C255.773 65.7188 255.511 65.7995 255.28 65.8417C254.77 66.2018 254.25 66.484 253.718 66.6881C253.21 66.9061 252.578 67.0363 251.821 67.0789C251.167 67.3564 250.528 67.4987 249.903 67.5056C249.296 67.5075 248.724 67.4092 248.184 67.2108C247.659 66.9885 247.166 66.6968 246.704 66.3359C246.256 65.951 245.86 65.532 245.515 65.0789C245.074 64.0448 244.85 63.0635 244.842 62.135C244.829 61.1877 244.931 60.2904 245.147 59.443C245.377 58.5717 245.681 57.7511 246.06 56.9812C246.434 56.1925 246.794 55.4277 247.14 54.6868C247.264 54.694 247.349 54.6711 247.395 54.6181C247.455 54.5412 247.503 54.4574 247.539 54.3667C247.571 54.2571 247.604 54.157 247.64 54.0663C247.696 53.9705 247.768 53.9005 247.857 53.8562C247.912 53.5377 248.045 53.2794 248.255 53.0812C248.478 52.8591 248.629 52.5957 248.709 52.291C248.868 52.2075 248.995 52.1127 249.087 52.0068C249.18 51.9008 249.261 51.7879 249.33 51.6682C249.417 51.5434 249.508 51.428 249.6 51.322C249.688 51.1972 249.802 51.0956 249.943 51.0171L249.859 50.706C250.158 50.4635 250.357 50.2277 250.457 49.9984C250.571 49.7452 250.702 49.4466 250.852 49.1026C251.017 49.038 251.146 48.9929 251.241 48.9675C251.354 48.9369 251.509 48.8748 251.706 48.7811C251.786 48.4764 251.864 48.2428 251.942 48.0802C252.038 47.9126 252.189 47.7203 252.393 47.5033C252.65 47.5553 252.915 47.5646 253.19 47.531C253.483 47.4924 253.761 47.5488 254.024 47.7002C254.094 47.8837 254.191 48.0193 254.316 48.107C254.436 48.1758 254.565 48.2421 254.704 48.3058C254.837 48.3507 254.964 48.4076 255.083 48.4764C255.222 48.5401 255.333 48.6518 255.417 48.8113C255.497 48.8098 255.542 48.7876 255.55 48.7448C255.578 48.6969 255.632 48.6722 255.712 48.6707C255.84 48.9195 255.955 49.0808 256.056 49.1547C256.151 49.2098 256.27 49.3497 256.412 49.5745C256.368 49.7885 256.346 50.0068 256.346 50.2295C256.359 50.4283 256.284 50.6002 256.121 50.7454C256.138 50.8825 256.196 50.9477 256.295 50.9411C256.389 50.9157 256.459 50.9476 256.503 51.0367C256.568 51.2014 256.572 51.3316 256.517 51.4273C257.168 52.0406 257.785 52.7137 258.367 53.4466C258.944 54.1608 259.558 54.8244 260.21 55.4377ZM257.399 59.0791C257.419 58.8513 257.467 58.6561 257.545 58.4936C257.641 58.326 257.663 58.1076 257.611 57.8386C257.476 57.7132 257.389 57.6153 257.349 57.545C257.305 57.4558 257.257 57.3169 257.207 57.1283C256.634 56.6558 256.108 56.1302 255.628 55.5517C255.143 54.9543 254.633 54.4142 254.098 53.9315C254.081 54.0171 254.035 54.1103 253.961 54.2112C253.887 54.3121 253.778 54.3212 253.635 54.2386C253.638 54.3997 253.602 54.5306 253.528 54.6315C253.449 54.7135 253.353 54.7698 253.24 54.8003C253.122 54.812 252.992 54.8168 252.849 54.8147C252.721 54.7887 252.6 54.7507 252.485 54.7007C252.055 55.282 251.623 55.8539 251.188 56.4164C250.753 56.9788 250.393 57.592 250.107 58.2559C250.041 58.314 249.999 58.3455 249.98 58.3506C249.956 58.3369 249.902 58.3616 249.818 58.4247C249.764 58.8237 249.665 59.2046 249.52 59.5674C249.389 59.9062 249.26 60.2545 249.134 60.6122C249.008 60.9699 248.916 61.3388 248.857 61.7189C248.797 62.0991 248.819 62.5179 248.923 62.9756C249.314 63.153 249.735 63.2115 250.184 63.151C250.633 63.0905 251.078 62.9803 251.521 62.8205C251.982 62.6555 252.419 62.4768 252.833 62.2843C253.26 62.0678 253.662 61.9087 254.039 61.8069C254.78 61.4045 255.393 60.9762 255.877 60.5218C256.356 60.0485 256.864 59.5676 257.399 59.0791ZM260.676 50.7598C260.702 50.3282 260.817 49.9328 261.024 49.5736C261.249 49.2093 261.506 48.8871 261.795 48.6069C262.097 48.3027 262.419 48.0338 262.76 47.8C263.102 47.5662 263.43 47.3563 263.744 47.1704C264.411 46.6463 265.131 46.1282 265.903 45.6163C266.689 45.0805 267.495 44.5798 268.32 44.1143C269.164 43.6437 270.05 43.2529 270.977 42.9418C271.9 42.6119 272.92 42.4578 274.039 42.4795C274.146 42.6528 274.28 42.8091 274.439 42.9482C274.597 43.0874 274.756 43.2266 274.915 43.3657C275.093 43.4998 275.252 43.639 275.392 43.7832C275.527 43.9086 275.627 44.0536 275.692 44.2182C275.926 44.3371 276.128 44.4849 276.297 44.6618C276.461 44.8198 276.549 45.0693 276.56 45.4102C276.412 45.6119 276.261 45.8043 276.109 45.9872C275.969 46.1461 275.809 46.3007 275.627 46.451C274.883 46.4696 274.161 46.6039 273.46 46.8539C272.758 47.1039 272.13 47.3241 271.575 47.5145C271.359 47.3906 271.129 47.3618 270.884 47.4279C270.657 47.489 270.422 47.5929 270.179 47.7396C269.954 47.8812 269.72 48.0253 269.476 48.172C269.251 48.3136 269.021 48.3961 268.784 48.4195C268.636 48.6212 268.429 48.7885 268.161 48.9215C267.907 49.0304 267.625 49.147 267.315 49.2713C267.321 49.3707 267.358 49.4316 267.425 49.454C267.487 49.4576 267.511 49.5116 267.499 49.6161C267.648 49.7175 267.815 49.7736 268 49.7844C268.203 49.7901 268.407 49.7957 268.611 49.8014C268.834 49.802 269.033 49.8291 269.21 49.8826C269.381 49.9173 269.52 50.0213 269.628 50.1946C269.91 50.1183 270.173 50.1181 270.416 50.1941C270.659 50.2701 270.872 50.3846 271.055 50.5375C271.238 50.6904 271.388 50.8724 271.506 51.0834C271.638 51.2705 271.726 51.4488 271.772 51.6185C271.869 51.7541 271.953 51.8023 272.023 51.7631C272.094 51.7239 272.189 51.7387 272.309 51.8075C272.431 52.0374 272.641 52.2538 272.939 52.4567C273.231 52.6407 273.484 52.8658 273.698 53.1319C273.863 53.5931 274.006 54.0097 274.126 54.3817C274.242 54.7349 274.275 55.1204 274.226 55.5383C274.131 56.3123 273.903 57.0415 273.542 57.7257C273.199 58.4049 272.766 59.0479 272.242 59.6546C271.732 60.2375 271.159 60.7764 270.524 61.2715C269.889 61.7667 269.26 62.2096 268.637 62.6002C268.556 62.6017 268.481 62.6221 268.411 62.6613C268.34 62.7005 268.309 62.6585 268.316 62.5352C268.201 62.7079 268.054 62.8385 267.876 62.9271C267.716 63.0107 267.53 63.071 267.317 63.1081C267.11 63.1641 266.891 63.2132 266.659 63.2555C266.447 63.2926 266.251 63.3555 266.073 63.4441C265.905 63.3477 265.747 63.2488 265.598 63.1474C265.474 63.0597 265.357 62.9292 265.25 62.7559C265.156 62.7813 265.096 62.7469 265.07 62.6526C265.064 62.5533 265.023 62.5138 264.947 62.5341C265.01 62.315 265.029 62.1986 265.005 62.1848C264.995 62.1471 264.959 62.1264 264.897 62.1229C264.854 62.1142 264.811 62.1055 264.769 62.0968C264.721 62.0693 264.699 62.0247 264.702 61.963C264.737 61.7918 264.719 61.6145 264.65 61.431C264.575 61.2287 264.5 61.0264 264.425 60.824C264.35 60.6217 264.306 60.4212 264.293 60.2224C264.299 60.0186 264.399 59.8296 264.595 59.6553C265.257 59.5577 265.855 59.376 266.39 59.1101C266.939 58.8203 267.437 58.4936 267.885 58.1299C268.333 57.7662 268.748 57.3913 269.129 57.0051C269.53 56.6139 269.928 56.2534 270.324 55.9239C270.335 55.7389 270.372 55.5771 270.436 55.4385C270.519 55.2948 270.604 55.1606 270.692 55.0358C270.779 54.9109 270.855 54.7792 270.919 54.6407C270.983 54.5021 271.01 54.3428 271.002 54.1629C270.985 54.0259 270.927 53.9606 270.828 53.9672C270.742 53.9499 270.684 53.8846 270.654 53.7715L270.32 53.7706C269.906 53.6599 269.454 53.5996 268.966 53.5898C268.473 53.5611 268.043 53.5052 267.677 53.422C267.5 53.5911 267.309 53.6729 267.106 53.6672C266.921 53.6564 266.679 53.6609 266.381 53.6807C265.73 53.8161 265.09 53.918 264.461 53.9866C263.851 54.0502 263.239 54.0332 262.626 53.9356C262.563 53.8515 262.493 53.7794 262.416 53.7192C262.339 53.6591 262.23 53.6682 262.09 53.7467C261.936 53.6264 261.785 53.5155 261.636 53.414C261.482 53.2937 261.335 53.1614 261.195 53.0172C261.171 52.7807 261.149 52.5845 261.127 52.4286C261.1 52.2538 261 52.1088 260.827 51.9936C260.837 51.7281 260.84 51.5148 260.837 51.3538C260.834 51.1927 260.78 50.9947 260.676 50.7598ZM288.579 39.7987C288.634 39.9256 288.662 40.0293 288.663 40.1099C288.678 40.1664 288.684 40.2255 288.681 40.2872C288.696 40.3438 288.714 40.4098 288.734 40.4852C288.749 40.5418 288.794 40.631 288.867 40.7528C288.644 41.5008 288.302 42.0686 287.84 42.4563C287.392 42.82 286.881 43.1398 286.308 43.4159C285.731 43.673 285.136 43.9447 284.526 44.2309C283.934 44.512 283.378 44.9251 282.857 45.4702C282.587 45.4421 282.361 45.5032 282.179 45.6535C282.015 45.7986 281.74 45.9033 281.353 45.9674C281.27 46.111 281.152 46.2341 280.997 46.3365C280.838 46.42 280.681 46.5129 280.526 46.6153C280.648 46.7647 280.724 46.9362 280.756 47.1298C280.802 47.2995 280.869 47.4333 280.956 47.5312C281.631 47.4096 282.354 47.2042 283.126 46.915C283.916 46.6207 284.696 46.3598 285.464 46.1322C285.508 46.2214 285.516 46.2899 285.489 46.3378C285.456 46.3669 285.46 46.4166 285.499 46.4869C285.656 46.5455 285.821 46.6325 285.994 46.7477C286.162 46.8441 286.329 46.9404 286.497 47.0368C286.665 47.1332 286.827 47.2107 286.985 47.2693C287.156 47.304 287.333 47.2865 287.517 47.2167C287.633 47.3472 287.726 47.5042 287.795 47.6877C287.879 47.8472 287.908 48.0314 287.884 48.2404C287.638 48.5292 287.395 48.8275 287.154 49.1352C286.909 49.4241 286.639 49.6992 286.345 49.9605C286.071 50.2167 285.76 50.4523 285.413 50.6673C285.081 50.8583 284.685 51.0054 284.228 51.1087C284.133 51.1342 284.058 51.1545 284.001 51.1698C283.964 51.18 283.9 51.167 283.809 51.1308C283.683 51.2658 283.474 51.3526 283.181 51.3912C282.907 51.4248 282.707 51.509 282.582 51.644C282.349 51.6058 282.084 51.6368 281.788 51.7371C281.505 51.8134 281.24 51.8444 280.993 51.8301C280.799 52.3075 280.64 52.8056 280.517 53.3243C280.394 53.843 280.307 54.3824 280.256 54.9424C280.922 54.8636 281.46 54.7588 281.87 54.628C282.299 54.492 282.696 54.3543 283.063 54.2148C283.425 54.0564 283.799 53.9049 284.185 53.7603C284.566 53.5969 285.06 53.4431 285.669 53.2991C285.99 52.9899 286.397 52.7383 286.891 52.5443C287.399 52.3263 287.849 52.0834 288.242 51.8155C288.408 51.8313 288.568 51.8994 288.722 52.0197C288.871 52.1212 289.01 52.2252 289.14 52.3317C289.284 52.4143 289.425 52.4875 289.563 52.5512C289.702 52.615 289.854 52.6145 290.018 52.5498C290.114 52.6049 290.187 52.6865 290.236 52.7945C290.299 52.8786 290.353 52.9652 290.397 53.0544C290.442 53.1436 290.493 53.2208 290.551 53.2861C290.623 53.3274 290.713 53.3233 290.821 53.2739C290.706 53.9726 290.506 54.5425 290.22 54.9837C289.948 55.401 289.6 55.7581 289.174 56.055C288.748 56.352 288.256 56.6265 287.697 56.8786C287.157 57.1256 286.556 57.4092 285.894 57.7295C285.734 57.8131 285.59 57.8418 285.462 57.8158C285.338 57.8086 285.201 57.8254 285.05 57.8661C284.642 58.0775 284.147 58.3023 283.564 58.5406C282.98 58.7789 282.375 58.9726 281.748 59.1217C281.121 59.2709 280.504 59.3463 279.897 59.3482C279.296 59.3689 278.768 59.2485 278.313 58.9869C278.126 58.8956 277.982 58.7728 277.88 58.6183C277.791 58.44 277.63 58.3316 277.397 58.2933C277.312 58.0533 277.201 57.7901 277.063 57.5036C276.925 57.2172 276.784 56.9213 276.641 56.616C276.493 56.2919 276.357 55.9746 276.232 55.6643C276.127 55.3488 276.067 55.0514 276.052 54.7722C276.033 54.4741 276.077 54.189 276.186 53.9169C276.313 53.6397 276.313 53.3768 276.185 53.128C276.274 53.0837 276.318 53.0213 276.317 52.9408C276.31 52.8414 276.375 52.7834 276.512 52.7666C276.534 52.3966 276.57 52.043 276.62 51.7057C276.671 51.3683 276.724 51.0404 276.78 50.7219C276.854 50.3984 276.919 50.0774 276.975 49.7589C277.044 49.4165 277.097 49.0483 277.132 48.6544C276.802 48.4805 276.533 48.27 276.324 48.0228C276.13 47.7516 275.966 47.4822 275.833 47.2147C275.695 46.9282 275.566 46.6393 275.447 46.3477C275.323 46.0374 275.17 45.7346 274.99 45.4395C275.102 45.1058 275.267 44.8184 275.485 44.5774C275.717 44.3125 275.978 44.0802 276.268 43.8806C276.558 43.6809 276.882 43.4924 277.238 43.3152C277.595 43.138 277.968 42.9462 278.358 42.74C279.046 42.2913 279.664 41.922 280.213 41.6322C280.781 41.3373 281.337 41.0758 281.883 40.8477C282.442 40.5956 283.022 40.3479 283.624 40.1045C284.226 39.8611 284.903 39.5571 285.654 39.1924C285.869 39.3163 286.053 39.3579 286.203 39.3172C286.233 39.1271 286.305 39.0571 286.42 39.1071C286.548 39.1331 286.58 39.0638 286.515 38.8992C286.791 39.1688 287.1 39.3786 287.444 39.5286C287.802 39.6545 288.18 39.7446 288.579 39.7987ZM294.752 34.3391C294.798 34.5088 294.826 34.7239 294.835 34.9843C294.864 35.2396 294.892 35.4949 294.921 35.7502C294.949 36.0055 295.001 36.2344 295.076 36.4367C295.146 36.6202 295.263 36.7198 295.43 36.7357C295.36 37.8267 295.351 38.7294 295.402 39.4439C295.472 40.1532 295.544 40.8318 295.618 41.4795C295.705 42.1032 295.775 42.7724 295.826 43.4868C295.877 44.2013 295.865 45.0946 295.791 46.1667C295.746 46.8261 295.606 47.3191 295.37 47.6457C295.13 47.9534 294.84 48.1531 294.5 48.2447C294.161 48.3363 293.787 48.3362 293.378 48.2443C292.968 48.1525 292.582 48.0341 292.22 47.8893C292.066 47.5463 291.94 47.1152 291.84 46.5959C291.754 46.0526 291.673 45.488 291.595 44.9019C291.518 44.3159 291.448 43.7581 291.386 43.2286C291.319 42.6803 291.256 42.2219 291.197 41.8534C291.33 41.5951 291.416 41.3898 291.456 41.2374C291.496 41.0851 291.504 40.9309 291.483 40.775C291.48 40.6139 291.457 40.4177 291.415 40.1864C291.373 39.955 291.333 39.6217 291.297 39.1865C291.278 38.9689 291.211 38.7949 291.095 38.6644C290.993 38.51 290.94 38.3522 290.937 38.1912C290.954 38.1056 290.996 38.0338 291.061 37.9757C291.145 37.9125 291.184 37.8312 291.177 37.7319C291.186 37.4664 291.154 37.2727 291.081 37.1509C291.002 37.0102 290.982 36.8235 291.021 36.5906C291.074 36.4143 291.124 36.1481 291.169 35.7919C291.228 35.4117 291.191 35.0476 291.056 34.6995C291.191 34.5217 291.31 34.3276 291.415 34.1172C291.52 33.9068 291.63 33.7152 291.745 33.5425C291.874 33.3458 292.021 33.1749 292.184 33.0297C292.366 32.8794 292.598 32.7661 292.881 32.6898C293.088 32.8565 293.254 33.0239 293.381 33.1921C293.507 33.3603 293.621 33.5216 293.724 33.6761C293.845 33.8254 293.982 33.9603 294.136 34.0806C294.29 34.2009 294.496 34.2871 294.752 34.3391ZM296.297 51.1889C296.375 51.3295 296.441 51.4633 296.496 51.5902C296.55 51.7171 296.607 51.8535 296.667 51.9992C296.661 52.4257 296.635 52.8171 296.589 53.1733C296.569 53.3206 296.554 53.4156 296.545 53.4584C296.536 53.5012 296.535 53.532 296.54 53.5509C296.545 53.5697 296.562 53.5955 296.591 53.6281C296.615 53.6419 296.645 53.7147 296.68 53.8467L296.63 54.2243C296.572 54.3818 296.487 54.516 296.375 54.6271C296.282 54.733 296.177 54.8321 296.061 54.9243C296.014 54.9773 295.956 55.0234 295.886 55.0626C295.839 55.1156 295.802 55.166 295.775 55.2139L295.782 55.5763L295.401 55.7397C295.119 55.8966 294.856 56.0081 294.611 56.0743L294.3 56.1583C294.018 56.0119 293.795 55.9 293.633 55.8225C293.47 55.745 293.291 55.682 293.096 55.6335C292.792 55.3312 292.586 55.0532 292.477 54.7994C292.373 54.5644 292.282 54.4169 292.205 54.3567L291.702 54.0676L291.973 53.7215L291.489 53.2757C291.669 53.0449 291.806 52.8765 291.899 52.7705C291.991 52.6646 292.065 52.5637 292.12 52.4679C292.189 52.3482 292.253 52.2096 292.312 52.0522C292.37 51.8947 292.463 51.6371 292.589 51.2795L292.744 50.843L293.137 50.9494C293.246 50.9805 293.431 50.9913 293.692 50.9817C293.966 50.9481 294.202 50.9248 294.401 50.9116C294.728 50.9244 295.041 50.9209 295.339 50.9012C295.651 50.8574 295.912 50.8881 296.122 50.9931L296.297 51.1889Z" fill="white"/>
<path d="M20.7817 316.564L21.2523 316.259L21.3444 315.546C22.0247 314.207 22.7118 312.925 23.4056 311.702C24.1221 310.479 24.864 309.225 25.6315 307.939C25.8709 307.524 26.1104 307.109 26.3498 306.694C26.612 306.281 26.8637 305.855 27.105 305.418C27.0897 305.325 27.0857 305.233 27.0931 305.143C27.1023 305.029 27.1351 304.906 27.1916 304.773C27.5465 304.345 27.8295 303.956 28.0407 303.608C28.2746 303.261 28.4981 302.902 28.7111 302.531C28.9524 302.093 29.2051 301.656 29.4691 301.22C29.7558 300.786 30.0984 300.368 30.4968 299.966L30.7629 299.645L31.1349 299.71C31.2295 299.672 31.3231 299.645 31.4158 299.63C31.533 299.593 31.6711 299.582 31.8301 299.595L32.435 299.747C33.2122 299.467 33.9105 299.032 34.5299 298.442C35.1739 297.832 35.828 297.096 36.4923 296.235L36.9481 295.689L37.4655 296.074C37.5736 296.152 37.7497 296.235 37.994 296.323C38.2383 296.411 38.4931 296.512 38.7582 296.625C39.2259 296.777 39.6805 296.952 40.1218 297.147C40.565 297.321 40.9013 297.542 41.1309 297.812L41.2763 298.133C41.3014 298.386 41.3171 298.616 41.3232 298.822C41.352 299.03 41.3808 299.239 41.4096 299.447C41.4618 299.931 41.5025 300.414 41.5319 300.897C41.5632 301.357 41.5671 301.871 41.5437 302.441C41.6204 302.904 41.6848 303.378 41.7369 303.863C41.8136 304.326 41.8789 304.789 41.9328 305.25C41.9929 305.918 42.0662 306.564 42.1527 307.188C42.241 307.79 42.3766 308.373 42.5594 308.936C42.7865 308.955 42.9219 308.977 42.9655 309.003C43.2472 308.912 43.5707 308.87 43.9359 308.876L44.3816 308.878L44.4847 309.298C44.5246 309.37 44.5758 309.443 44.6384 309.516C44.701 309.59 44.775 309.665 44.8603 309.74C45.2218 309.792 45.4766 309.893 45.6245 310.042C45.7969 310.171 45.9353 310.296 46.0397 310.419C46.0814 310.468 46.1336 310.529 46.1962 310.603C46.2606 310.654 46.3146 310.693 46.3582 310.719L46.9521 311.007L46.5588 311.627C46.2703 312.084 45.8464 312.518 45.2871 312.93C44.7506 313.343 44.1523 313.672 43.4924 313.916C43.525 314.078 43.5357 314.228 43.5246 314.364C43.5363 314.502 43.5574 314.664 43.5881 314.849C43.642 315.311 43.6715 315.793 43.6763 316.297C43.7057 316.779 43.6651 317.279 43.5546 317.796C43.2795 318.368 42.9636 318.879 42.6069 319.33C42.2748 319.761 41.8773 320.151 41.4144 320.502C40.9761 320.833 40.4856 321.101 39.9429 321.309C39.4021 321.494 38.8469 321.574 38.2773 321.551C37.9648 321.457 37.7328 321.358 37.5812 321.254C37.4523 321.152 37.3348 321.051 37.2286 320.951C37.058 320.8 36.9177 320.697 36.8079 320.643L36.3816 320.402L36.5594 319.902C36.6422 319.726 36.6438 319.566 36.564 319.423C36.5069 319.281 36.3627 319.086 36.1313 318.839C36.046 318.763 35.9721 318.689 35.9095 318.615C35.8487 318.519 35.7766 318.421 35.6931 318.323L35.0754 317.484L36.2245 317.269C36.9206 317.143 37.3933 316.952 37.6426 316.698C37.8936 316.422 38.026 315.918 38.0396 315.187C37.481 315.028 37.0163 314.979 36.6456 315.04C36.2767 315.079 35.9068 315.129 35.5361 315.19C35.0026 315.284 34.4815 315.367 33.9726 315.44C33.4655 315.49 32.9168 315.492 32.3263 315.444C31.9402 315.412 31.5341 315.345 31.1081 315.242L30.7362 315.177L30.6644 314.794C30.6681 314.749 30.6377 314.701 30.5733 314.65C30.5334 314.578 30.4926 314.517 30.4508 314.468C30.3483 314.323 30.2268 314.13 30.0863 313.89C29.9457 313.65 29.9347 313.363 30.0532 313.03C29.9145 312.767 29.8449 312.499 29.8443 312.224C29.7387 312.399 29.6445 312.574 29.5616 312.75C29.5033 312.905 29.4449 313.061 29.3866 313.216L29.2144 313.648L28.7659 313.68C28.7168 313.722 28.6659 313.786 28.6131 313.873C28.583 313.962 28.5774 314.03 28.5965 314.078L28.7023 314.464L28.3367 314.742C28.2858 314.807 28.2244 314.859 28.1526 314.899C28.0807 314.939 28.0203 314.98 27.9712 315.021C27.9055 315.268 27.818 315.5 27.7087 315.72C27.6221 315.942 27.5242 316.162 27.4149 316.382C27.2718 316.736 27.1296 317.079 26.9884 317.411C26.8699 317.744 26.7968 318.081 26.7692 318.422L26.5969 318.853C26.4686 319.026 26.3099 319.15 26.1209 319.226C25.9545 319.304 25.7891 319.371 25.6245 319.426C25.39 319.498 25.2237 319.576 25.1255 319.66L24.9873 320.094L24.4708 320.121C24.17 320.165 23.9505 320.193 23.8124 320.205C23.697 320.218 23.5598 320.219 23.4008 320.206L22.9607 320.136C22.7103 319.841 22.4998 319.618 22.3292 319.467C22.1831 319.295 22.0011 319.143 21.7832 319.011L21.6009 318.722C21.5248 318.533 21.481 318.369 21.4693 318.231C21.4595 318.07 21.4384 317.909 21.4059 317.746C21.3844 317.447 21.3329 317.237 21.2512 317.116L20.7817 316.564ZM32.3686 308.589C32.0137 309.017 31.6684 309.469 31.3325 309.945C31.4934 309.935 31.6419 309.936 31.7782 309.947C31.9372 309.96 32.0971 309.961 32.2579 309.951C33.0565 309.97 33.7992 309.974 34.4861 309.961C35.173 309.948 35.9204 309.894 36.7282 309.8C36.6147 308.945 36.4795 308.077 36.3224 307.195C36.19 306.293 36.0348 305.389 35.8569 304.483L35.6589 304.809C35.0413 305.376 34.4427 305.991 33.8632 306.652C33.2836 307.314 32.7977 307.949 32.4054 308.557L32.3686 308.589ZM82.4354 324.211C82.199 324.306 81.975 324.391 81.7632 324.465C81.5741 324.541 81.3547 324.569 81.1048 324.549C80.2726 323.818 79.9001 322.633 79.9875 320.994C80.0976 319.357 80.6184 317.308 81.5498 314.846C81.6689 314.787 81.7368 314.655 81.7534 314.451L81.4744 314.085C81.3836 314.078 81.2918 314.082 81.1991 314.097C81.1291 314.114 81.0659 314.189 81.0094 314.322C80.3839 314.705 79.6997 315.107 78.9569 315.527C78.216 315.924 77.4428 316.295 76.6374 316.641C75.8566 316.967 75.0585 317.222 74.2433 317.407C73.4509 317.594 72.6799 317.658 71.9304 317.597C70.0226 317.442 68.6702 316.36 67.873 314.352L67.642 313.819L67.3335 314.24C67.258 314.325 67.1401 314.51 66.9798 314.794C66.8214 315.056 66.6594 315.363 66.4936 315.715C66.3278 316.067 66.1724 316.432 66.0275 316.809C65.9072 317.165 65.8473 317.48 65.8479 317.754C65.6269 317.942 65.3917 318.163 65.1425 318.417C64.8932 318.671 64.698 318.964 64.5568 319.295C64.4966 319.473 64.5055 319.646 64.5834 319.812C64.5214 320.013 64.4063 320.163 64.2381 320.264C64.138 320.37 64.0266 320.475 63.9038 320.58C63.8056 320.663 63.7178 320.759 63.6404 320.867C63.5858 320.977 63.5425 321.088 63.5106 321.199C63.5014 321.313 63.4808 321.426 63.4488 321.537C63.4359 321.696 63.4012 321.842 63.3447 321.975C62.8941 322.738 62.546 323.224 62.3004 323.433C62.053 323.664 61.7363 323.764 61.3502 323.733C61.1685 323.718 60.876 323.66 60.4727 323.559C60.2033 323.217 59.9658 322.763 59.7602 322.198C59.5792 321.612 59.4464 320.995 59.3618 320.348C59.2998 319.703 59.2947 319.062 59.3463 318.427C59.4225 317.77 59.5822 317.211 59.8253 316.751C59.8272 316.728 59.9365 316.508 60.1532 316.092C60.37 315.675 60.6423 315.137 60.9701 314.478C61.3207 313.82 61.7109 313.097 62.1407 312.309C62.5723 311.499 63.0012 310.722 63.4272 309.979C63.8552 309.214 64.2549 308.515 64.6263 307.882C65.0205 307.251 65.345 306.774 65.5997 306.452C65.8036 306.194 65.9828 305.957 66.1375 305.741C66.3168 305.504 66.4838 305.278 66.6385 305.062C67.1045 304.391 67.5376 303.843 67.9379 303.418C68.3627 302.973 68.9496 302.643 69.6985 302.43C70.1816 302.675 70.5256 302.943 70.7306 303.234L70.7683 303.614C70.8407 303.848 70.9677 303.973 71.1494 303.988C71.3937 304.076 71.5926 304.161 71.746 304.242C71.924 304.302 72.1134 304.363 72.3141 304.425C72.4584 304.62 72.5885 304.848 72.7044 305.109C72.864 305.396 73.0122 305.682 73.1491 305.968C73.3105 306.232 73.4255 306.505 73.4942 306.784C73.5875 307.043 73.6231 307.309 73.601 307.582C73.6015 307.856 73.5331 308.136 73.3955 308.422L73.4019 308.766C73.4989 308.98 73.4985 309.265 73.4009 309.623C73.3653 309.78 73.3401 309.95 73.3253 310.131C73.3124 310.29 73.3204 310.474 73.3492 310.682C73.7322 311.033 74.0827 311.222 74.4006 311.247C74.764 311.277 75.0998 311.224 75.408 311.089C75.7407 310.933 76.0507 310.776 76.338 310.616C76.5307 310.495 76.7217 310.396 76.9107 310.32C77.1016 310.221 77.2889 310.167 77.4724 310.159C77.9126 309.807 78.3036 309.495 78.6456 309.226C79.0102 308.958 79.3862 308.692 79.7736 308.426C80.4992 307.936 81.2058 307.399 81.8934 306.815C82.5809 306.231 83.1565 305.477 83.62 304.555C83.8582 304.437 84.1022 304.388 84.3521 304.408C84.6019 304.429 84.8585 304.507 85.1218 304.642C85.3851 304.778 85.6371 304.913 85.8777 305.047C85.9421 305.098 85.9961 305.136 86.0397 305.163C86.106 305.191 86.1609 305.218 86.2045 305.245C86.1861 305.472 86.2612 305.672 86.43 305.846C86.5153 305.921 86.5684 305.971 86.5893 305.996C86.6102 306.021 86.6424 306.046 86.686 306.072C87.0119 306.282 87.2129 306.481 87.289 306.67C87.4056 307.205 87.6572 307.626 88.0438 307.932C87.98 308.155 87.9625 308.371 87.9913 308.579C88.0447 308.766 88.1085 308.966 88.1827 309.177C88.1999 309.247 88.2171 309.317 88.2343 309.387C88.2514 309.457 88.2791 309.54 88.3171 309.634L87.6754 309.513L87.725 310.169C87.7446 310.491 87.6819 310.84 87.537 311.217C87.4148 311.596 87.2764 311.893 87.1217 312.109C87.0964 312.701 87.07 313.168 87.0423 313.509C87.0392 313.828 87.0029 314.134 86.9335 314.426C86.866 314.694 86.7766 314.95 86.6655 315.193C86.5771 315.437 86.4528 315.701 86.2925 315.985C86.2653 317.446 85.9871 318.761 85.4578 319.93C84.9531 321.077 84.4312 322.155 83.8921 323.163C83.8375 323.273 83.7715 323.382 83.6941 323.49C83.6395 323.6 83.5848 323.71 83.5302 323.82C83.3203 323.871 83.1321 323.936 82.9658 324.014C82.8012 324.069 82.6244 324.135 82.4354 324.211ZM105.477 323.819C105.31 324.194 105.073 324.575 104.767 324.961C104.486 325.327 104.151 325.654 103.762 325.943C103.397 326.21 102.991 326.429 102.543 326.598C102.094 326.767 101.631 326.844 101.152 326.828C100.862 326.736 100.664 326.64 100.558 326.54C100.473 326.464 100.376 326.388 100.268 326.31C100.204 326.26 100.138 326.22 100.072 326.192C100.03 326.143 99.9878 326.105 99.9442 326.078L99.5492 325.875L99.7215 325.443C99.7816 325.265 99.7813 325.128 99.7206 325.031C99.6617 324.912 99.5374 324.754 99.3477 324.555C99.2851 324.482 99.2225 324.408 99.1599 324.334C99.0973 324.261 99.0461 324.188 99.0062 324.116L98.4796 323.422L99.4188 323.258C99.9995 323.145 100.391 322.971 100.593 322.736C100.818 322.503 100.931 322.089 100.934 321.495C100.487 321.367 100.102 321.325 99.7781 321.367C99.4773 321.411 99.1643 321.466 98.8389 321.531C98.4209 321.611 97.9924 321.679 97.5535 321.735C97.1392 321.77 96.6822 321.767 96.1825 321.726C96.0008 321.712 95.8305 321.698 95.6715 321.685C95.5144 321.649 95.3459 321.613 95.166 321.575L94.8309 321.48C94.8058 321.226 94.7714 321.086 94.7278 321.06C94.6861 321.011 94.6444 320.961 94.6026 320.912C94.4983 320.79 94.3854 320.632 94.2638 320.439C94.1669 320.225 94.1645 319.974 94.2566 319.684C94.1596 319.47 94.1081 319.26 94.102 319.054C93.9436 319.316 93.8183 319.591 93.7262 319.881L93.5623 320.211L93.216 320.251C93.1688 320.27 93.1301 320.324 93.1 320.413C93.0718 320.479 93.0558 320.535 93.0521 320.581L92.8347 321.146C92.7856 321.188 92.7365 321.229 92.6874 321.271C92.6401 321.29 92.592 321.321 92.5428 321.362C92.4808 321.563 92.4074 321.763 92.3227 321.962C92.238 322.161 92.1542 322.348 92.0713 322.524C91.9337 322.81 91.8076 323.097 91.6927 323.385C91.6025 323.652 91.5576 323.923 91.5582 324.197L91.3915 324.561C91.2669 324.688 91.1327 324.791 90.9891 324.871C90.8473 324.928 90.7055 324.985 90.5637 325.042C90.5146 325.084 90.4428 325.124 90.3482 325.162C90.2782 325.179 90.2196 325.197 90.1723 325.216L90.0397 325.583L89.6254 325.618C89.3719 325.643 89.1874 325.662 89.072 325.676C88.9793 325.691 88.8648 325.693 88.7285 325.682L88.3906 325.62C88.1574 325.396 87.9773 325.221 87.8502 325.096C87.725 324.949 87.5762 324.811 87.4037 324.683C87.2214 324.394 87.1245 324.18 87.1128 324.042C87.1012 323.904 87.0886 323.777 87.0751 323.662C87.0408 323.522 87.0273 323.406 87.0347 323.315C87.0193 323.223 86.9908 323.152 86.949 323.103L86.5394 322.658L86.939 322.382L87.0201 321.805C87.5684 320.684 88.1357 319.61 88.7221 318.583C89.3311 317.558 89.9534 316.511 90.5888 315.443C90.8 315.094 90.9999 314.744 91.1883 314.394C91.3996 314.045 91.6108 313.697 91.822 313.348C91.8048 313.278 91.7999 313.198 91.8073 313.107C91.8146 313.016 91.8456 312.916 91.9003 312.806C92.1815 312.44 92.4135 312.116 92.5965 311.833C92.7813 311.528 92.9661 311.223 93.1509 310.918C93.3639 310.547 93.5761 310.187 93.7873 309.838C94.0212 309.492 94.3015 309.137 94.6281 308.775L95.1925 308.581C95.2625 308.564 95.3438 308.547 95.4365 308.532C95.531 308.494 95.6351 308.479 95.7486 308.489L96.2541 308.598C96.914 308.355 97.5037 307.991 98.023 307.507C98.5442 307.001 99.0851 306.393 99.6456 305.685L100.025 305.235L100.446 305.544C100.554 305.621 100.707 305.702 100.906 305.787C101.107 305.849 101.318 305.923 101.54 306.01C101.941 306.134 102.319 306.267 102.673 306.411C103.027 306.554 103.309 306.748 103.517 306.993C103.624 307.368 103.681 307.647 103.689 307.83C103.697 308.014 103.717 308.198 103.747 308.384C103.784 308.775 103.809 309.166 103.824 309.556C103.86 309.948 103.871 310.383 103.855 310.862C103.937 311.257 103.996 311.65 104.033 312.042C104.094 312.413 104.144 312.794 104.18 313.186C104.25 313.74 104.32 314.283 104.391 314.814C104.464 315.323 104.573 315.812 104.718 316.281C104.899 316.296 105.012 316.317 105.056 316.343C105.173 316.307 105.289 316.282 105.405 316.268C105.543 316.257 105.692 316.246 105.853 316.236L106.23 316.233L106.339 316.584C106.353 316.7 106.457 316.823 106.652 316.953C106.945 316.999 107.156 317.085 107.283 317.21C107.412 317.312 107.528 317.424 107.633 317.547C107.716 317.645 107.801 317.72 107.889 317.773L108.383 318.019L108.069 318.508C107.809 318.898 107.447 319.269 106.984 319.62C106.546 319.95 106.055 320.219 105.513 320.427C105.524 320.565 105.525 320.702 105.514 320.838C105.527 320.954 105.551 321.081 105.585 321.221C105.622 321.613 105.647 322.015 105.659 322.427C105.671 322.84 105.637 323.26 105.556 323.688L105.477 323.819ZM96.1104 317.125C96.7954 317.135 97.4123 317.14 97.9611 317.139C98.5344 317.117 99.1673 317.065 99.8597 316.984C99.756 316.29 99.6429 315.572 99.5202 314.83C99.3994 314.066 99.2663 313.312 99.1209 312.569L98.8888 312.893C98.3958 313.333 97.9096 313.831 97.4301 314.386C96.9734 314.944 96.5762 315.472 96.2385 315.97C96.0856 316.163 95.9328 316.357 95.7799 316.55C95.627 316.743 95.4855 316.938 95.3553 317.133C95.4935 317.121 95.6193 317.12 95.7329 317.129C95.8691 317.14 95.995 317.139 96.1104 317.125ZM126.471 311.909C125.903 311.863 125.286 311.859 124.62 311.896C123.956 311.911 123.302 311.938 122.659 311.977C122.199 312.008 121.752 312.029 121.317 312.04C120.904 312.052 120.527 312.055 120.184 312.05C119.985 312.537 119.79 312.967 119.599 313.34C119.409 313.714 119.208 314.074 118.997 314.423C118.784 314.794 118.581 315.178 118.389 315.574C118.221 315.949 118.051 316.358 117.878 316.801C117.621 317.146 117.401 317.471 117.216 317.776C117.056 318.06 116.914 318.392 116.792 318.771C116.492 319.089 116.258 319.436 116.09 319.811C115.925 320.163 115.797 320.473 115.706 320.74L115.537 321.138C115.39 321.263 115.301 321.37 115.271 321.459C115.242 321.525 115.18 321.589 115.084 321.65C115.041 321.898 114.941 322.141 114.784 322.38C114.73 322.49 114.687 322.6 114.655 322.712C114.624 322.801 114.608 322.868 114.604 322.914C114.585 323.141 114.517 323.284 114.398 323.343C114.411 323.458 114.401 323.583 114.367 323.718C114.335 323.829 114.303 323.941 114.271 324.053C114.181 324.32 114.141 324.534 114.151 324.694C114.211 324.791 114.262 324.875 114.302 324.947C114.364 325.02 114.402 325.115 114.416 325.23C114.545 325.332 114.642 325.397 114.709 325.426C114.794 325.501 114.924 325.592 115.098 325.697L115.377 326.063C115.437 326.731 115.292 327.245 114.943 327.605C114.567 328.009 113.971 328.178 113.153 328.111L112.744 328.078C112.64 327.955 112.579 327.859 112.562 327.789C112.386 327.706 112.243 327.637 112.133 327.583C112.023 327.528 111.928 327.429 111.848 327.285C111.564 327.125 111.335 326.992 111.161 326.886L110.868 326.691C110.888 326.441 110.899 326.305 110.901 326.282C110.759 326.065 110.652 325.828 110.582 325.571C110.534 325.315 110.497 325.061 110.472 324.807C110.443 324.599 110.402 324.401 110.349 324.214C110.318 324.029 110.263 323.864 110.183 323.721C110.245 322.4 110.46 321.297 110.829 320.412C111.198 319.528 111.576 318.679 111.962 317.864C112.181 317.425 112.399 316.985 112.618 316.546C112.838 316.083 113.037 315.608 113.214 315.119L113.548 314.804C113.736 314.453 113.885 314.168 113.995 313.948C114.128 313.708 114.262 313.467 114.396 313.226C114.477 313.073 114.546 312.93 114.602 312.797C114.683 312.644 114.751 312.512 114.806 312.402C114.67 312.391 114.544 312.393 114.428 312.406C114.315 312.397 114.2 312.399 114.085 312.412C113.947 312.424 113.82 312.437 113.705 312.45C113.591 312.441 113.478 312.432 113.364 312.423C113.205 312.41 113.092 312.389 113.026 312.361C112.767 312.454 112.49 312.489 112.195 312.465L111.854 312.437C111.786 312.432 111.718 312.426 111.65 312.42C111.606 312.394 111.561 312.379 111.516 312.375C111.289 312.357 111.104 312.376 110.963 312.433C110.69 312.411 110.429 312.39 110.179 312.37L109.838 312.342C109.793 312.338 109.735 312.345 109.665 312.362C109.597 312.357 109.54 312.352 109.495 312.348C109.336 312.335 109.167 312.31 108.987 312.273C108.809 312.213 108.622 312.117 108.427 311.987C108.184 311.602 108.018 311.394 107.929 311.364L107.656 310.93C107.644 310.792 107.62 310.664 107.584 310.547C107.549 310.407 107.516 310.256 107.483 310.093C107.411 309.859 107.34 309.613 107.269 309.356C107.223 309.078 107.215 308.757 107.244 308.393C107.282 308.214 107.338 308.081 107.414 307.996C107.489 307.91 107.552 307.836 107.603 307.771L107.747 307.268L108.187 307.338L109.141 307.416C109.868 307.475 110.608 307.512 111.361 307.528C112.116 307.52 112.894 307.515 113.694 307.511C114.152 307.503 114.61 307.494 115.068 307.486C115.549 307.479 116.041 307.473 116.544 307.468C116.651 307.271 116.758 307.086 116.864 306.911L117.218 306.769C117.629 306.779 117.908 306.859 118.056 307.008C118.228 307.136 118.367 307.262 118.471 307.385C118.974 307.38 119.478 307.375 119.981 307.37C120.509 307.345 121.038 307.307 121.568 307.259C122.349 307.208 123.13 307.169 123.909 307.141C124.711 307.114 125.476 307.131 126.203 307.19C126.521 307.215 126.826 307.252 127.12 307.298C127.413 307.345 127.683 307.401 127.929 307.467L128.25 307.733C128.307 307.875 128.388 308.007 128.493 308.13C128.62 308.255 128.747 308.379 128.874 308.504C129.126 308.776 129.374 309.093 129.619 309.456C129.864 309.819 129.926 310.327 129.804 310.98C129.6 311.238 129.451 311.386 129.357 311.424L129.017 311.808L128.679 311.746C128.543 311.735 128.416 311.747 128.299 311.784C128.183 311.797 128.067 311.822 127.95 311.858C127.855 311.896 127.761 311.934 127.666 311.972C127.573 311.988 127.469 312.002 127.354 312.015C127.15 311.999 126.979 311.985 126.843 311.974C126.731 311.942 126.607 311.92 126.471 311.909ZM136.65 329.299C136.284 329.292 135.831 329.244 135.29 329.154C134.771 329.067 134.276 329.106 133.805 329.274C132.605 329.131 131.391 328.884 130.162 328.532C128.933 328.181 127.811 327.781 126.796 327.333C126.589 327.065 126.38 326.819 126.17 326.596C125.961 326.351 125.668 326.167 125.289 326.045C124.779 325.569 124.378 325.011 124.087 324.37C123.798 323.706 123.58 323.014 123.433 322.293C123.286 321.573 123.208 320.846 123.199 320.114C123.191 319.359 123.227 318.642 123.305 317.962C123.728 316.968 124.276 316.132 124.949 315.455C125.645 314.757 126.353 314.072 127.07 313.398C127.377 313.286 127.603 313.167 127.751 313.042C127.923 312.896 128.093 312.773 128.261 312.672C128.454 312.551 128.634 312.439 128.802 312.339C128.995 312.217 129.167 312.071 129.318 311.901C129.804 311.826 130.226 311.7 130.583 311.523C130.965 311.326 131.335 311.127 131.695 310.928C132.056 310.705 132.426 310.507 132.806 310.332C133.186 310.157 133.619 310.032 134.105 309.957C134.304 309.768 134.532 309.626 134.791 309.533C135.052 309.417 135.312 309.312 135.571 309.219C135.855 309.105 136.116 308.989 136.354 308.871C136.615 308.755 136.823 308.589 136.977 308.373C137.076 308.564 137.23 308.645 137.438 308.616C137.648 308.565 137.846 308.512 138.033 308.459C138.149 308.445 138.238 308.476 138.3 308.549C138.386 308.625 138.46 308.699 138.522 308.773C138.585 308.847 138.638 308.897 138.681 308.923C138.75 308.929 138.811 308.876 138.866 308.767C138.979 308.776 139.009 308.835 138.954 308.945C138.899 309.055 138.859 309.132 138.832 309.175C139.016 309.167 139.16 309.225 139.264 309.348C139.393 309.45 139.593 309.523 139.864 309.568C139.945 309.689 139.961 309.781 139.91 309.846C139.861 309.888 139.83 309.977 139.819 310.113C140.484 310.373 140.889 310.737 141.034 311.206C141.18 311.652 141.155 312.107 140.957 312.571C140.759 313.035 140.44 313.455 139.998 313.831C139.556 314.206 139.091 314.443 138.603 314.541C137.488 314.747 136.428 314.993 135.422 315.277C134.441 315.54 133.616 315.987 132.947 316.619C132.389 316.734 131.883 316.91 131.43 317.147C131 317.364 130.579 317.627 130.165 317.936C129.776 318.225 129.396 318.537 129.026 318.872C128.681 319.187 128.312 319.5 127.921 319.812C127.918 320.131 127.841 320.377 127.69 320.547C127.563 320.697 127.436 320.858 127.308 321.031C127.326 321.375 127.38 321.688 127.472 321.97C127.565 322.229 127.669 322.489 127.785 322.75C129.248 323.326 130.814 323.739 132.486 323.989C134.18 324.24 135.878 324.447 137.579 324.608C137.72 324.848 137.884 325.079 138.072 325.3C138.284 325.5 138.472 325.721 138.635 325.963C138.8 326.182 138.929 326.432 139.02 326.714C139.113 326.973 139.11 327.293 139.011 327.673C138.665 327.988 138.287 328.278 137.877 328.541C137.469 328.783 137.06 329.035 136.65 329.299ZM158.114 327.647C158.111 328.241 158.003 328.724 157.79 329.095C157.577 329.467 157.301 329.776 156.96 330.023C156.62 330.269 156.239 330.456 155.818 330.581C155.396 330.707 154.987 330.822 154.589 330.927C154.417 330.799 154.244 330.671 154.072 330.542C153.924 330.393 153.739 330.275 153.518 330.189C153.267 329.62 153.022 329.12 152.782 328.689C152.545 328.235 152.459 327.737 152.526 327.193C152.528 327.171 152.55 327.047 152.591 326.821C152.655 326.598 152.721 326.352 152.788 326.083C152.878 325.816 152.944 325.57 152.985 325.345C153.051 325.099 153.085 324.964 153.087 324.941C152.561 324.944 152.006 325.014 151.424 325.149C150.841 325.285 150.267 325.455 149.702 325.661C149.159 325.868 148.639 326.078 148.142 326.289C147.667 326.502 147.275 326.687 146.965 326.845C146.96 326.913 146.9 327.08 146.787 327.345C146.676 327.587 146.541 327.85 146.38 328.135C146.222 328.396 146.054 328.634 145.877 328.848C145.699 329.062 145.531 329.163 145.372 329.15C145.389 329.22 145.418 329.291 145.458 329.363C145.497 329.435 145.49 329.525 145.435 329.635C145.11 329.7 144.817 329.791 144.556 329.907C144.293 330.046 144.022 330.149 143.742 330.218C143.46 330.309 143.16 330.342 142.843 330.316C142.525 330.291 142.159 330.147 141.746 329.884C141.757 329.748 141.709 329.63 141.603 329.53C141.499 329.407 141.381 329.306 141.251 329.227C141.144 329.127 141.048 329.05 140.961 328.998C140.875 328.922 140.835 328.862 140.838 328.816C140.723 328.83 140.684 328.747 140.721 328.567C140.759 328.387 140.853 328.349 141.005 328.453C140.781 328.114 140.644 327.829 140.594 327.596C140.569 327.343 140.469 327.026 140.294 326.646C140.343 326.604 140.395 326.528 140.45 326.419C140.482 326.307 140.513 326.206 140.543 326.117C140.573 326.028 140.613 325.963 140.662 325.921C140.711 325.88 140.767 325.896 140.829 325.969C140.801 325.761 140.814 325.591 140.871 325.458C140.927 325.326 140.983 325.204 141.038 325.095C141.092 324.985 141.135 324.874 141.167 324.762C141.199 324.65 141.175 324.523 141.096 324.379C141.5 323.909 141.781 323.395 141.941 322.836C142.103 322.255 142.214 321.727 142.276 321.251C142.447 321.105 142.602 320.889 142.74 320.603C142.9 320.319 143.026 320.032 143.118 319.742C143.212 319.43 143.259 319.137 143.258 318.862C143.282 318.567 143.268 318.326 143.214 318.139C143.246 318.027 143.374 318.003 143.597 318.067C143.794 317.328 143.953 316.495 144.074 315.568C144.22 314.62 144.395 313.731 144.6 312.901C144.806 312.049 145.094 311.318 145.464 310.708C145.835 310.076 146.381 309.685 147.102 309.538C147.199 310.026 147.335 310.46 147.51 310.84C147.708 311.222 147.918 311.593 148.14 311.954C148.387 312.295 148.621 312.645 148.843 313.006C149.088 313.369 149.307 313.775 149.499 314.225C149.441 314.655 149.355 315.151 149.241 315.713C149.127 316.275 148.989 316.847 148.827 317.428C148.688 318.012 148.54 318.571 148.382 319.107C148.247 319.645 148.118 320.103 147.996 320.482C148.01 320.597 148.061 320.67 148.15 320.7C148.262 320.732 148.276 320.836 148.193 321.012C148.749 320.92 149.327 320.841 149.927 320.775C150.527 320.71 151.127 320.633 151.729 320.545C152.331 320.456 152.91 320.355 153.468 320.24C154.051 320.104 154.591 319.931 155.088 319.72C155.273 318.843 155.493 317.97 155.747 317.099C156 316.228 156.097 315.321 156.036 314.379C156.157 314.297 156.257 314.191 156.336 314.06C156.416 313.93 156.536 313.848 156.699 313.815C156.621 313.375 156.612 312.917 156.674 312.442C156.735 311.967 156.851 311.519 157.023 311.098C157.217 310.68 157.462 310.334 157.758 310.061C158.08 309.767 158.448 309.591 158.864 309.533C159.085 309.917 159.268 310.332 159.415 310.778C159.563 311.202 159.711 311.637 159.858 312.083C160.029 312.508 160.201 312.922 160.374 313.325C160.572 313.707 160.83 314.048 161.148 314.348C161.163 315.012 161.153 315.697 161.118 316.403C161.107 317.111 161.083 317.829 161.046 318.558C160.795 319.406 160.522 320.23 160.228 321.029C159.959 321.807 159.743 322.647 159.578 323.548C159.404 323.717 159.263 323.911 159.154 324.131C159.044 324.351 158.934 324.582 158.823 324.824C158.714 325.044 158.593 325.263 158.461 325.481C158.331 325.676 158.18 325.846 158.008 325.993C158.077 326.272 158.067 326.535 157.978 326.779C157.914 327.002 157.96 327.292 158.114 327.647ZM172.013 308.509C171.996 308.714 171.942 308.961 171.85 309.25C171.78 309.542 171.711 309.833 171.642 310.125C171.572 310.417 171.539 310.688 171.541 310.94C171.545 311.169 171.636 311.325 171.812 311.408C171.305 312.578 170.939 313.566 170.714 314.371C170.511 315.177 170.323 315.95 170.148 316.691C169.998 317.41 169.811 318.172 169.585 318.977C169.36 319.782 168.995 320.758 168.49 321.906C168.181 322.612 167.833 323.098 167.446 323.364C167.06 323.607 166.663 323.712 166.254 323.679C165.846 323.646 165.435 323.498 165.022 323.236C164.608 322.974 164.231 322.691 163.89 322.389C163.857 321.952 163.888 321.429 163.983 320.82C164.103 320.189 164.236 319.537 164.382 318.863C164.528 318.189 164.672 317.549 164.812 316.943C164.955 316.315 165.066 315.787 165.147 315.359C165.394 315.127 165.57 314.936 165.674 314.784C165.777 314.633 165.848 314.467 165.885 314.287C165.946 314.109 165.998 313.885 166.043 313.614C166.088 313.343 166.176 312.962 166.307 312.47C166.373 312.223 166.368 312.006 166.292 311.817C166.24 311.607 166.245 311.413 166.305 311.235C166.358 311.148 166.431 311.085 166.526 311.047C166.643 311.011 166.718 310.937 166.75 310.825C166.864 310.537 166.905 310.312 166.873 310.149C166.842 309.964 166.894 309.751 167.028 309.51C167.156 309.338 167.315 309.065 167.506 308.692C167.721 308.298 167.823 307.883 167.812 307.448C168.03 307.306 168.238 307.14 168.436 306.95C168.634 306.76 168.831 306.593 169.025 306.449C169.244 306.284 169.472 306.154 169.708 306.059C169.968 305.965 170.267 305.933 170.608 305.96C170.769 306.225 170.886 306.474 170.959 306.709C171.031 306.943 171.093 307.166 171.145 307.376C171.219 307.587 171.317 307.79 171.438 307.982C171.56 308.175 171.751 308.351 172.013 308.509ZM167.066 327.62C167.097 327.805 167.117 327.978 167.127 328.139C167.137 328.3 167.145 328.472 167.153 328.656C166.978 329.121 166.796 329.541 166.605 329.914C166.524 330.068 166.471 330.166 166.444 330.21C166.418 330.253 166.404 330.286 166.402 330.309C166.4 330.332 166.409 330.367 166.428 330.414C166.448 330.439 166.452 330.53 166.44 330.689L166.236 331.084C166.11 331.234 165.963 331.348 165.797 331.426C165.653 331.506 165.499 331.573 165.335 331.628C165.263 331.668 165.18 331.696 165.088 331.711C165.016 331.751 164.955 331.792 164.906 331.834L164.771 332.234L164.288 332.264C163.918 332.325 163.585 332.344 163.289 332.32L162.915 332.289C162.662 332.017 162.462 331.807 162.314 331.658C162.167 331.508 161.995 331.369 161.8 331.239C161.585 330.787 161.468 330.4 161.448 330.078C161.427 329.779 161.386 329.582 161.325 329.485L160.887 328.97L161.32 328.696L160.964 328.016C161.253 327.834 161.47 327.703 161.613 327.623C161.757 327.543 161.878 327.461 161.976 327.378C162.099 327.274 162.224 327.146 162.35 326.997C162.476 326.847 162.679 326.601 162.959 326.257L163.301 325.839L163.691 326.111C163.799 326.188 163.998 326.273 164.287 326.365C164.602 326.437 164.87 326.504 165.094 326.568C165.448 326.711 165.793 326.83 166.128 326.926C166.488 327.001 166.762 327.138 166.952 327.336L167.066 327.62Z" fill="white"/>
<path d="M253.086 309.629C252.918 309.814 252.834 310.035 252.835 310.292C252.832 310.529 252.82 310.769 252.799 311.009C252.777 311.25 252.703 311.469 252.576 311.667C252.465 311.842 252.225 311.949 251.855 311.988C251.793 312.096 251.783 312.157 251.825 312.17C251.886 312.181 251.948 312.26 252.01 312.408C251.734 312.412 251.544 312.462 251.441 312.557C251.337 312.652 251.201 312.733 251.034 312.799C250.569 312.733 250.155 312.551 249.791 312.253C249.444 311.931 249.122 311.577 248.824 311.189C248.545 310.797 248.284 310.394 248.04 309.977C247.816 309.558 247.592 309.197 247.366 308.897C247.354 308.82 247.388 308.785 247.468 308.792C247.526 308.783 247.584 308.774 247.642 308.764C247.515 308.587 247.415 308.385 247.34 308.16C247.242 307.918 247.114 307.73 246.955 307.597C247.326 306.313 247.729 304.975 248.163 303.582C248.593 302.17 249.023 300.748 249.45 299.317C249.894 297.863 250.328 296.411 250.753 294.96C251.194 293.487 251.61 292.048 252.002 290.642C252.573 290.75 253.13 290.9 253.674 291.091C254.235 291.26 254.754 291.485 255.233 291.766C255.712 292.046 256.133 292.395 256.495 292.813C256.874 293.208 257.156 293.688 257.344 294.251C257.323 294.373 257.281 294.419 257.217 294.39C257.153 294.36 257.108 294.387 257.082 294.471C257.196 294.571 257.258 294.65 257.267 294.708C257.293 294.744 257.3 294.792 257.29 294.853C257.277 294.895 257.276 294.954 257.288 295.031C257.3 295.108 257.365 295.207 257.483 295.327C257.384 295.323 257.319 295.353 257.29 295.417C257.257 295.461 257.19 295.472 257.087 295.448C257.226 295.703 257.288 295.911 257.274 296.071C257.259 296.232 257.224 296.386 257.168 296.533C257.109 296.661 257.063 296.806 257.029 296.97C257.012 297.111 257.062 297.301 257.178 297.54C257.101 297.552 257.046 297.58 257.014 297.625C256.997 297.647 256.983 297.679 256.969 297.721C256.956 297.762 256.933 297.805 256.901 297.85C256.884 297.872 256.836 297.88 256.756 297.873C256.893 298.365 256.992 298.874 257.055 299.398C257.114 299.902 257.177 300.426 257.242 300.97C257.305 301.494 257.39 302.034 257.497 302.59C257.604 303.147 257.772 303.714 258.001 304.291C258.755 303.678 259.322 302.946 259.703 302.096C260.102 301.242 260.373 300.32 260.514 299.329C260.674 298.335 260.746 297.286 260.731 296.181C260.735 295.073 260.736 293.946 260.734 292.8C260.913 292.554 261.036 292.268 261.103 291.941C261.19 291.611 261.246 291.276 261.272 290.936C261.316 290.593 261.352 290.251 261.377 289.911C261.419 289.548 261.496 289.22 261.608 288.926C261.962 288.91 262.268 288.97 262.527 289.108C262.802 289.223 263.062 289.37 263.307 289.549C263.55 289.708 263.801 289.857 264.06 289.994C264.318 290.131 264.626 290.201 264.982 290.205C265.313 290.548 265.623 290.885 265.912 291.215C266.198 291.526 266.415 291.898 266.562 292.329C266.476 292.54 266.423 292.766 266.401 293.007C266.38 293.248 266.348 293.49 266.308 293.733C266.286 293.974 266.233 294.2 266.147 294.411C266.062 294.622 265.923 294.812 265.732 294.98C265.765 295.568 265.763 296.122 265.726 296.642C265.689 297.162 265.661 297.67 265.64 298.168C265.619 298.666 265.611 299.181 265.616 299.714C265.62 300.247 265.681 300.821 265.797 301.435C265.711 302.022 265.609 302.631 265.491 303.263C265.37 303.875 265.3 304.439 265.282 304.956C264.961 305.303 264.728 305.705 264.582 306.163C264.437 306.621 264.282 307.08 264.117 307.541C264.032 307.634 263.977 307.662 263.952 307.626C263.924 307.572 263.831 307.547 263.673 307.552C263.72 307.722 263.7 307.844 263.612 307.917C263.541 307.968 263.572 308.101 263.705 308.318C263.401 308.524 263.143 308.772 262.932 309.062C262.721 309.352 262.477 309.628 262.202 309.888C261.946 310.146 261.621 310.345 261.228 310.486C260.851 310.605 260.326 310.598 259.653 310.466C258.599 309.92 257.624 309.253 256.729 308.464C255.834 307.676 255.068 306.699 254.43 305.534C254.246 305.622 254.121 305.77 254.055 305.978C253.989 306.186 253.934 306.402 253.89 306.627C253.846 306.851 253.799 307.056 253.749 307.242C253.699 307.428 253.597 307.533 253.443 307.557C253.432 307.737 253.38 307.913 253.289 308.085C253.213 308.235 253.14 308.395 253.067 308.565C252.992 308.715 252.939 308.882 252.909 309.064C252.897 309.244 252.957 309.432 253.086 309.629ZM284.073 298.654C284.09 298.888 284.144 299.107 284.236 299.31C284.327 299.513 284.428 299.715 284.538 299.915C284.665 300.093 284.784 300.282 284.894 300.482C285.005 300.682 285.096 300.885 285.168 301.092C285.249 301.356 285.296 301.655 285.309 301.989C285.319 302.304 285.3 302.623 285.252 302.947C285.201 303.251 285.118 303.541 285.003 303.816C284.885 304.072 284.729 304.274 284.535 304.424C284.319 304.813 284.033 305.135 283.678 305.388C283.322 305.642 283.002 305.93 282.716 306.251C282.525 306.42 282.299 306.554 282.038 306.654C281.796 306.752 281.545 306.85 281.284 306.951C281.09 307.1 280.859 307.265 280.59 307.445C280.319 307.606 280.038 307.769 279.748 307.933C279.454 308.078 279.158 308.204 278.858 308.31C278.555 308.397 278.287 308.449 278.052 308.467C277.507 308.77 276.959 308.994 276.408 309.14C275.88 309.302 275.237 309.363 274.48 309.324C273.8 309.53 273.149 309.602 272.527 309.542C271.924 309.478 271.365 309.319 270.85 309.064C270.352 308.786 269.893 308.443 269.473 308.035C269.069 307.604 268.72 307.144 268.426 306.657C268.099 305.581 267.982 304.582 268.074 303.658C268.163 302.714 268.361 301.833 268.667 301.014C268.989 300.173 269.381 299.39 269.84 298.665C270.297 297.921 270.737 297.199 271.161 296.5C271.283 296.521 271.369 296.507 271.421 296.459C271.489 296.389 271.546 296.311 271.592 296.225C271.635 296.119 271.679 296.023 271.725 295.937C271.79 295.848 271.869 295.786 271.963 295.751C272.052 295.441 272.212 295.198 272.441 295.024C272.687 294.827 272.866 294.581 272.978 294.287C273.146 294.221 273.281 294.141 273.385 294.045C273.489 293.95 273.581 293.846 273.662 293.735C273.763 293.62 273.865 293.515 273.969 293.42C274.069 293.305 274.194 293.216 274.342 293.154L274.292 292.835C274.615 292.626 274.839 292.413 274.963 292.196C275.103 291.957 275.266 291.674 275.453 291.348C275.623 291.302 275.757 291.271 275.853 291.256C275.969 291.237 276.13 291.192 276.336 291.12C276.448 290.826 276.551 290.602 276.646 290.449C276.76 290.293 276.93 290.118 277.156 289.924C277.406 290.003 277.669 290.041 277.945 290.037C278.241 290.03 278.511 290.116 278.757 290.295C278.807 290.485 278.889 290.631 279.003 290.731C279.115 290.812 279.236 290.892 279.367 290.971C279.495 291.03 279.615 291.1 279.726 291.181C279.857 291.259 279.956 291.382 280.022 291.55C280.102 291.557 280.148 291.54 280.162 291.498C280.194 291.454 280.251 291.435 280.331 291.442C280.431 291.703 280.527 291.876 280.62 291.96C280.709 292.025 280.812 292.177 280.929 292.416C280.862 292.624 280.817 292.839 280.793 293.06C280.784 293.259 280.691 293.422 280.513 293.549C280.515 293.687 280.566 293.758 280.666 293.762C280.762 293.747 280.827 293.786 280.862 293.879C280.908 294.05 280.899 294.18 280.834 294.269C281.415 294.949 281.956 295.685 282.456 296.476C282.953 297.248 283.492 297.974 284.073 298.654ZM280.887 301.971C280.931 301.747 281 301.558 281.095 301.405C281.209 301.249 281.254 301.034 281.231 300.761C281.11 300.622 281.034 300.515 281.003 300.441C280.968 300.347 280.936 300.204 280.906 300.011C280.387 299.48 279.921 298.901 279.506 298.274C279.088 297.628 278.639 297.036 278.159 296.498C278.133 296.582 278.077 296.669 277.993 296.762C277.909 296.854 277.8 296.851 277.666 296.754C277.651 296.914 277.602 297.041 277.518 297.133C277.43 297.206 277.329 297.252 277.213 297.27C277.094 297.269 276.964 297.259 276.823 297.242C276.698 297.202 276.581 297.151 276.473 297.089C275.983 297.621 275.492 298.143 274.999 298.655C274.506 299.168 274.081 299.739 273.726 300.368C273.654 300.419 273.609 300.445 273.59 300.448C273.568 300.432 273.511 300.451 273.421 300.505C273.324 300.896 273.184 301.263 273.001 301.609C272.834 301.931 272.669 302.264 272.505 302.606C272.342 302.948 272.21 303.305 272.11 303.676C272.01 304.048 271.987 304.467 272.04 304.933C272.411 305.151 272.822 305.255 273.275 305.243C273.728 305.231 274.183 305.169 274.64 305.058C275.116 304.944 275.57 304.813 276.002 304.666C276.45 304.497 276.867 304.382 277.253 304.322C278.033 304.001 278.688 303.641 279.218 303.242C279.746 302.823 280.302 302.399 280.887 301.971ZM294.716 287.492C295.542 287.461 296.291 287.512 296.964 287.643C297.637 287.775 298.226 287.999 298.731 288.315C299.115 288.749 299.486 289.224 299.844 289.741C300.222 290.256 300.526 290.811 300.758 291.407C301.007 291.981 301.171 292.588 301.252 293.227C301.352 293.864 301.318 294.532 301.151 295.23C300.701 296.013 300.105 296.689 299.364 297.26C298.64 297.809 297.836 298.291 296.952 298.707C296.069 299.123 295.14 299.506 294.167 299.856C293.213 300.204 292.279 300.548 291.364 300.889C291.453 301.33 291.527 301.803 291.587 302.308C291.662 302.79 291.691 303.29 291.674 303.806C291.672 304.301 291.621 304.793 291.52 305.284C291.419 305.774 291.254 306.235 291.026 306.666C290.698 306.718 290.366 306.809 290.031 306.941C289.699 307.092 289.402 307.218 289.141 307.318C288.994 307.262 288.856 307.205 288.728 307.146C288.623 307.103 288.472 307.087 288.276 307.098C288.284 306.899 288.206 306.714 288.04 306.542C287.872 306.351 287.704 306.16 287.535 305.969C287.367 305.778 287.239 305.59 287.15 305.407C287.081 305.22 287.149 305.021 287.353 304.811C287.197 304.697 287.102 304.534 287.069 304.322C287.168 304.069 287.233 303.733 287.266 303.312C287.318 302.889 287.343 302.48 287.34 302.085C287.354 301.668 287.316 301.298 287.226 300.976C287.135 300.654 286.905 300.443 286.533 300.343C286.546 300.302 286.582 300.276 286.64 300.267C286.698 300.258 286.754 300.239 286.809 300.211C286.636 300.12 286.514 299.971 286.442 299.764C286.39 299.555 286.293 299.383 286.153 299.246C286.177 299.144 286.192 299.052 286.199 298.972C286.206 298.892 286.269 298.853 286.388 298.854C286.276 298.515 286.224 298.187 286.234 297.87C286.262 297.549 286.323 297.243 286.416 296.951C286.505 296.641 286.625 296.335 286.776 296.035C286.926 295.734 287.067 295.435 287.198 295.138C287.33 295.097 287.411 295.105 287.439 295.16C287.487 295.211 287.553 295.191 287.637 295.099C287.858 294.866 287.999 294.637 288.063 294.409C288.126 294.182 288.136 293.933 288.094 293.663C288.165 293.236 288.265 292.806 288.395 292.37C288.521 291.915 288.673 291.496 288.85 291.112C289.027 290.729 289.229 290.381 289.457 290.068C289.704 289.752 289.971 289.503 290.258 289.319C290.46 289.09 290.722 288.871 291.045 288.662C291.365 288.434 291.721 288.249 292.115 288.108C292.505 287.948 292.902 287.837 293.307 287.773C293.729 287.687 294.121 287.665 294.483 287.707C294.586 287.73 294.631 287.703 294.619 287.626C294.626 287.546 294.659 287.501 294.716 287.492ZM294.616 294.596C295.065 294.308 295.551 294.063 296.073 293.863C296.611 293.64 297.036 293.326 297.348 292.921C297.084 292.745 296.717 292.615 296.249 292.53C295.778 292.426 295.279 292.396 294.752 292.439C294.225 292.482 293.702 292.614 293.183 292.834C292.68 293.032 292.263 293.334 291.932 293.742C291.87 294.108 291.818 294.403 291.774 294.627C291.727 294.832 291.659 295.09 291.569 295.401C291.623 295.491 291.693 295.559 291.779 295.605C291.882 295.628 291.96 295.685 292.014 295.776C292.421 295.474 292.845 295.279 293.286 295.19C293.743 295.079 294.186 294.881 294.616 294.596ZM315.756 285.878C315.796 286.01 315.813 286.116 315.806 286.197C315.815 286.255 315.815 286.314 315.804 286.375C315.813 286.433 315.824 286.5 315.836 286.577C315.845 286.635 315.88 286.729 315.939 286.858C315.637 287.577 315.236 288.105 314.735 288.441C314.25 288.754 313.708 289.017 313.109 289.23C312.507 289.423 311.887 289.63 311.249 289.848C310.63 290.064 310.033 290.415 309.457 290.901C309.191 290.844 308.959 290.88 308.762 291.01C308.585 291.137 308.3 291.211 307.908 291.233C307.81 291.367 307.679 291.477 307.515 291.562C307.347 291.628 307.181 291.703 307.016 291.788C307.121 291.95 307.178 292.129 307.189 292.325C307.217 292.498 307.268 292.638 307.345 292.745C308.029 292.697 308.77 292.571 309.568 292.366C310.386 292.159 311.189 291.983 311.977 291.84C312.011 291.933 312.012 292.002 311.98 292.047C311.944 292.072 311.942 292.122 311.974 292.196C312.124 292.271 312.279 292.375 312.438 292.509C312.594 292.622 312.75 292.736 312.907 292.85C313.063 292.964 313.216 293.059 313.366 293.134C313.533 293.187 313.711 293.188 313.901 293.139C314.002 293.281 314.078 293.447 314.128 293.637C314.193 293.805 314.203 293.991 314.156 294.196C313.881 294.457 313.607 294.727 313.334 295.007C313.059 295.268 312.761 295.512 312.441 295.741C312.141 295.966 311.806 296.166 311.439 296.343C311.087 296.497 310.678 296.601 310.212 296.654C310.116 296.669 310.039 296.681 309.981 296.69C309.942 296.696 309.88 296.677 309.793 296.631C309.654 296.752 309.437 296.815 309.141 296.822C308.865 296.826 308.658 296.888 308.518 297.009C308.291 296.946 308.024 296.948 307.719 297.016C307.429 297.061 307.163 297.064 306.919 297.023C306.674 297.477 306.462 297.955 306.284 298.457C306.106 298.96 305.962 299.487 305.85 300.038C306.522 300.031 307.068 299.985 307.489 299.899C307.93 299.81 308.34 299.716 308.72 299.617C309.097 299.498 309.485 299.388 309.884 299.286C310.28 299.164 310.789 299.065 311.409 298.987C311.762 298.714 312.194 298.508 312.706 298.368C313.234 298.206 313.708 298.013 314.127 297.789C314.291 297.823 314.442 297.907 314.582 298.044C314.719 298.161 314.847 298.279 314.964 298.399C315.098 298.496 315.231 298.584 315.362 298.663C315.493 298.741 315.643 298.757 315.814 298.71C315.903 298.775 315.967 298.864 316.004 298.977C316.058 299.067 316.102 299.159 316.136 299.253C316.171 299.346 316.213 299.428 316.264 299.5C316.331 299.548 316.421 299.554 316.534 299.517C316.344 300.199 316.084 300.744 315.753 301.152C315.437 301.537 315.052 301.855 314.597 302.104C314.142 302.354 313.623 302.573 313.04 302.764C312.476 302.951 311.848 303.169 311.156 303.416C310.988 303.482 310.842 303.495 310.717 303.455C310.595 303.435 310.457 303.437 310.303 303.461C309.874 303.627 309.357 303.797 308.752 303.971C308.146 304.145 307.524 304.273 306.884 304.354C306.244 304.434 305.623 304.443 305.02 304.379C304.42 304.335 303.908 304.159 303.484 303.85C303.308 303.739 303.178 303.601 303.092 303.437C303.024 303.25 302.875 303.125 302.648 303.062C302.589 302.814 302.507 302.54 302.4 302.24C302.294 301.941 302.186 301.631 302.077 301.313C301.964 300.974 301.863 300.644 301.773 300.322C301.702 299.997 301.674 299.695 301.69 299.416C301.702 299.118 301.777 298.839 301.915 298.58C302.071 298.318 302.099 298.057 301.999 297.796C302.092 297.761 302.143 297.704 302.15 297.624C302.154 297.524 302.225 297.474 302.363 297.472C302.424 297.106 302.498 296.758 302.585 296.428C302.672 296.099 302.76 295.778 302.849 295.468C302.958 295.154 303.057 294.842 303.147 294.531C303.253 294.198 303.345 293.838 303.422 293.45C303.112 293.242 302.867 293.003 302.687 292.735C302.523 292.445 302.389 292.159 302.286 291.879C302.179 291.579 302.082 291.278 301.995 290.975C301.905 290.653 301.786 290.336 301.638 290.023C301.786 289.703 301.981 289.436 302.224 289.219C302.483 288.981 302.767 288.778 303.077 288.611C303.387 288.444 303.729 288.291 304.103 288.153C304.476 288.016 304.868 287.865 305.277 287.702C306.01 287.33 306.664 287.029 307.241 286.8C307.837 286.568 308.419 286.368 308.986 286.2C309.569 286.01 310.172 285.826 310.797 285.649C311.422 285.472 312.127 285.242 312.913 284.961C313.114 285.107 313.292 285.168 313.446 285.144C313.496 284.958 313.575 284.896 313.684 284.958C313.809 284.998 313.848 284.932 313.801 284.762C314.046 285.06 314.331 285.301 314.657 285.487C314.999 285.651 315.365 285.782 315.756 285.878ZM321.305 298.174C321.368 298.322 321.42 298.463 321.46 298.595C321.501 298.727 321.552 298.867 321.615 299.015C321.568 299.22 321.531 299.424 321.503 299.626C321.473 299.808 321.442 299.991 321.412 300.174C321.375 300.318 321.35 300.411 321.337 300.453C321.324 300.494 321.318 300.525 321.321 300.544C321.324 300.563 321.329 300.592 321.335 300.631C321.357 300.647 321.379 300.723 321.4 300.858L321.339 301.223C321.264 301.373 321.165 301.498 321.042 301.596C320.919 301.695 320.794 301.783 320.668 301.862C320.636 301.907 320.583 301.945 320.508 301.977C320.437 302.027 320.386 302.075 320.353 302.12L320.321 302.48L319.954 302.597C319.638 302.726 319.364 302.809 319.132 302.845L318.785 302.9C318.52 302.724 318.311 302.589 318.158 302.494C318.005 302.399 317.843 302.316 317.674 302.244C317.438 302.004 317.302 301.828 317.265 301.715C317.224 301.583 317.175 301.462 317.119 301.352C317.041 301.108 316.967 300.951 316.897 300.883L316.428 300.541L316.734 300.226L316.329 299.727C316.534 299.517 316.688 299.364 316.791 299.268C316.895 299.173 316.979 299.081 317.044 298.991C317.106 298.883 317.175 298.753 317.25 298.603C317.326 298.453 317.445 298.207 317.609 297.865L317.81 297.448L318.218 297.591C318.305 297.637 318.478 297.669 318.738 297.688C319.014 297.684 319.251 297.686 319.45 297.694C319.794 297.739 320.114 297.768 320.413 297.78C320.708 297.774 320.955 297.834 321.153 297.961L321.305 298.174Z" fill="white"/>
</svg>
