<svg width="390" height="368" viewBox="0 0 390 368" fill="none" xmlns="http://www.w3.org/2000/svg">
<g clip-path="url(#clip0_511_812)">
<path d="M330.569 135.45C330.817 136.24 331.659 136.68 332.449 136.431L345.329 132.387C346.12 132.139 346.559 131.297 346.311 130.507C346.063 129.716 345.221 129.277 344.43 129.525L332.982 133.12L329.386 121.671C329.138 120.881 328.296 120.441 327.506 120.689C326.716 120.938 326.276 121.779 326.524 122.57L330.569 135.45ZM280.436 81.566C280.196 80.773 279.359 80.3245 278.566 80.5642C277.773 80.804 277.324 81.6411 277.564 82.4341L280.436 81.566ZM333.33 135.695C337.789 127.153 340.55 120.507 341.899 115.342C343.239 110.212 343.249 106.307 341.877 103.432C340.463 100.469 337.765 98.9599 334.598 98.2245C331.466 97.4972 327.652 97.4696 323.629 97.6262C315.421 97.9455 306.173 99.0142 298.052 97.3886C294.042 96.5859 290.415 95.1383 287.418 92.6752C284.433 90.2222 281.985 86.6898 280.436 81.566L277.564 82.4341C279.265 88.0603 282.02 92.1216 285.513 94.9929C288.995 97.854 293.122 99.4611 297.463 100.33C306.046 102.048 315.892 100.929 323.746 100.624C327.754 100.468 331.214 100.518 333.919 101.147C336.59 101.767 338.294 102.89 339.17 104.724C340.087 106.646 340.272 109.702 338.997 114.584C337.731 119.431 335.086 125.848 330.67 134.306L333.33 135.695Z" fill="white"/>
<path d="M15.7829 260.951C15.4796 260.18 14.6088 259.801 13.8379 260.104L1.27495 265.046C0.504028 265.349 0.124912 266.22 0.428174 266.991C0.731435 267.762 1.60223 268.141 2.37316 267.838L13.5402 263.445L17.933 274.612C18.2363 275.383 19.1071 275.762 19.878 275.459C20.6489 275.156 21.0281 274.285 20.7248 273.514L15.7829 260.951ZM84.9481 315.071C84.7112 315.865 85.1627 316.7 85.9565 316.937C86.7503 317.174 87.5859 316.723 87.8228 315.929L84.9481 315.071ZM13.0117 260.901C9.29999 269.427 7.81175 276.023 8.20886 281.102C8.61488 286.296 10.9925 289.846 14.7293 292.104C18.3613 294.299 23.1729 295.214 28.4183 295.508C33.69 295.804 39.5931 295.481 45.5155 295.059C51.4734 294.634 57.4388 294.112 62.9731 293.981C68.5159 293.85 73.4721 294.119 77.3971 295.218C81.2982 296.31 83.9914 298.162 85.3539 301.079C86.7426 304.052 86.9159 308.477 84.9481 315.071L87.8228 315.929C89.8835 309.023 89.9101 303.745 88.0721 299.81C86.208 295.819 82.5949 293.557 78.2057 292.329C73.8403 291.107 68.5221 290.849 62.9022 290.982C57.2737 291.115 51.1882 291.647 45.3023 292.066C39.3811 292.488 33.648 292.797 28.5865 292.513C23.4988 292.227 19.2802 291.349 16.281 289.537C13.3865 287.787 11.5317 285.114 11.1997 280.868C10.8589 276.509 12.1272 270.448 15.7623 262.099L13.0117 260.901Z" fill="white"/>
<path d="M334.504 259.892C334.563 259.066 335.281 258.444 336.107 258.504L349.573 259.471C350.399 259.53 351.021 260.248 350.961 261.075C350.902 261.901 350.184 262.523 349.358 262.463L337.389 261.603L336.529 273.573C336.47 274.399 335.752 275.021 334.925 274.961C334.099 274.902 333.477 274.184 333.537 273.358L334.504 259.892ZM293.938 317.397C293.166 317.097 292.784 316.227 293.085 315.455C293.385 314.683 294.255 314.301 295.027 314.602L293.938 317.397ZM337.134 259.018C347.738 271.264 353 282.033 354.136 291.135C355.282 300.312 352.215 307.687 346.443 312.924C340.724 318.113 332.453 321.117 323.251 321.893C314.034 322.671 303.77 321.226 293.938 317.397L295.027 314.602C304.453 318.273 314.259 319.641 322.999 318.904C331.755 318.165 339.332 315.325 344.427 310.702C349.471 306.126 352.185 299.72 351.16 291.506C350.125 283.217 345.262 272.986 334.866 260.982L337.134 259.018Z" fill="white"/>
<path d="M229.181 78.9241C228.548 78.6 227.993 78.1531 227.515 77.5834C227.056 77.0103 226.658 76.3867 226.32 75.7128C226.001 75.0354 225.737 74.3285 225.527 73.5922C225.332 72.8332 225.183 72.1059 225.08 71.4102C225.161 70.8602 225.288 70.3515 225.463 69.884C225.635 69.3973 225.84 68.9344 226.08 68.4951C226.316 68.0367 226.566 67.6053 226.832 67.2011C227.113 66.7743 227.385 66.3492 227.647 65.9257C227.762 65.9053 227.873 65.9153 227.979 65.9559C228.019 65.7307 228.102 65.5276 228.228 65.3464C228.355 65.1652 228.494 65.0016 228.647 64.8555C228.796 64.6902 228.947 64.5344 229.1 64.3883C229.249 64.223 229.366 64.0435 229.45 63.85C229.911 63.6492 230.305 63.4106 230.632 63.1342C230.979 62.8544 231.304 62.5588 231.606 62.2473C231.907 61.9358 232.222 61.6419 232.55 61.3655C232.878 61.0891 233.272 60.8505 233.732 60.6498C233.871 60.4267 234.054 60.2257 234.28 60.0467C234.525 59.8643 234.762 59.6932 234.992 59.5334C235.241 59.3702 235.468 59.2008 235.675 59.0253C235.901 58.8463 236.071 58.6277 236.184 58.3696C236.326 58.503 236.5 58.5317 236.705 58.4556C236.906 58.3604 237.088 58.2685 237.251 58.1801C237.363 58.1404 237.463 58.1426 237.55 58.1866C237.637 58.2306 237.716 58.286 237.788 58.3527C237.875 58.3967 237.939 58.4249 237.981 58.4373C238.042 58.4463 238.09 58.3784 238.123 58.2335C238.281 58.2254 238.331 58.2859 238.275 58.4149C238.237 58.5406 238.213 58.6243 238.2 58.6662C238.386 58.5936 238.546 58.6047 238.682 58.6996C238.834 58.7719 239.048 58.8033 239.324 58.794C239.437 58.8731 239.48 58.9449 239.451 59.0094C239.423 59.0739 239.411 59.1752 239.416 59.3132C240.146 59.4018 240.648 59.6598 240.922 60.0872C241.193 60.4954 241.296 60.9631 241.231 61.4904C241.162 61.9985 240.954 62.5016 240.606 62.9998C240.274 63.4754 239.87 63.8248 239.394 64.0482C238.825 64.3079 238.295 64.5608 237.803 64.8068C237.33 65.0494 236.871 65.3096 236.424 65.5872C235.997 65.8615 235.595 66.1708 235.22 66.5151C234.86 66.8368 234.558 67.1981 234.311 67.5989C233.8 67.8483 233.347 68.1469 232.953 68.4947C232.578 68.839 232.227 69.2088 231.9 69.604C231.593 69.9958 231.299 70.4051 231.017 70.832C230.733 71.2396 230.448 71.6472 230.163 72.0548C230.221 72.3817 230.208 72.642 230.123 72.8355C230.039 73.0291 229.944 73.2243 229.841 73.4213C229.944 73.7799 230.077 74.0835 230.24 74.3323C230.419 74.5583 230.6 74.7941 230.782 75.0394C232.403 75.2278 234.079 75.2277 235.811 75.0392C237.559 74.828 239.281 74.5818 240.976 74.3006C241.19 74.5006 241.422 74.6876 241.671 74.8616C241.936 75.0129 242.174 75.179 242.384 75.3598C242.614 75.5372 242.803 75.7616 242.95 76.0329C243.113 76.2817 243.2 76.6035 243.211 76.9983C242.942 77.3833 242.643 77.7638 242.313 78.1398C241.979 78.4965 241.646 78.8532 241.312 79.21C241.143 79.26 240.931 79.2975 240.678 79.3227C240.444 79.3444 240.192 79.3792 239.923 79.427C239.673 79.4714 239.416 79.5367 239.154 79.623C238.908 79.6866 238.677 79.787 238.464 79.9241C237.245 80.1007 235.979 80.1768 234.666 80.1521C233.349 80.1082 232.119 79.9992 230.978 79.8251C230.722 79.6126 230.46 79.4211 230.191 79.2506C229.919 79.0608 229.583 78.9519 229.181 78.9241ZM252.56 77.0343C252.053 77.303 251.497 77.5802 250.893 77.866C250.289 78.1517 249.67 78.3509 249.035 78.4636C248.074 78.6343 247.271 78.5288 246.628 78.1471C246.495 77.9526 246.382 77.8238 246.292 77.7605C246.221 77.6938 246.149 77.6271 246.078 77.5605C246.022 77.4711 245.971 77.3513 245.925 77.2008C245.646 76.9726 245.409 76.6973 245.213 76.3751C245.013 76.0336 244.852 75.6853 244.73 75.3302C244.623 74.9524 244.545 74.5695 244.496 74.1815C244.466 73.79 244.469 73.4127 244.503 73.0495C244.528 72.9657 244.534 72.8854 244.52 72.8085C244.526 72.7281 244.529 72.6382 244.532 72.5386C244.554 72.2173 244.578 71.9055 244.604 71.6034C244.649 71.2979 244.729 71.0257 244.845 70.7868C244.738 70.6274 244.704 70.4351 244.743 70.2099C244.782 69.9847 244.835 69.7771 244.9 69.5869C245.04 68.8084 245.152 68.1537 245.236 67.623C245.336 67.0696 245.438 66.5259 245.541 65.9917C245.715 65.0683 245.87 64.1579 246.008 63.2606C246.147 62.3632 246.244 61.4037 246.301 60.3819C246.438 60.2585 246.541 60.1707 246.611 60.1186C246.72 60.0596 246.811 60.0137 246.884 59.9808C247.261 60.0924 247.696 60.1938 248.188 60.2849C248.677 60.3568 249.075 60.3654 249.383 60.3108C249.554 60.3796 249.663 60.4395 249.712 60.4904C249.757 60.522 249.803 60.5536 249.848 60.5852C250.104 60.7977 250.333 61.0249 250.534 61.2668C250.733 61.4894 250.84 61.8174 250.858 62.2508C250.773 62.4443 250.702 62.5462 250.644 62.5565C250.616 62.9581 250.569 63.3038 250.501 63.5936C250.453 63.8799 250.395 64.1679 250.327 64.4576C250.244 64.7699 250.17 65.0806 250.106 65.3895C250.042 65.6985 250.009 66.0713 250.007 66.508C249.947 66.6179 249.905 66.7146 249.88 66.7984C249.874 66.8787 249.861 66.9704 249.84 67.0734C249.818 67.1763 249.789 67.2906 249.752 67.4163C249.73 67.5193 249.678 67.6177 249.596 67.7117C249.627 68.222 249.602 68.6429 249.522 68.9745C249.462 69.3026 249.391 69.6325 249.311 69.9641C249.18 70.5628 249.067 71.158 248.974 71.7498C248.9 72.3383 248.907 72.9916 248.995 73.71C249.084 73.6545 249.167 73.6199 249.244 73.6062C249.34 73.5891 249.427 73.5738 249.504 73.5601C249.677 73.5294 249.884 73.5224 250.125 73.5391C250.647 73.129 251.239 72.8353 251.902 72.6581C252.584 72.4775 253.26 72.3178 253.93 72.1791C254.199 72.1313 254.468 72.0835 254.738 72.0357C255.007 71.9879 255.253 71.9243 255.477 71.8448C255.667 71.9102 255.783 71.9492 255.825 71.9616C255.883 71.9513 255.96 71.9377 256.056 71.9206C256.191 71.8967 256.308 71.8858 256.407 71.888C256.676 72.0585 256.924 72.1731 257.153 72.2317C257.381 72.2903 257.618 72.3376 257.862 72.3735C258.088 72.4129 258.305 72.4636 258.514 72.5256C258.739 72.5649 258.962 72.6445 259.181 72.7642L259.604 73.9687C259.769 74.1178 259.847 74.223 259.838 74.2841C259.865 74.4379 259.847 74.5601 259.784 74.6507L259.898 74.9578C259.62 75.0667 259.43 75.1698 259.328 75.2673C259.246 75.3612 259.165 75.4649 259.086 75.5781C258.935 75.6246 258.822 75.6547 258.745 75.6684C258.687 75.6786 258.63 75.6889 258.572 75.6991C258.303 75.7469 257.984 75.853 257.617 76.0175C257.067 75.9366 256.513 75.9457 255.955 76.0447C255.744 76.0823 255.524 76.1311 255.297 76.1913C255.07 76.2515 254.842 76.3118 254.615 76.372C254.391 76.4514 254.156 76.5229 253.909 76.5865C253.682 76.6467 253.443 76.699 253.193 76.7434L252.56 77.0343ZM276.032 64.2676C276.053 64.5017 276.112 64.7195 276.207 64.9208C276.302 65.1221 276.407 65.3216 276.522 65.5195C276.652 65.6948 276.774 65.8813 276.889 66.0792C277.003 66.2771 277.099 66.4784 277.175 66.6831C277.261 66.9455 277.314 67.2435 277.333 67.5773C277.35 67.8918 277.337 68.2114 277.295 68.5362C277.25 68.8417 277.173 69.1331 277.064 69.4105C276.951 69.6685 276.799 69.874 276.608 70.027C276.4 70.4209 276.121 70.7482 275.771 71.0088C275.42 71.2694 275.105 71.5633 274.826 71.8906C274.639 72.0628 274.415 72.2016 274.156 72.3071C273.917 72.4092 273.667 72.513 273.408 72.6185C273.217 72.7714 272.989 72.9408 272.725 73.1266C272.457 73.2932 272.179 73.4615 271.892 73.6316C271.601 73.7823 271.307 73.9139 271.01 74.0262C270.709 74.1193 270.442 74.1767 270.207 74.1985C269.668 74.5124 269.125 74.7478 268.577 74.9045C268.052 75.077 267.411 75.1512 266.653 75.1272C265.978 75.3462 265.328 75.4318 264.705 75.3838C264.101 75.3324 263.539 75.1842 263.019 74.9392C262.515 74.6716 262.049 74.3378 261.621 73.9377C261.209 73.515 260.851 73.0628 260.547 72.5811C260.199 71.5123 260.062 70.5151 260.135 69.5895C260.206 68.6447 260.386 67.7598 260.676 66.9347C260.981 66.0869 261.357 65.2962 261.802 64.5626C262.243 63.8097 262.669 63.0795 263.079 62.3719C263.201 62.3899 263.288 62.3746 263.339 62.3259C263.405 62.2545 263.461 62.1752 263.505 62.0881C263.545 61.9817 263.588 61.8849 263.632 61.7977C263.695 61.7072 263.773 61.6437 263.866 61.6074C263.949 61.2951 264.104 61.0494 264.33 60.8704C264.572 60.6687 264.746 60.4196 264.852 60.1231C265.018 60.0539 265.152 59.9706 265.254 59.8732C265.355 59.7758 265.446 59.6705 265.525 59.5572C265.623 59.4406 265.723 59.3336 265.825 59.2362C265.923 59.1195 266.046 59.0283 266.193 58.9625L266.137 58.6452C266.455 58.4299 266.675 58.2125 266.794 57.9928C266.93 57.7506 267.087 57.4647 267.267 57.1353C267.437 57.0853 267.57 57.0518 267.666 57.0348C267.781 57.0143 267.941 56.966 268.146 56.89C268.252 56.5934 268.351 56.3676 268.442 56.2125C268.553 56.054 268.72 55.8756 268.942 55.6774C269.193 55.7518 269.457 55.7843 269.733 55.775C270.028 55.7622 270.301 55.8429 270.55 56.0168C270.603 56.2057 270.688 56.3493 270.805 56.4476C270.918 56.5267 271.041 56.6041 271.173 56.6798C271.302 56.7362 271.423 56.8039 271.537 56.883C271.669 56.9587 271.77 57.0796 271.839 57.2459C271.919 57.2515 271.966 57.2333 271.978 57.1914C272.01 57.1461 272.066 57.1263 272.146 57.1319C272.252 57.3908 272.351 57.5616 272.445 57.6441C272.536 57.7073 272.642 57.8571 272.763 58.0935C272.701 58.3029 272.66 58.5184 272.64 58.7402C272.636 58.9393 272.546 59.1041 272.371 59.2344C272.375 59.3724 272.428 59.4425 272.527 59.4446C272.623 59.4276 272.689 59.4654 272.726 59.5581C272.776 59.7278 272.769 59.8579 272.706 59.9485C273.301 60.6165 273.856 61.3412 274.371 62.1224C274.884 62.8845 275.437 63.5995 276.032 64.2676ZM272.913 67.6481C272.952 67.4229 273.017 67.2328 273.109 67.0777C273.219 66.9192 273.261 66.7036 273.232 66.4309C273.109 66.2942 273.03 66.189 272.997 66.1155C272.961 66.0228 272.926 65.8803 272.892 65.688C272.363 65.1669 271.885 64.5972 271.458 63.9788C271.027 63.3411 270.566 62.7584 270.076 62.2305C270.051 62.3143 269.998 62.4031 269.915 62.4971C269.833 62.5911 269.723 62.5907 269.588 62.4958C269.576 62.6564 269.53 62.7838 269.447 62.8778C269.361 62.9525 269.26 63.0002 269.145 63.0206C269.026 63.0219 268.896 63.0152 268.755 63.0007C268.629 62.9635 268.511 62.915 268.402 62.8551C267.922 63.3964 267.442 63.9281 266.959 64.4502C266.476 64.9723 266.064 65.5515 265.72 66.1877C265.65 66.2398 265.606 66.2676 265.586 66.271C265.564 66.2552 265.508 66.275 265.418 66.3306C265.329 66.7233 265.197 67.0939 265.021 67.4426C264.86 67.7686 264.702 68.1043 264.545 68.4495C264.388 68.7947 264.263 69.1541 264.171 69.5276C264.079 69.901 264.064 70.3202 264.126 70.7852C264.501 70.9964 264.915 71.0915 265.367 71.0707C265.82 71.0498 266.273 70.9792 266.728 70.8588C267.202 70.735 267.653 70.5953 268.082 70.4399C268.527 70.2618 268.941 70.1386 269.326 70.0703C270.099 69.7346 270.747 69.3617 271.269 68.9515C271.788 68.5222 272.336 68.0877 272.913 67.6481ZM276.908 59.6488C276.971 59.221 277.121 58.8373 277.358 58.4976C277.614 58.1545 277.899 57.8561 278.211 57.6024C278.538 57.3259 278.883 57.0863 279.243 56.8834C279.604 56.6805 279.949 56.5002 280.278 56.3426C280.989 55.8791 281.752 55.4263 282.566 54.9842C283.396 54.5194 284.242 54.0914 285.105 53.7002C285.987 53.3055 286.904 52.994 287.855 52.7656C288.803 52.5179 289.833 52.454 290.946 52.5739C291.037 52.756 291.156 52.9233 291.302 53.0759C291.449 53.2285 291.595 53.3811 291.741 53.5337C291.906 53.6828 292.052 53.8354 292.179 53.9914C292.303 54.1282 292.389 54.2814 292.439 54.4511C292.662 54.59 292.85 54.755 293.003 54.946C293.153 55.1179 293.218 55.3741 293.199 55.7146C293.034 55.9026 292.868 56.081 292.699 56.2498C292.547 56.3959 292.373 56.5358 292.179 56.6695C291.436 56.6228 290.705 56.6931 289.984 56.8805C289.264 57.068 288.619 57.2322 288.049 57.3731C287.845 57.2307 287.618 57.1817 287.368 57.2261C287.137 57.2671 286.894 57.3499 286.638 57.4747C286.402 57.596 286.156 57.719 285.9 57.8437C285.664 57.965 285.427 58.0269 285.19 58.0295C285.025 58.2175 284.803 58.3659 284.525 58.4748C284.262 58.5611 283.971 58.6525 283.651 58.749C283.649 58.8485 283.68 58.9124 283.745 58.9406C283.806 58.9496 283.826 59.0056 283.804 59.1086C283.943 59.2227 284.105 59.2933 284.288 59.3202C284.491 59.3438 284.693 59.3673 284.896 59.3909C285.117 59.411 285.314 59.4555 285.485 59.5243C285.652 59.5739 285.782 59.6898 285.874 59.8718C286.162 59.8206 286.424 59.8435 286.66 59.9406C286.895 60.0376 287.097 60.1704 287.266 60.3388C287.435 60.5072 287.568 60.7016 287.667 60.9221C287.781 61.12 287.854 61.3055 287.885 61.4786C287.97 61.6222 288.049 61.6775 288.123 61.6446C288.196 61.6117 288.289 61.6348 288.403 61.7139C288.505 61.9537 288.695 62.1877 288.974 62.4159C289.249 62.625 289.481 62.8714 289.67 63.1551C289.794 63.6291 289.9 64.0566 289.987 64.4378C290.071 64.7998 290.071 65.1867 289.985 65.5987C289.823 66.3614 289.532 67.0677 289.112 67.7176C288.711 68.3641 288.223 68.9665 287.647 69.5249C287.088 70.0606 286.47 70.5472 285.794 70.9847C285.118 71.4221 284.452 71.8081 283.798 72.1425C283.717 72.1369 283.64 72.1506 283.567 72.1835C283.493 72.2164 283.465 72.1717 283.483 72.0495C283.354 72.2114 283.196 72.3287 283.01 72.4013C282.844 72.4705 282.653 72.5143 282.439 72.5326C282.227 72.5701 282.004 72.5998 281.77 72.6215C281.555 72.6399 281.355 72.6853 281.169 72.7579C281.011 72.6472 280.862 72.5348 280.723 72.4207C280.606 72.3224 280.502 72.1822 280.41 72.0001C280.314 72.0172 280.257 71.9777 280.24 71.8815C280.242 71.7819 280.205 71.739 280.128 71.7526C280.209 71.5399 280.238 71.4256 280.216 71.4097C280.209 71.3713 280.175 71.3476 280.114 71.3386C280.072 71.3262 280.03 71.3138 279.988 71.3014C279.943 71.2697 279.925 71.2234 279.934 71.1623C279.983 70.9948 279.982 70.8166 279.928 70.6277C279.871 70.4195 279.815 70.2114 279.758 70.0033C279.701 69.7952 279.675 69.5916 279.679 69.3924C279.703 69.1899 279.82 69.0104 280.03 68.8541C280.697 68.8149 281.309 68.6864 281.866 68.4686C282.438 68.2281 282.963 67.9464 283.441 67.6234C283.92 67.3005 284.366 66.9634 284.779 66.6122C285.212 66.2577 285.641 65.9336 286.065 65.6401C286.092 65.4568 286.143 65.2989 286.219 65.1665C286.314 65.0306 286.41 64.9044 286.509 64.7877C286.607 64.6711 286.694 64.5465 286.77 64.4141C286.845 64.2816 286.887 64.1254 286.895 63.9455C286.89 63.8075 286.838 63.7374 286.738 63.7353C286.654 63.7105 286.602 63.6404 286.582 63.525L286.249 63.4948C285.846 63.3481 285.402 63.2485 284.917 63.1958C284.428 63.1239 284.005 63.0304 283.647 62.9154C283.456 63.0684 283.259 63.1331 283.057 63.1095C282.873 63.0825 282.632 63.0658 282.334 63.0594C281.673 63.137 281.026 63.1824 280.394 63.1955C279.781 63.2052 279.173 63.1345 278.571 62.9836C278.515 62.8942 278.452 62.8162 278.381 62.7496C278.309 62.6829 278.2 62.6824 278.053 62.7482C277.91 62.6148 277.769 62.4911 277.63 62.377C277.487 62.2436 277.353 62.0989 277.226 61.9429C277.223 61.7053 277.218 61.5079 277.21 61.3507C277.198 61.1742 277.112 61.021 276.95 60.891C276.982 60.6274 277.004 60.4152 277.015 60.2545C277.026 60.0939 276.99 59.8919 276.908 59.6488ZM305.665 51.1804C305.708 51.3116 305.727 51.4173 305.721 51.4977C305.731 51.5553 305.732 51.6147 305.723 51.6759C305.733 51.7335 305.745 51.8008 305.759 51.8778C305.769 51.9355 305.806 52.0282 305.868 52.156C305.58 52.8815 305.189 53.4171 304.695 53.7627C304.217 54.0857 303.68 54.3595 303.085 54.5841C302.487 54.7895 301.871 55.008 301.238 55.2394C300.624 55.4675 300.034 55.8302 299.467 56.3275C299.2 56.2757 298.97 56.3167 298.775 56.4504C298.6 56.5807 298.316 56.6608 297.925 56.6906C297.83 56.8265 297.701 56.9386 297.538 57.027C297.372 57.0962 297.208 57.175 297.045 57.2634C297.152 57.4229 297.214 57.6004 297.229 57.7961C297.259 57.9692 297.314 58.1083 297.392 58.2135C298.075 58.1516 298.814 58.0106 299.608 57.7902C300.421 57.5665 301.22 57.375 302.005 57.2158C302.042 57.3085 302.044 57.3775 302.012 57.4228C301.977 57.4489 301.976 57.4987 302.009 57.5722C302.161 57.6444 302.318 57.7455 302.48 57.8755C302.638 57.9862 302.797 58.0969 302.955 58.2076C303.114 58.3183 303.269 58.4098 303.421 58.482C303.588 58.5317 303.766 58.5298 303.955 58.4764C304.059 58.6166 304.138 58.7811 304.192 58.97C304.261 59.1362 304.274 59.3224 304.231 59.5283C303.961 59.7945 303.693 60.0703 303.426 60.3557C303.156 60.6218 302.863 60.8722 302.548 61.1067C302.251 61.3378 301.921 61.5452 301.557 61.7289C301.209 61.8899 300.802 62.0018 300.337 62.0645C300.241 62.0816 300.164 62.0953 300.106 62.1055C300.068 62.1123 300.005 62.0937 299.918 62.0497C299.781 62.1732 299.565 62.2413 299.27 62.254C298.994 62.2634 298.787 62.3298 298.651 62.4533C298.422 62.3947 298.156 62.4023 297.851 62.4762C297.563 62.5274 297.296 62.535 297.052 62.4991C296.816 62.9575 296.614 63.4397 296.446 63.9456C296.278 64.4516 296.144 64.9812 296.044 65.5346C296.715 65.5146 297.26 65.4575 297.68 65.3631C298.119 65.2654 298.527 65.1631 298.905 65.0564C299.279 64.9304 299.665 64.8123 300.062 64.7021C300.455 64.5728 300.961 64.463 301.58 64.373C301.927 64.0932 302.355 63.8783 302.864 63.7284C303.389 63.5559 303.859 63.3535 304.274 63.1211C304.438 63.1515 304.591 63.2333 304.734 63.3667C304.873 63.4808 305.003 63.5966 305.123 63.7142C305.259 63.8091 305.393 63.8944 305.526 63.97C305.658 64.0457 305.809 64.0585 305.979 64.0086C306.069 64.0718 306.135 64.1595 306.174 64.2714C306.23 64.3607 306.276 64.4518 306.312 64.5445C306.348 64.6373 306.393 64.7187 306.445 64.7888C306.513 64.8362 306.603 64.8401 306.715 64.8004C306.539 65.4862 306.289 66.0363 305.966 66.4508C305.659 66.8425 305.28 67.1677 304.83 67.4261C304.38 67.6845 303.865 67.9148 303.286 68.1168C302.727 68.3153 302.103 68.5451 301.415 68.8061C301.249 68.8753 301.103 68.8912 300.977 68.854C300.855 68.8361 300.717 68.8407 300.563 68.8681C300.138 69.0427 299.625 69.2232 299.023 69.4094C298.421 69.5956 297.801 69.7354 297.163 69.8288C296.525 69.9223 295.904 69.9433 295.3 69.8919C294.699 69.8597 294.184 69.6934 293.753 69.3929C293.576 69.2856 293.443 69.1505 293.354 68.9877C293.281 68.8022 293.131 68.6802 292.902 68.6216C292.839 68.375 292.751 68.103 292.638 67.8055C292.526 67.5081 292.412 67.201 292.296 66.8843C292.177 66.5484 292.069 66.2204 291.973 65.9004C291.895 65.5769 291.862 65.2754 291.872 64.9959C291.878 64.6972 291.947 64.4171 292.08 64.1556C292.231 63.8907 292.254 63.6287 292.148 63.3698C292.241 63.3335 292.29 63.2751 292.296 63.1948C292.298 63.0952 292.368 63.0431 292.506 63.0384C292.56 62.6718 292.627 62.3227 292.707 61.9911C292.787 61.6595 292.869 61.3375 292.952 61.0252C293.055 60.7094 293.148 60.3953 293.231 60.083C293.33 59.748 293.415 59.3858 293.484 58.9966C293.171 58.7944 292.921 58.561 292.735 58.2964C292.565 58.0092 292.426 57.7265 292.317 57.4483C292.205 57.1509 292.102 56.8517 292.009 56.5509C291.912 56.2308 291.787 55.9158 291.633 55.606C291.774 55.2834 291.964 55.0116 292.202 54.7907C292.456 54.5472 292.737 54.3387 293.043 54.1653C293.35 53.9919 293.688 53.8326 294.059 53.6874C294.43 53.5421 294.819 53.3839 295.225 53.2126C295.949 52.8261 296.598 52.5125 297.17 52.2721C297.762 52.0282 298.339 51.8166 298.902 51.6372C299.481 51.4352 300.081 51.2394 300.702 51.0498C301.323 50.8602 302.024 50.6168 302.804 50.3195C303.008 50.4619 303.187 50.5194 303.341 50.4921C303.387 50.3053 303.465 50.2419 303.575 50.3017C303.7 50.339 303.738 50.2727 303.688 50.1031C303.939 50.3958 304.229 50.632 304.558 50.8115C304.903 50.9684 305.272 51.0914 305.665 51.1804ZM312.294 46.284C312.325 46.457 312.333 46.6737 312.32 46.9339C312.326 47.1907 312.332 47.4476 312.338 47.7044C312.344 47.9612 312.375 48.1937 312.432 48.4018C312.485 48.5907 312.594 48.7003 312.758 48.7307C312.593 49.8114 312.504 50.7098 312.493 51.426C312.5 52.1388 312.512 52.821 312.529 53.4727C312.561 54.1018 312.571 54.7744 312.56 55.4906C312.548 56.2068 312.458 57.0956 312.289 58.157C312.187 58.81 312.004 59.2887 311.741 59.5934C311.474 59.8788 311.168 60.0522 310.822 60.1137C310.476 60.1751 310.103 60.1421 309.703 60.0147C309.304 59.8873 308.93 59.7355 308.581 59.5594C308.458 59.2042 308.37 58.7636 308.316 58.2376C308.279 57.6889 308.247 57.1193 308.221 56.5287C308.196 55.9381 308.175 55.3764 308.16 54.8435C308.141 54.2914 308.119 53.8292 308.093 53.457C308.247 53.2113 308.351 53.0144 308.404 52.8661C308.457 52.7178 308.48 52.5651 308.472 52.4078C308.483 52.2471 308.477 52.0497 308.456 51.8155C308.434 51.5813 308.424 51.2459 308.426 50.8092C308.427 50.5908 308.375 50.4115 308.271 50.2713C308.182 50.1085 308.144 49.9468 308.155 49.7861C308.18 49.7023 308.227 49.6344 308.297 49.5823C308.386 49.5267 308.432 49.4492 308.434 49.3496C308.467 49.086 308.452 48.8903 308.39 48.7625C308.324 48.6155 308.32 48.4276 308.379 48.199C308.448 48.0281 308.52 47.7673 308.597 47.4164C308.689 47.043 308.684 46.677 308.581 46.3184C308.73 46.1531 308.866 45.9702 308.989 45.7698C309.112 45.5694 309.239 45.3883 309.369 45.2263C309.514 45.0418 309.675 44.8843 309.85 44.754C310.044 44.6203 310.286 44.5278 310.574 44.4766C310.766 44.6608 310.917 44.8423 311.028 45.0209C311.139 45.1996 311.239 45.3703 311.327 45.5331C311.435 45.6926 311.56 45.8389 311.703 45.9723C311.846 46.1057 312.043 46.2095 312.294 46.284ZM312.352 63.2042C312.418 63.3512 312.473 63.4903 312.516 63.6215C312.559 63.7527 312.604 63.8935 312.65 64.044C312.607 64.4683 312.546 64.8559 312.47 65.2067C312.436 65.3515 312.413 65.4449 312.401 65.4868C312.388 65.5287 312.384 65.5592 312.387 65.5784C312.391 65.5977 312.405 65.6248 312.431 65.6599C312.454 65.6757 312.477 65.7509 312.501 65.8855L312.418 66.2573C312.346 66.409 312.25 66.5352 312.129 66.636C312.027 66.7334 311.914 66.8229 311.789 66.9045C311.739 66.9532 311.676 66.994 311.603 67.0269C311.552 67.0756 311.511 67.1226 311.479 67.1679L311.454 67.5294L311.06 67.6588C310.766 67.7904 310.494 67.8783 310.244 67.9227L309.927 67.9791C309.659 67.8085 309.447 67.6775 309.292 67.586C309.137 67.4945 308.964 67.4161 308.774 67.3507C308.498 67.0228 308.316 66.7277 308.23 66.4653C308.147 66.2222 308.07 66.0672 307.999 66.0006L307.523 65.6684L307.823 65.3474L307.38 64.8608C307.58 64.6467 307.731 64.491 307.832 64.3936C307.934 64.2962 308.017 64.2022 308.08 64.1116C308.159 63.9984 308.235 63.8659 308.307 63.7142C308.379 63.5625 308.494 63.3141 308.651 62.9688L308.844 62.5477L309.226 62.6882C309.332 62.7288 309.515 62.7558 309.776 62.7691C310.052 62.7597 310.289 62.7572 310.488 62.7615C310.813 62.803 311.125 62.827 311.424 62.8335C311.738 62.8173 311.996 62.8708 312.196 62.9939L312.352 63.2042Z" fill="white"/>
<path d="M17.7817 328.564L18.2523 328.259L18.3444 327.546C19.0247 326.207 19.7118 324.925 20.4056 323.702C21.1221 322.479 21.864 321.225 22.6315 319.939C22.8709 319.524 23.1104 319.109 23.3498 318.694C23.612 318.281 23.8637 317.855 24.105 317.418C24.0897 317.325 24.0857 317.233 24.0931 317.143C24.1023 317.029 24.1351 316.906 24.1916 316.773C24.5465 316.345 24.8295 315.956 25.0407 315.608C25.2746 315.261 25.4981 314.902 25.7111 314.531C25.9524 314.093 26.2051 313.656 26.4691 313.22C26.7558 312.786 27.0984 312.368 27.4968 311.966L27.7629 311.645L28.1349 311.71C28.2295 311.672 28.3231 311.645 28.4158 311.63C28.533 311.593 28.6711 311.582 28.8301 311.595L29.435 311.747C30.2122 311.467 30.9105 311.032 31.5299 310.442C32.1739 309.832 32.828 309.096 33.4923 308.235L33.9481 307.689L34.4655 308.074C34.5736 308.152 34.7497 308.235 34.994 308.323C35.2383 308.411 35.4931 308.512 35.7582 308.625C36.2259 308.777 36.6805 308.952 37.1218 309.147C37.565 309.321 37.9013 309.542 38.1309 309.812L38.2763 310.133C38.3014 310.386 38.3171 310.616 38.3232 310.822C38.352 311.03 38.3808 311.239 38.4096 311.447C38.4618 311.931 38.5025 312.414 38.5319 312.897C38.5632 313.357 38.5671 313.871 38.5437 314.441C38.6204 314.904 38.6848 315.378 38.7369 315.863C38.8136 316.326 38.8789 316.789 38.9328 317.25C38.9929 317.918 39.0662 318.564 39.1527 319.188C39.241 319.79 39.3766 320.373 39.5594 320.936C39.7865 320.955 39.9219 320.977 39.9655 321.003C40.2472 320.912 40.5707 320.87 40.9359 320.876L41.3816 320.878L41.4847 321.298C41.5246 321.37 41.5758 321.443 41.6384 321.516C41.701 321.59 41.775 321.665 41.8603 321.74C42.2218 321.792 42.4766 321.893 42.6245 322.042C42.7969 322.171 42.9353 322.296 43.0397 322.419C43.0814 322.468 43.1336 322.529 43.1962 322.603C43.2606 322.654 43.3146 322.693 43.3582 322.719L43.9521 323.007L43.5588 323.627C43.2703 324.084 42.8464 324.518 42.2871 324.93C41.7506 325.343 41.1523 325.672 40.4924 325.916C40.525 326.078 40.5357 326.228 40.5246 326.364C40.5363 326.502 40.5574 326.664 40.5881 326.849C40.642 327.311 40.6715 327.793 40.6763 328.297C40.7057 328.779 40.6651 329.279 40.5546 329.796C40.2795 330.368 39.9636 330.879 39.6069 331.33C39.2748 331.761 38.8773 332.151 38.4144 332.502C37.9761 332.833 37.4856 333.101 36.9429 333.309C36.4021 333.494 35.8469 333.574 35.2773 333.551C34.9648 333.457 34.7328 333.358 34.5812 333.254C34.4523 333.152 34.3348 333.051 34.2286 332.951C34.058 332.8 33.9177 332.697 33.8079 332.643L33.3816 332.402L33.5594 331.902C33.6422 331.726 33.6438 331.566 33.564 331.423C33.5069 331.281 33.3627 331.086 33.1313 330.839C33.046 330.763 32.9721 330.689 32.9095 330.615C32.8487 330.519 32.7766 330.421 32.6931 330.323L32.0754 329.484L33.2245 329.269C33.9206 329.143 34.3933 328.952 34.6426 328.698C34.8936 328.422 35.026 327.918 35.0396 327.187C34.481 327.028 34.0163 326.979 33.6456 327.04C33.2767 327.079 32.9068 327.129 32.5361 327.19C32.0026 327.284 31.4815 327.367 30.9726 327.44C30.4655 327.49 29.9168 327.492 29.3263 327.444C28.9402 327.412 28.5341 327.345 28.1081 327.242L27.7362 327.177L27.6644 326.794C27.6681 326.749 27.6377 326.701 27.5733 326.65C27.5334 326.578 27.4926 326.517 27.4508 326.468C27.3483 326.323 27.2268 326.13 27.0863 325.89C26.9457 325.65 26.9347 325.363 27.0532 325.03C26.9145 324.767 26.8449 324.499 26.8443 324.224C26.7387 324.399 26.6445 324.574 26.5616 324.75C26.5033 324.905 26.4449 325.061 26.3866 325.216L26.2144 325.648L25.7659 325.68C25.7168 325.722 25.6659 325.786 25.6131 325.873C25.583 325.962 25.5774 326.03 25.5965 326.078L25.7023 326.464L25.3367 326.742C25.2858 326.807 25.2244 326.859 25.1526 326.899C25.0807 326.939 25.0203 326.98 24.9712 327.021C24.9055 327.268 24.818 327.5 24.7087 327.72C24.6221 327.942 24.5242 328.162 24.4149 328.382C24.2718 328.736 24.1296 329.079 23.9884 329.411C23.8699 329.744 23.7968 330.081 23.7692 330.422L23.5969 330.853C23.4686 331.026 23.3099 331.15 23.1209 331.226C22.9545 331.304 22.7891 331.371 22.6245 331.426C22.39 331.498 22.2237 331.576 22.1255 331.66L21.9873 332.094L21.4708 332.121C21.17 332.165 20.9505 332.193 20.8124 332.205C20.697 332.218 20.5598 332.219 20.4008 332.206L19.9607 332.136C19.7103 331.841 19.4998 331.618 19.3292 331.467C19.1831 331.295 19.0011 331.143 18.7832 331.011L18.6009 330.722C18.5248 330.533 18.481 330.369 18.4693 330.231C18.4595 330.07 18.4384 329.909 18.4059 329.746C18.3844 329.447 18.3329 329.237 18.2512 329.116L17.7817 328.564ZM29.3686 320.589C29.0137 321.017 28.6684 321.469 28.3325 321.945C28.4934 321.935 28.6419 321.936 28.7782 321.947C28.9372 321.96 29.0971 321.961 29.2579 321.951C30.0565 321.97 30.7992 321.974 31.4861 321.961C32.173 321.948 32.9204 321.894 33.7282 321.8C33.6147 320.945 33.4795 320.077 33.3224 319.195C33.19 318.293 33.0348 317.389 32.8569 316.483L32.6589 316.809C32.0413 317.376 31.4427 317.991 30.8632 318.652C30.2836 319.314 29.7977 319.949 29.4054 320.557L29.3686 320.589ZM79.4354 336.211C79.199 336.306 78.975 336.391 78.7632 336.465C78.5741 336.541 78.3547 336.569 78.1048 336.549C77.2726 335.818 76.9001 334.633 76.9875 332.994C77.0976 331.357 77.6184 329.308 78.5498 326.846C78.6689 326.787 78.7368 326.655 78.7534 326.451L78.4744 326.085C78.3836 326.078 78.2918 326.082 78.1991 326.097C78.1291 326.114 78.0659 326.189 78.0094 326.322C77.3839 326.705 76.6997 327.107 75.9569 327.527C75.216 327.924 74.4428 328.295 73.6374 328.641C72.8566 328.967 72.0585 329.222 71.2433 329.407C70.4509 329.594 69.6799 329.658 68.9304 329.597C67.0226 329.442 65.6702 328.36 64.873 326.352L64.642 325.819L64.3335 326.24C64.258 326.325 64.1401 326.51 63.9798 326.794C63.8214 327.056 63.6594 327.363 63.4936 327.715C63.3278 328.067 63.1724 328.432 63.0275 328.809C62.9072 329.165 62.8473 329.48 62.8479 329.754C62.6269 329.942 62.3917 330.163 62.1425 330.417C61.8932 330.671 61.698 330.964 61.5568 331.295C61.4966 331.473 61.5055 331.646 61.5834 331.812C61.5214 332.013 61.4063 332.163 61.2381 332.264C61.138 332.37 61.0266 332.475 60.9038 332.58C60.8056 332.663 60.7178 332.759 60.6404 332.867C60.5858 332.977 60.5425 333.088 60.5106 333.199C60.5014 333.313 60.4808 333.426 60.4488 333.537C60.4359 333.696 60.4012 333.842 60.3447 333.975C59.8941 334.738 59.546 335.224 59.3004 335.433C59.053 335.664 58.7363 335.764 58.3502 335.733C58.1685 335.718 57.876 335.66 57.4727 335.559C57.2033 335.217 56.9658 334.763 56.7602 334.198C56.5792 333.612 56.4464 332.995 56.3618 332.348C56.2998 331.703 56.2947 331.062 56.3463 330.427C56.4225 329.77 56.5822 329.211 56.8253 328.751C56.8272 328.728 56.9365 328.508 57.1532 328.092C57.37 327.675 57.6423 327.137 57.9701 326.478C58.3207 325.82 58.7109 325.097 59.1407 324.309C59.5723 323.499 60.0012 322.722 60.4272 321.979C60.8552 321.214 61.2549 320.515 61.6263 319.882C62.0205 319.251 62.345 318.774 62.5997 318.452C62.8036 318.194 62.9828 317.957 63.1375 317.741C63.3168 317.504 63.4838 317.278 63.6385 317.062C64.1045 316.391 64.5376 315.843 64.9379 315.418C65.3627 314.973 65.9496 314.643 66.6985 314.43C67.1816 314.675 67.5256 314.943 67.7306 315.234L67.7683 315.614C67.8407 315.848 67.9677 315.973 68.1494 315.988C68.3937 316.076 68.5926 316.161 68.746 316.242C68.924 316.302 69.1134 316.363 69.3141 316.425C69.4584 316.62 69.5885 316.848 69.7044 317.109C69.864 317.396 70.0122 317.682 70.1491 317.968C70.3105 318.232 70.4255 318.505 70.4942 318.784C70.5875 319.043 70.6231 319.309 70.601 319.582C70.6015 319.856 70.5331 320.136 70.3955 320.422L70.4019 320.766C70.4989 320.98 70.4985 321.265 70.4009 321.623C70.3653 321.78 70.3401 321.95 70.3253 322.131C70.3124 322.29 70.3204 322.474 70.3492 322.682C70.7322 323.033 71.0827 323.222 71.4006 323.247C71.764 323.277 72.0998 323.224 72.408 323.089C72.7407 322.933 73.0507 322.776 73.338 322.616C73.5307 322.495 73.7217 322.396 73.9107 322.32C74.1016 322.221 74.2889 322.167 74.4724 322.159C74.9126 321.807 75.3036 321.495 75.6456 321.226C76.0102 320.958 76.3862 320.692 76.7736 320.426C77.4992 319.936 78.2058 319.399 78.8934 318.815C79.5809 318.231 80.1565 317.477 80.62 316.555C80.8582 316.437 81.1022 316.388 81.3521 316.408C81.6019 316.429 81.8585 316.507 82.1218 316.642C82.3851 316.778 82.6371 316.913 82.8777 317.047C82.9421 317.098 82.9961 317.136 83.0397 317.163C83.106 317.191 83.1609 317.218 83.2045 317.245C83.1861 317.472 83.2612 317.672 83.43 317.846C83.5153 317.921 83.5684 317.971 83.5893 317.996C83.6102 318.021 83.6424 318.046 83.686 318.072C84.0119 318.282 84.2129 318.481 84.289 318.67C84.4056 319.205 84.6572 319.626 85.0438 319.932C84.98 320.155 84.9625 320.371 84.9913 320.579C85.0447 320.766 85.1085 320.966 85.1827 321.177C85.1999 321.247 85.2171 321.317 85.2343 321.387C85.2514 321.457 85.2791 321.54 85.3171 321.634L84.6754 321.513L84.725 322.169C84.7446 322.491 84.6819 322.84 84.537 323.217C84.4148 323.596 84.2764 323.893 84.1217 324.109C84.0964 324.701 84.07 325.168 84.0423 325.509C84.0392 325.828 84.0029 326.134 83.9335 326.426C83.866 326.694 83.7766 326.95 83.6655 327.193C83.5771 327.437 83.4528 327.701 83.2925 327.985C83.2653 329.446 82.9871 330.761 82.4578 331.93C81.9531 333.077 81.4312 334.155 80.8921 335.163C80.8375 335.273 80.7715 335.382 80.6941 335.49C80.6395 335.6 80.5848 335.71 80.5302 335.82C80.3203 335.871 80.1321 335.936 79.9658 336.014C79.8012 336.069 79.6244 336.135 79.4354 336.211ZM102.477 335.819C102.31 336.194 102.073 336.575 101.767 336.961C101.486 337.327 101.151 337.654 100.762 337.943C100.397 338.21 99.9906 338.429 99.5425 338.598C99.0944 338.767 98.6309 338.844 98.1521 338.828C97.8624 338.736 97.6645 338.64 97.5583 338.54C97.473 338.464 97.3763 338.388 97.2683 338.31C97.2038 338.26 97.1385 338.22 97.0722 338.192C97.0304 338.143 96.9878 338.105 96.9442 338.078L96.5492 337.875L96.7215 337.443C96.7816 337.265 96.7813 337.128 96.7206 337.031C96.6617 336.912 96.5374 336.754 96.3477 336.555C96.2851 336.482 96.2225 336.408 96.1599 336.334C96.0973 336.261 96.0461 336.188 96.0062 336.116L95.4796 335.422L96.4188 335.258C96.9995 335.145 97.3908 334.971 97.5928 334.736C97.8175 334.503 97.9311 334.089 97.9337 333.495C97.4868 333.367 97.1016 333.325 96.7781 333.367C96.4773 333.411 96.1643 333.466 95.8389 333.531C95.4209 333.611 94.9924 333.679 94.5535 333.735C94.1392 333.77 93.6822 333.767 93.1825 333.726C93.0008 333.712 92.8305 333.698 92.6715 333.685C92.5144 333.649 92.3459 333.613 92.166 333.575L91.8309 333.48C91.8058 333.226 91.7714 333.086 91.7278 333.06C91.6861 333.011 91.6444 332.961 91.6026 332.912C91.4983 332.79 91.3854 332.632 91.2638 332.439C91.1669 332.225 91.1645 331.974 91.2566 331.684C91.1596 331.47 91.1081 331.26 91.102 331.054C90.9436 331.316 90.8183 331.591 90.7262 331.881L90.5623 332.211L90.216 332.251C90.1688 332.27 90.1301 332.324 90.1 332.413C90.0718 332.479 90.0558 332.535 90.0521 332.581L89.8347 333.146C89.7856 333.188 89.7365 333.229 89.6874 333.271C89.6401 333.29 89.592 333.321 89.5428 333.362C89.4808 333.563 89.4074 333.763 89.3227 333.962C89.238 334.161 89.1542 334.348 89.0713 334.524C88.9337 334.81 88.8076 335.097 88.6927 335.385C88.6025 335.652 88.5576 335.923 88.5582 336.197L88.3915 336.561C88.2669 336.688 88.1327 336.791 87.9891 336.871C87.8473 336.928 87.7055 336.985 87.5637 337.042C87.5146 337.084 87.4428 337.124 87.3482 337.162C87.2782 337.179 87.2196 337.197 87.1723 337.216L87.0397 337.583L86.6254 337.618C86.3719 337.643 86.1874 337.662 86.072 337.676C85.9793 337.691 85.8648 337.693 85.7285 337.682L85.3906 337.62C85.1574 337.396 84.9773 337.221 84.8502 337.096C84.725 336.949 84.5762 336.811 84.4037 336.683C84.2214 336.394 84.1245 336.18 84.1128 336.042C84.1012 335.904 84.0886 335.777 84.0751 335.662C84.0408 335.522 84.0273 335.406 84.0347 335.315C84.0193 335.223 83.9908 335.152 83.949 335.103L83.5394 334.658L83.939 334.382L84.0201 333.805C84.5684 332.684 85.1357 331.61 85.7221 330.583C86.3311 329.558 86.9534 328.511 87.5888 327.443C87.8 327.094 87.9999 326.744 88.1883 326.394C88.3996 326.045 88.6108 325.697 88.822 325.348C88.8048 325.278 88.7999 325.198 88.8073 325.107C88.8146 325.016 88.8456 324.916 88.9003 324.806C89.1815 324.44 89.4135 324.116 89.5965 323.833C89.7813 323.528 89.9661 323.223 90.1509 322.918C90.3639 322.547 90.5761 322.187 90.7873 321.838C91.0212 321.492 91.3015 321.137 91.6281 320.775L92.1925 320.581C92.2625 320.564 92.3438 320.547 92.4365 320.532C92.531 320.494 92.6351 320.479 92.7486 320.489L93.2541 320.598C93.914 320.355 94.5037 319.991 95.023 319.507C95.5442 319.001 96.0851 318.393 96.6456 317.685L97.025 317.235L97.4458 317.544C97.5538 317.621 97.7073 317.702 97.9061 317.787C98.1068 317.849 98.318 317.923 98.5396 318.01C98.941 318.134 99.3188 318.267 99.673 318.411C100.027 318.554 100.309 318.748 100.517 318.993C100.624 319.368 100.681 319.647 100.689 319.83C100.697 320.014 100.717 320.198 100.747 320.384C100.784 320.775 100.809 321.166 100.824 321.556C100.86 321.948 100.871 322.383 100.855 322.862C100.937 323.257 100.996 323.65 101.033 324.042C101.094 324.413 101.144 324.794 101.18 325.186C101.25 325.74 101.32 326.283 101.391 326.814C101.464 327.323 101.573 327.812 101.718 328.281C101.899 328.296 102.012 328.317 102.056 328.343C102.173 328.307 102.289 328.282 102.405 328.268C102.543 328.257 102.692 328.246 102.853 328.236L103.23 328.233L103.339 328.584C103.353 328.7 103.457 328.823 103.652 328.953C103.945 328.999 104.156 329.085 104.283 329.21C104.412 329.312 104.528 329.424 104.633 329.547C104.716 329.645 104.801 329.72 104.889 329.773L105.383 330.019L105.069 330.508C104.809 330.898 104.447 331.269 103.984 331.62C103.546 331.95 103.055 332.219 102.513 332.427C102.524 332.565 102.525 332.702 102.514 332.838C102.527 332.954 102.551 333.081 102.585 333.221C102.622 333.613 102.647 334.015 102.659 334.427C102.671 334.84 102.637 335.26 102.556 335.688L102.477 335.819ZM93.1104 329.125C93.7954 329.135 94.4123 329.14 94.9611 329.139C95.5344 329.117 96.1673 329.065 96.8597 328.984C96.756 328.29 96.6429 327.572 96.5202 326.83C96.3994 326.066 96.2663 325.312 96.1209 324.569L95.8888 324.893C95.3958 325.333 94.9096 325.831 94.4301 326.386C93.9734 326.944 93.5762 327.472 93.2385 327.97C93.0856 328.163 92.9328 328.357 92.7799 328.55C92.627 328.743 92.4855 328.938 92.3553 329.133C92.4935 329.121 92.6193 329.12 92.7329 329.129C92.8691 329.14 92.995 329.139 93.1104 329.125ZM123.471 323.909C122.903 323.863 122.286 323.859 121.62 323.896C120.956 323.911 120.302 323.938 119.659 323.977C119.199 324.008 118.752 324.029 118.317 324.04C117.904 324.052 117.527 324.055 117.184 324.05C116.985 324.537 116.79 324.967 116.599 325.34C116.409 325.714 116.208 326.074 115.997 326.423C115.784 326.794 115.581 327.178 115.389 327.574C115.221 327.949 115.051 328.358 114.878 328.801C114.621 329.146 114.401 329.471 114.216 329.776C114.056 330.06 113.914 330.392 113.792 330.771C113.492 331.089 113.258 331.436 113.09 331.811C112.925 332.163 112.797 332.473 112.706 332.74L112.537 333.138C112.39 333.263 112.301 333.37 112.271 333.459C112.242 333.525 112.18 333.589 112.084 333.65C112.041 333.898 111.941 334.141 111.784 334.38C111.73 334.49 111.687 334.6 111.655 334.712C111.624 334.801 111.608 334.868 111.604 334.914C111.585 335.141 111.517 335.284 111.398 335.343C111.411 335.458 111.401 335.583 111.367 335.718C111.335 335.829 111.303 335.941 111.271 336.053C111.181 336.32 111.141 336.534 111.151 336.694C111.211 336.791 111.262 336.875 111.302 336.947C111.364 337.02 111.402 337.115 111.416 337.23C111.545 337.332 111.642 337.397 111.709 337.426C111.794 337.501 111.924 337.592 112.098 337.697L112.377 338.063C112.437 338.731 112.292 339.245 111.943 339.605C111.567 340.009 110.971 340.178 110.153 340.111L109.744 340.078C109.64 339.955 109.579 339.859 109.562 339.789C109.386 339.706 109.243 339.637 109.133 339.583C109.023 339.528 108.928 339.429 108.848 339.285C108.564 339.125 108.335 338.992 108.161 338.886L107.868 338.691C107.888 338.441 107.899 338.305 107.901 338.282C107.759 338.065 107.652 337.828 107.582 337.571C107.534 337.315 107.497 337.061 107.472 336.807C107.443 336.599 107.402 336.401 107.349 336.214C107.318 336.029 107.263 335.864 107.183 335.721C107.245 334.4 107.46 333.297 107.829 332.412C108.198 331.528 108.576 330.679 108.962 329.864C109.181 329.425 109.399 328.985 109.618 328.546C109.838 328.083 110.037 327.608 110.214 327.119L110.548 326.804C110.736 326.453 110.885 326.168 110.995 325.948C111.128 325.708 111.262 325.467 111.396 325.226C111.477 325.073 111.546 324.93 111.602 324.797C111.683 324.644 111.751 324.512 111.806 324.402C111.67 324.391 111.544 324.393 111.428 324.406C111.315 324.397 111.2 324.399 111.085 324.412C110.947 324.424 110.82 324.437 110.705 324.45C110.591 324.441 110.478 324.432 110.364 324.423C110.205 324.41 110.092 324.389 110.026 324.361C109.767 324.454 109.49 324.489 109.195 324.465L108.854 324.437C108.786 324.432 108.718 324.426 108.65 324.42C108.606 324.394 108.561 324.379 108.516 324.375C108.289 324.357 108.104 324.376 107.963 324.433C107.69 324.411 107.429 324.39 107.179 324.37L106.838 324.342C106.793 324.338 106.735 324.345 106.665 324.362C106.597 324.357 106.54 324.352 106.495 324.348C106.336 324.335 106.167 324.31 105.987 324.273C105.809 324.213 105.622 324.117 105.427 323.987C105.184 323.602 105.018 323.394 104.929 323.364L104.656 322.93C104.644 322.792 104.62 322.664 104.584 322.547C104.549 322.407 104.516 322.256 104.483 322.093C104.411 321.859 104.34 321.613 104.269 321.356C104.223 321.078 104.215 320.757 104.244 320.393C104.282 320.214 104.338 320.081 104.414 319.996C104.489 319.91 104.552 319.836 104.603 319.771L104.747 319.268L105.187 319.338L106.141 319.416C106.868 319.475 107.608 319.512 108.361 319.528C109.116 319.52 109.894 319.515 110.694 319.511C111.152 319.503 111.61 319.494 112.068 319.486C112.549 319.479 113.041 319.473 113.544 319.468C113.651 319.271 113.758 319.086 113.864 318.911L114.218 318.769C114.629 318.779 114.908 318.859 115.056 319.008C115.228 319.136 115.367 319.262 115.471 319.385C115.974 319.38 116.478 319.375 116.981 319.37C117.509 319.345 118.038 319.307 118.568 319.259C119.349 319.208 120.13 319.169 120.909 319.141C121.711 319.114 122.476 319.131 123.203 319.19C123.521 319.215 123.826 319.252 124.12 319.298C124.413 319.345 124.683 319.401 124.929 319.467L125.25 319.733C125.307 319.875 125.388 320.007 125.493 320.13C125.62 320.255 125.747 320.379 125.874 320.504C126.126 320.776 126.374 321.093 126.619 321.456C126.864 321.819 126.926 322.327 126.804 322.98C126.6 323.238 126.451 323.386 126.357 323.424L126.017 323.808L125.679 323.746C125.543 323.735 125.416 323.747 125.299 323.784C125.183 323.797 125.067 323.822 124.95 323.858C124.855 323.896 124.761 323.934 124.666 323.972C124.573 323.988 124.469 324.002 124.354 324.015C124.15 323.999 123.979 323.985 123.843 323.974C123.731 323.942 123.607 323.92 123.471 323.909ZM133.65 341.299C133.284 341.292 132.831 341.244 132.29 341.154C131.771 341.067 131.276 341.106 130.805 341.274C129.605 341.131 128.391 340.884 127.162 340.532C125.933 340.181 124.811 339.781 123.796 339.333C123.589 339.065 123.38 338.819 123.17 338.596C122.961 338.351 122.668 338.167 122.289 338.045C121.779 337.569 121.378 337.011 121.087 336.37C120.798 335.706 120.58 335.014 120.433 334.293C120.286 333.573 120.208 332.846 120.199 332.114C120.191 331.359 120.227 330.642 120.305 329.962C120.728 328.968 121.276 328.132 121.949 327.455C122.645 326.757 123.353 326.072 124.07 325.398C124.377 325.286 124.603 325.167 124.751 325.042C124.923 324.896 125.093 324.773 125.261 324.672C125.454 324.551 125.634 324.439 125.802 324.339C125.995 324.217 126.167 324.071 126.318 323.901C126.804 323.826 127.226 323.7 127.583 323.523C127.965 323.326 128.335 323.127 128.695 322.928C129.056 322.705 129.426 322.507 129.806 322.332C130.186 322.157 130.619 322.032 131.105 321.957C131.304 321.768 131.532 321.626 131.791 321.533C132.052 321.417 132.312 321.312 132.571 321.219C132.855 321.105 133.116 320.989 133.354 320.871C133.615 320.755 133.823 320.589 133.977 320.373C134.076 320.564 134.23 320.645 134.438 320.616C134.648 320.565 134.846 320.512 135.033 320.459C135.149 320.445 135.238 320.476 135.3 320.549C135.386 320.625 135.46 320.699 135.522 320.773C135.585 320.847 135.638 320.897 135.681 320.923C135.75 320.929 135.811 320.876 135.866 320.767C135.979 320.776 136.009 320.835 135.954 320.945C135.899 321.055 135.859 321.132 135.832 321.175C136.016 321.167 136.16 321.225 136.264 321.348C136.393 321.45 136.593 321.523 136.864 321.568C136.945 321.689 136.961 321.781 136.91 321.846C136.861 321.888 136.83 321.977 136.819 322.113C137.484 322.373 137.889 322.737 138.034 323.206C138.18 323.652 138.155 324.107 137.957 324.571C137.759 325.035 137.44 325.455 136.998 325.831C136.556 326.206 136.091 326.443 135.603 326.541C134.488 326.747 133.428 326.993 132.422 327.277C131.441 327.54 130.616 327.987 129.947 328.619C129.389 328.734 128.883 328.91 128.43 329.147C128 329.364 127.579 329.627 127.165 329.936C126.776 330.225 126.396 330.537 126.026 330.872C125.681 331.187 125.312 331.5 124.921 331.812C124.918 332.131 124.841 332.377 124.69 332.547C124.563 332.697 124.436 332.858 124.308 333.031C124.326 333.375 124.38 333.688 124.472 333.97C124.565 334.229 124.669 334.489 124.785 334.75C126.248 335.326 127.814 335.739 129.486 335.989C131.18 336.24 132.878 336.447 134.579 336.608C134.72 336.848 134.884 337.079 135.072 337.3C135.284 337.5 135.472 337.721 135.635 337.963C135.8 338.182 135.929 338.432 136.02 338.714C136.113 338.973 136.11 339.293 136.011 339.673C135.665 339.988 135.287 340.278 134.877 340.541C134.469 340.783 134.06 341.035 133.65 341.299ZM155.114 339.647C155.111 340.241 155.003 340.724 154.79 341.095C154.577 341.467 154.301 341.776 153.96 342.023C153.62 342.269 153.239 342.456 152.818 342.581C152.396 342.707 151.987 342.822 151.589 342.927C151.417 342.799 151.244 342.671 151.072 342.542C150.924 342.393 150.739 342.275 150.518 342.189C150.267 341.62 150.022 341.12 149.782 340.689C149.545 340.235 149.459 339.737 149.526 339.193C149.528 339.171 149.55 339.047 149.591 338.821C149.655 338.598 149.721 338.352 149.788 338.083C149.878 337.816 149.944 337.57 149.985 337.345C150.051 337.099 150.085 336.964 150.087 336.941C149.561 336.944 149.006 337.014 148.424 337.149C147.841 337.285 147.267 337.455 146.702 337.661C146.159 337.868 145.639 338.078 145.142 338.289C144.667 338.502 144.275 338.687 143.965 338.845C143.96 338.913 143.9 339.08 143.787 339.345C143.676 339.587 143.541 339.85 143.38 340.135C143.222 340.396 143.054 340.634 142.877 340.848C142.699 341.062 142.531 341.163 142.372 341.15C142.389 341.22 142.418 341.291 142.458 341.363C142.497 341.435 142.49 341.525 142.435 341.635C142.11 341.7 141.817 341.791 141.556 341.907C141.293 342.046 141.022 342.149 140.742 342.218C140.46 342.309 140.16 342.342 139.843 342.316C139.525 342.291 139.159 342.147 138.746 341.884C138.757 341.748 138.709 341.63 138.603 341.53C138.499 341.407 138.381 341.306 138.251 341.227C138.144 341.127 138.048 341.05 137.961 340.998C137.875 340.922 137.835 340.862 137.838 340.816C137.723 340.83 137.684 340.747 137.721 340.567C137.759 340.387 137.853 340.349 138.005 340.453C137.781 340.114 137.644 339.829 137.594 339.596C137.569 339.343 137.469 339.026 137.294 338.646C137.343 338.604 137.395 338.528 137.45 338.419C137.482 338.307 137.513 338.206 137.543 338.117C137.573 338.028 137.613 337.963 137.662 337.921C137.711 337.88 137.767 337.896 137.829 337.969C137.801 337.761 137.814 337.591 137.871 337.458C137.927 337.326 137.983 337.204 138.038 337.095C138.092 336.985 138.135 336.874 138.167 336.762C138.199 336.65 138.175 336.523 138.096 336.379C138.5 335.909 138.781 335.395 138.941 334.836C139.103 334.255 139.214 333.727 139.276 333.251C139.447 333.105 139.602 332.889 139.74 332.603C139.9 332.319 140.026 332.032 140.118 331.742C140.212 331.43 140.259 331.137 140.258 330.862C140.282 330.567 140.268 330.326 140.214 330.139C140.246 330.027 140.374 330.003 140.597 330.067C140.794 329.328 140.953 328.495 141.074 327.568C141.22 326.62 141.395 325.731 141.6 324.901C141.806 324.049 142.094 323.318 142.464 322.708C142.835 322.076 143.381 321.685 144.102 321.538C144.199 322.026 144.335 322.46 144.51 322.84C144.708 323.222 144.918 323.593 145.14 323.954C145.387 324.295 145.621 324.645 145.843 325.006C146.088 325.369 146.307 325.775 146.499 326.225C146.441 326.655 146.355 327.151 146.241 327.713C146.127 328.275 145.989 328.847 145.827 329.428C145.688 330.012 145.54 330.571 145.382 331.107C145.247 331.645 145.118 332.103 144.996 332.482C145.01 332.597 145.061 332.67 145.15 332.7C145.262 332.732 145.276 332.836 145.193 333.012C145.749 332.92 146.327 332.841 146.927 332.775C147.527 332.71 148.127 332.633 148.729 332.545C149.331 332.456 149.91 332.355 150.468 332.24C151.051 332.104 151.591 331.931 152.088 331.72C152.273 330.843 152.493 329.97 152.747 329.099C153 328.228 153.097 327.321 153.036 326.379C153.157 326.297 153.257 326.191 153.336 326.06C153.416 325.93 153.536 325.848 153.699 325.815C153.621 325.375 153.612 324.917 153.674 324.442C153.735 323.967 153.851 323.519 154.023 323.098C154.217 322.68 154.462 322.334 154.758 322.061C155.08 321.767 155.448 321.591 155.864 321.533C156.085 321.917 156.268 322.332 156.415 322.778C156.563 323.202 156.711 323.637 156.858 324.083C157.029 324.508 157.201 324.922 157.374 325.325C157.572 325.707 157.83 326.048 158.148 326.348C158.163 327.012 158.153 327.697 158.118 328.403C158.107 329.111 158.083 329.829 158.046 330.558C157.795 331.406 157.522 332.23 157.228 333.029C156.959 333.807 156.743 334.647 156.578 335.548C156.404 335.717 156.263 335.911 156.154 336.131C156.044 336.351 155.934 336.582 155.823 336.824C155.714 337.044 155.593 337.263 155.461 337.481C155.331 337.676 155.18 337.846 155.008 337.993C155.077 338.272 155.067 338.535 154.978 338.779C154.914 339.002 154.96 339.292 155.114 339.647ZM169.013 320.509C168.996 320.714 168.942 320.961 168.85 321.25C168.78 321.542 168.711 321.833 168.642 322.125C168.572 322.417 168.539 322.688 168.541 322.94C168.545 323.169 168.636 323.325 168.812 323.408C168.305 324.578 167.939 325.566 167.714 326.371C167.511 327.177 167.323 327.95 167.148 328.691C166.998 329.41 166.811 330.172 166.585 330.977C166.36 331.782 165.995 332.758 165.49 333.906C165.181 334.612 164.833 335.098 164.446 335.364C164.06 335.607 163.663 335.712 163.254 335.679C162.846 335.646 162.435 335.498 162.022 335.236C161.608 334.974 161.231 334.691 160.89 334.389C160.857 333.952 160.888 333.429 160.983 332.82C161.103 332.189 161.236 331.537 161.382 330.863C161.528 330.189 161.672 329.549 161.812 328.943C161.955 328.315 162.066 327.787 162.147 327.359C162.394 327.127 162.57 326.936 162.674 326.784C162.777 326.633 162.848 326.467 162.885 326.287C162.946 326.109 162.998 325.885 163.043 325.614C163.088 325.343 163.176 324.962 163.307 324.47C163.373 324.223 163.368 324.006 163.292 323.817C163.24 323.607 163.245 323.413 163.305 323.235C163.358 323.148 163.431 323.085 163.526 323.047C163.643 323.011 163.718 322.937 163.75 322.825C163.864 322.537 163.905 322.312 163.873 322.149C163.842 321.964 163.894 321.751 164.028 321.51C164.156 321.338 164.315 321.065 164.506 320.692C164.721 320.298 164.823 319.883 164.812 319.448C165.03 319.306 165.238 319.14 165.436 318.95C165.634 318.76 165.831 318.593 166.025 318.449C166.244 318.284 166.472 318.154 166.708 318.059C166.968 317.965 167.267 317.933 167.608 317.96C167.769 318.225 167.886 318.474 167.959 318.709C168.031 318.943 168.093 319.166 168.145 319.376C168.219 319.587 168.317 319.79 168.438 319.982C168.56 320.175 168.751 320.351 169.013 320.509ZM164.066 339.62C164.097 339.805 164.117 339.978 164.127 340.139C164.137 340.3 164.145 340.472 164.153 340.656C163.978 341.121 163.796 341.541 163.605 341.914C163.524 342.068 163.471 342.166 163.444 342.21C163.418 342.253 163.404 342.286 163.402 342.309C163.4 342.332 163.409 342.367 163.428 342.414C163.448 342.439 163.452 342.53 163.44 342.689L163.236 343.084C163.11 343.234 162.963 343.348 162.797 343.426C162.653 343.506 162.499 343.573 162.335 343.628C162.263 343.668 162.18 343.696 162.088 343.711C162.016 343.751 161.955 343.792 161.906 343.834L161.771 344.234L161.288 344.264C160.918 344.325 160.585 344.344 160.289 344.32L159.915 344.289C159.662 344.017 159.462 343.807 159.314 343.658C159.167 343.508 158.995 343.369 158.8 343.239C158.585 342.787 158.468 342.4 158.448 342.078C158.427 341.779 158.386 341.582 158.325 341.485L157.887 340.97L158.32 340.696L157.964 340.016C158.253 339.834 158.47 339.703 158.613 339.623C158.757 339.543 158.878 339.461 158.976 339.378C159.099 339.274 159.224 339.146 159.35 338.997C159.476 338.847 159.679 338.601 159.959 338.257L160.301 337.839L160.691 338.111C160.799 338.188 160.998 338.273 161.287 338.365C161.602 338.437 161.87 338.504 162.094 338.568C162.448 338.711 162.793 338.83 163.128 338.926C163.488 339.001 163.762 339.138 163.952 339.336L164.066 339.62Z" fill="white"/>
<path d="M253.086 311.629C252.918 311.814 252.834 312.035 252.835 312.292C252.832 312.529 252.82 312.769 252.799 313.009C252.777 313.25 252.703 313.469 252.576 313.667C252.465 313.842 252.225 313.949 251.855 313.988C251.793 314.096 251.783 314.157 251.825 314.17C251.886 314.181 251.948 314.26 252.01 314.408C251.734 314.412 251.544 314.462 251.441 314.557C251.337 314.652 251.201 314.733 251.034 314.799C250.569 314.733 250.155 314.551 249.791 314.253C249.444 313.931 249.122 313.577 248.824 313.189C248.545 312.797 248.284 312.394 248.04 311.977C247.816 311.558 247.592 311.197 247.366 310.897C247.354 310.82 247.388 310.785 247.468 310.792C247.526 310.783 247.584 310.774 247.642 310.764C247.515 310.587 247.415 310.385 247.34 310.16C247.242 309.918 247.114 309.73 246.955 309.597C247.326 308.313 247.729 306.975 248.163 305.582C248.593 304.17 249.023 302.748 249.45 301.317C249.894 299.863 250.328 298.411 250.753 296.96C251.194 295.487 251.61 294.048 252.002 292.642C252.573 292.75 253.13 292.9 253.674 293.091C254.235 293.26 254.754 293.485 255.233 293.766C255.712 294.046 256.133 294.395 256.495 294.813C256.874 295.208 257.156 295.688 257.344 296.251C257.323 296.373 257.281 296.419 257.217 296.39C257.153 296.36 257.108 296.387 257.082 296.471C257.196 296.571 257.258 296.65 257.267 296.708C257.293 296.744 257.3 296.792 257.29 296.853C257.277 296.895 257.276 296.954 257.288 297.031C257.3 297.108 257.365 297.207 257.483 297.327C257.384 297.323 257.319 297.353 257.29 297.417C257.257 297.461 257.19 297.472 257.087 297.448C257.226 297.703 257.288 297.911 257.274 298.071C257.259 298.232 257.224 298.386 257.168 298.533C257.109 298.661 257.063 298.806 257.029 298.97C257.012 299.111 257.062 299.301 257.178 299.54C257.101 299.552 257.046 299.58 257.014 299.625C256.997 299.647 256.983 299.679 256.969 299.721C256.956 299.762 256.933 299.805 256.901 299.85C256.884 299.872 256.836 299.88 256.756 299.873C256.893 300.365 256.992 300.874 257.055 301.398C257.114 301.902 257.177 302.426 257.242 302.97C257.305 303.494 257.39 304.034 257.497 304.59C257.604 305.147 257.772 305.714 258.001 306.291C258.755 305.678 259.322 304.946 259.703 304.096C260.102 303.242 260.373 302.32 260.514 301.329C260.674 300.335 260.746 299.286 260.731 298.181C260.735 297.073 260.736 295.946 260.734 294.8C260.913 294.554 261.036 294.268 261.103 293.941C261.19 293.611 261.246 293.276 261.272 292.936C261.316 292.593 261.352 292.251 261.377 291.911C261.419 291.548 261.496 291.22 261.608 290.926C261.962 290.91 262.268 290.97 262.527 291.108C262.802 291.223 263.062 291.37 263.307 291.549C263.55 291.708 263.801 291.857 264.06 291.994C264.318 292.131 264.626 292.201 264.982 292.205C265.313 292.548 265.623 292.885 265.912 293.215C266.198 293.526 266.415 293.898 266.562 294.329C266.476 294.54 266.423 294.766 266.401 295.007C266.38 295.248 266.348 295.49 266.308 295.733C266.286 295.974 266.233 296.2 266.147 296.411C266.062 296.622 265.923 296.812 265.732 296.98C265.765 297.568 265.763 298.122 265.726 298.642C265.689 299.162 265.661 299.67 265.64 300.168C265.619 300.666 265.611 301.181 265.616 301.714C265.62 302.247 265.681 302.821 265.797 303.435C265.711 304.022 265.609 304.631 265.491 305.263C265.37 305.875 265.3 306.439 265.282 306.956C264.961 307.303 264.728 307.705 264.582 308.163C264.437 308.621 264.282 309.08 264.117 309.541C264.032 309.634 263.977 309.662 263.952 309.626C263.924 309.572 263.831 309.547 263.673 309.552C263.72 309.722 263.7 309.844 263.612 309.917C263.541 309.968 263.572 310.101 263.705 310.318C263.401 310.524 263.143 310.772 262.932 311.062C262.721 311.352 262.477 311.628 262.202 311.888C261.946 312.146 261.621 312.345 261.228 312.486C260.851 312.605 260.326 312.598 259.653 312.466C258.599 311.92 257.624 311.253 256.729 310.464C255.834 309.676 255.068 308.699 254.43 307.534C254.246 307.622 254.121 307.77 254.055 307.978C253.989 308.186 253.934 308.402 253.89 308.627C253.846 308.851 253.799 309.056 253.749 309.242C253.699 309.428 253.597 309.533 253.443 309.557C253.432 309.737 253.38 309.913 253.289 310.085C253.213 310.235 253.14 310.395 253.067 310.565C252.992 310.715 252.939 310.882 252.909 311.064C252.897 311.244 252.957 311.432 253.086 311.629ZM284.073 300.654C284.09 300.888 284.144 301.107 284.236 301.31C284.327 301.513 284.428 301.715 284.538 301.915C284.665 302.093 284.784 302.282 284.894 302.482C285.005 302.682 285.096 302.885 285.168 303.092C285.249 303.356 285.296 303.655 285.309 303.989C285.319 304.304 285.3 304.623 285.252 304.947C285.201 305.251 285.118 305.541 285.003 305.816C284.885 306.072 284.729 306.274 284.535 306.424C284.319 306.813 284.033 307.135 283.678 307.388C283.322 307.642 283.002 307.93 282.716 308.251C282.525 308.42 282.299 308.554 282.038 308.654C281.796 308.752 281.545 308.85 281.284 308.951C281.09 309.1 280.859 309.265 280.59 309.445C280.319 309.606 280.038 309.769 279.748 309.933C279.454 310.078 279.158 310.204 278.858 310.31C278.555 310.397 278.287 310.449 278.052 310.467C277.507 310.77 276.959 310.994 276.408 311.14C275.88 311.302 275.237 311.363 274.48 311.324C273.8 311.53 273.149 311.602 272.527 311.542C271.924 311.478 271.365 311.319 270.85 311.064C270.352 310.786 269.893 310.443 269.473 310.035C269.069 309.604 268.72 309.144 268.426 308.657C268.099 307.581 267.982 306.582 268.074 305.658C268.163 304.714 268.361 303.833 268.667 303.014C268.989 302.173 269.381 301.39 269.84 300.665C270.297 299.921 270.737 299.199 271.161 298.5C271.283 298.521 271.369 298.507 271.421 298.459C271.489 298.389 271.546 298.311 271.592 298.225C271.635 298.119 271.679 298.023 271.725 297.937C271.79 297.848 271.869 297.786 271.963 297.751C272.052 297.441 272.212 297.198 272.441 297.024C272.687 296.827 272.866 296.581 272.978 296.287C273.146 296.221 273.281 296.141 273.385 296.045C273.489 295.95 273.581 295.846 273.662 295.735C273.763 295.62 273.865 295.515 273.969 295.42C274.069 295.305 274.194 295.216 274.342 295.154L274.292 294.835C274.615 294.626 274.839 294.413 274.963 294.196C275.103 293.957 275.266 293.674 275.453 293.348C275.623 293.302 275.757 293.271 275.853 293.256C275.969 293.237 276.13 293.192 276.336 293.12C276.448 292.826 276.551 292.602 276.646 292.449C276.76 292.293 276.93 292.118 277.156 291.924C277.406 292.003 277.669 292.041 277.945 292.037C278.241 292.03 278.511 292.116 278.757 292.295C278.807 292.485 278.889 292.631 279.003 292.731C279.115 292.812 279.236 292.892 279.367 292.971C279.495 293.03 279.615 293.1 279.726 293.181C279.857 293.259 279.956 293.382 280.022 293.55C280.102 293.557 280.148 293.54 280.162 293.498C280.194 293.454 280.251 293.435 280.331 293.442C280.431 293.703 280.527 293.876 280.62 293.96C280.709 294.025 280.812 294.177 280.929 294.416C280.862 294.624 280.817 294.839 280.793 295.06C280.784 295.259 280.691 295.422 280.513 295.549C280.515 295.687 280.566 295.758 280.666 295.762C280.762 295.747 280.827 295.786 280.862 295.879C280.908 296.05 280.899 296.18 280.834 296.269C281.415 296.949 281.956 297.685 282.456 298.476C282.953 299.248 283.492 299.974 284.073 300.654ZM280.887 303.971C280.931 303.747 281 303.558 281.095 303.405C281.209 303.249 281.254 303.034 281.231 302.761C281.11 302.622 281.034 302.515 281.003 302.441C280.968 302.347 280.936 302.204 280.906 302.011C280.387 301.48 279.921 300.901 279.506 300.274C279.088 299.628 278.639 299.036 278.159 298.498C278.133 298.582 278.077 298.669 277.993 298.762C277.909 298.854 277.8 298.851 277.666 298.754C277.651 298.914 277.602 299.041 277.518 299.133C277.43 299.206 277.329 299.252 277.213 299.27C277.094 299.269 276.964 299.259 276.823 299.242C276.698 299.202 276.581 299.151 276.473 299.089C275.983 299.621 275.492 300.143 274.999 300.655C274.506 301.168 274.081 301.739 273.726 302.368C273.654 302.419 273.609 302.445 273.59 302.448C273.568 302.432 273.511 302.451 273.421 302.505C273.324 302.896 273.184 303.263 273.001 303.609C272.834 303.931 272.669 304.264 272.505 304.606C272.342 304.948 272.21 305.305 272.11 305.676C272.01 306.048 271.987 306.467 272.04 306.933C272.411 307.151 272.822 307.255 273.275 307.243C273.728 307.231 274.183 307.169 274.64 307.058C275.116 306.944 275.57 306.813 276.002 306.666C276.45 306.497 276.867 306.382 277.253 306.322C278.033 306.001 278.688 305.641 279.218 305.242C279.746 304.823 280.302 304.399 280.887 303.971ZM294.716 289.492C295.542 289.461 296.291 289.512 296.964 289.643C297.637 289.775 298.226 289.999 298.731 290.315C299.115 290.749 299.486 291.224 299.844 291.741C300.222 292.256 300.526 292.811 300.758 293.407C301.007 293.981 301.171 294.588 301.252 295.227C301.352 295.864 301.318 296.532 301.151 297.23C300.701 298.013 300.105 298.689 299.364 299.26C298.64 299.809 297.836 300.291 296.952 300.707C296.069 301.123 295.14 301.506 294.167 301.856C293.213 302.204 292.279 302.548 291.364 302.889C291.453 303.33 291.527 303.803 291.587 304.308C291.662 304.79 291.691 305.29 291.674 305.806C291.672 306.301 291.621 306.793 291.52 307.284C291.419 307.774 291.254 308.235 291.026 308.666C290.698 308.718 290.366 308.809 290.031 308.941C289.699 309.092 289.402 309.218 289.141 309.318C288.994 309.262 288.856 309.205 288.728 309.146C288.623 309.103 288.472 309.087 288.276 309.098C288.284 308.899 288.206 308.714 288.04 308.542C287.872 308.351 287.704 308.16 287.535 307.969C287.367 307.778 287.239 307.59 287.15 307.407C287.081 307.22 287.149 307.021 287.353 306.811C287.197 306.697 287.102 306.534 287.069 306.322C287.168 306.069 287.233 305.733 287.266 305.312C287.318 304.889 287.343 304.48 287.34 304.085C287.354 303.668 287.316 303.298 287.226 302.976C287.135 302.654 286.905 302.443 286.533 302.343C286.546 302.302 286.582 302.276 286.64 302.267C286.698 302.258 286.754 302.239 286.809 302.211C286.636 302.12 286.514 301.971 286.442 301.764C286.39 301.555 286.293 301.383 286.153 301.246C286.177 301.144 286.192 301.052 286.199 300.972C286.206 300.892 286.269 300.853 286.388 300.854C286.276 300.515 286.224 300.187 286.234 299.87C286.262 299.549 286.323 299.243 286.416 298.951C286.505 298.641 286.625 298.335 286.776 298.035C286.926 297.734 287.067 297.435 287.198 297.138C287.33 297.097 287.411 297.105 287.439 297.16C287.487 297.211 287.553 297.191 287.637 297.099C287.858 296.866 287.999 296.637 288.063 296.409C288.126 296.182 288.136 295.933 288.094 295.663C288.165 295.236 288.265 294.806 288.395 294.37C288.521 293.915 288.673 293.496 288.85 293.112C289.027 292.729 289.229 292.381 289.457 292.068C289.704 291.752 289.971 291.503 290.258 291.319C290.46 291.09 290.722 290.871 291.045 290.662C291.365 290.434 291.721 290.249 292.115 290.108C292.505 289.948 292.902 289.837 293.307 289.773C293.729 289.687 294.121 289.665 294.483 289.707C294.586 289.73 294.631 289.703 294.619 289.626C294.626 289.546 294.659 289.501 294.716 289.492ZM294.616 296.596C295.065 296.308 295.551 296.063 296.073 295.863C296.611 295.64 297.036 295.326 297.348 294.921C297.084 294.745 296.717 294.615 296.249 294.53C295.778 294.426 295.279 294.396 294.752 294.439C294.225 294.482 293.702 294.614 293.183 294.834C292.68 295.032 292.263 295.334 291.932 295.742C291.87 296.108 291.818 296.403 291.774 296.627C291.727 296.832 291.659 297.09 291.569 297.401C291.623 297.491 291.693 297.559 291.779 297.605C291.882 297.628 291.96 297.685 292.014 297.776C292.421 297.474 292.845 297.279 293.286 297.19C293.743 297.079 294.186 296.881 294.616 296.596ZM315.756 287.878C315.796 288.01 315.813 288.116 315.806 288.197C315.815 288.255 315.815 288.314 315.804 288.375C315.813 288.433 315.824 288.5 315.836 288.577C315.845 288.635 315.88 288.729 315.939 288.858C315.637 289.577 315.236 290.105 314.735 290.441C314.25 290.754 313.708 291.017 313.109 291.23C312.507 291.423 311.887 291.63 311.249 291.848C310.63 292.064 310.033 292.415 309.457 292.901C309.191 292.844 308.959 292.88 308.762 293.01C308.585 293.137 308.3 293.211 307.908 293.233C307.81 293.367 307.679 293.477 307.515 293.562C307.347 293.628 307.181 293.703 307.016 293.788C307.121 293.95 307.178 294.129 307.189 294.325C307.217 294.498 307.268 294.638 307.345 294.745C308.029 294.697 308.77 294.571 309.568 294.366C310.386 294.159 311.189 293.983 311.977 293.84C312.011 293.933 312.012 294.002 311.98 294.047C311.944 294.072 311.942 294.122 311.974 294.196C312.124 294.271 312.279 294.375 312.438 294.509C312.594 294.622 312.75 294.736 312.907 294.85C313.063 294.964 313.216 295.059 313.366 295.134C313.533 295.187 313.711 295.188 313.901 295.139C314.002 295.281 314.078 295.447 314.128 295.637C314.193 295.805 314.203 295.991 314.156 296.196C313.881 296.457 313.607 296.727 313.334 297.007C313.059 297.268 312.761 297.512 312.441 297.741C312.141 297.966 311.806 298.166 311.439 298.343C311.087 298.497 310.678 298.601 310.212 298.654C310.116 298.669 310.039 298.681 309.981 298.69C309.942 298.696 309.88 298.677 309.793 298.631C309.654 298.752 309.437 298.815 309.141 298.822C308.865 298.826 308.658 298.888 308.518 299.009C308.291 298.946 308.024 298.948 307.719 299.016C307.429 299.061 307.163 299.064 306.919 299.023C306.674 299.477 306.462 299.955 306.284 300.457C306.106 300.96 305.962 301.487 305.85 302.038C306.522 302.031 307.068 301.985 307.489 301.899C307.93 301.81 308.34 301.716 308.72 301.617C309.097 301.498 309.485 301.388 309.884 301.286C310.28 301.164 310.789 301.065 311.409 300.987C311.762 300.714 312.194 300.508 312.706 300.368C313.234 300.206 313.708 300.013 314.127 299.789C314.291 299.823 314.442 299.907 314.582 300.044C314.719 300.161 314.847 300.279 314.964 300.399C315.098 300.496 315.231 300.584 315.362 300.663C315.493 300.741 315.643 300.757 315.814 300.71C315.903 300.775 315.967 300.864 316.004 300.977C316.058 301.067 316.102 301.159 316.136 301.253C316.171 301.346 316.213 301.428 316.264 301.5C316.331 301.548 316.421 301.554 316.534 301.517C316.344 302.199 316.084 302.744 315.753 303.152C315.437 303.537 315.052 303.855 314.597 304.104C314.142 304.354 313.623 304.573 313.04 304.764C312.476 304.951 311.848 305.169 311.156 305.416C310.988 305.482 310.842 305.495 310.717 305.455C310.595 305.435 310.457 305.437 310.303 305.461C309.874 305.627 309.357 305.797 308.752 305.971C308.146 306.145 307.524 306.273 306.884 306.354C306.244 306.434 305.623 306.443 305.02 306.379C304.42 306.335 303.908 306.159 303.484 305.85C303.308 305.739 303.178 305.601 303.092 305.437C303.024 305.25 302.875 305.125 302.648 305.062C302.589 304.814 302.507 304.54 302.4 304.24C302.294 303.941 302.186 303.631 302.077 303.313C301.964 302.974 301.863 302.644 301.773 302.322C301.702 301.997 301.674 301.695 301.69 301.416C301.702 301.118 301.777 300.839 301.915 300.58C302.071 300.318 302.099 300.057 301.999 299.796C302.092 299.761 302.143 299.704 302.15 299.624C302.154 299.524 302.225 299.474 302.363 299.472C302.424 299.106 302.498 298.758 302.585 298.428C302.672 298.099 302.76 297.778 302.849 297.468C302.958 297.154 303.057 296.842 303.147 296.531C303.253 296.198 303.345 295.838 303.422 295.45C303.112 295.242 302.867 295.003 302.687 294.735C302.523 294.445 302.389 294.159 302.286 293.879C302.179 293.579 302.082 293.278 301.995 292.975C301.905 292.653 301.786 292.336 301.638 292.023C301.786 291.703 301.981 291.436 302.224 291.219C302.483 290.981 302.767 290.778 303.077 290.611C303.387 290.444 303.729 290.291 304.103 290.153C304.476 290.016 304.868 289.865 305.277 289.702C306.01 289.33 306.664 289.029 307.241 288.8C307.837 288.568 308.419 288.368 308.986 288.2C309.569 288.01 310.172 287.826 310.797 287.649C311.422 287.472 312.127 287.242 312.913 286.961C313.114 287.107 313.292 287.168 313.446 287.144C313.496 286.958 313.575 286.896 313.684 286.958C313.809 286.998 313.848 286.932 313.801 286.762C314.046 287.06 314.331 287.301 314.657 287.487C314.999 287.651 315.365 287.782 315.756 287.878ZM321.305 300.174C321.368 300.322 321.42 300.463 321.46 300.595C321.501 300.727 321.552 300.867 321.615 301.015C321.568 301.22 321.531 301.424 321.503 301.626C321.473 301.808 321.442 301.991 321.412 302.174C321.375 302.318 321.35 302.411 321.337 302.453C321.324 302.494 321.318 302.525 321.321 302.544C321.324 302.563 321.329 302.592 321.335 302.631C321.357 302.647 321.379 302.723 321.4 302.858L321.339 303.223C321.264 303.373 321.165 303.498 321.042 303.596C320.919 303.695 320.794 303.783 320.668 303.862C320.636 303.907 320.583 303.945 320.508 303.977C320.437 304.027 320.386 304.075 320.353 304.12L320.321 304.48L319.954 304.597C319.638 304.726 319.364 304.809 319.132 304.845L318.785 304.9C318.52 304.724 318.311 304.589 318.158 304.494C318.005 304.399 317.843 304.316 317.674 304.244C317.438 304.004 317.302 303.828 317.265 303.715C317.224 303.583 317.175 303.462 317.119 303.352C317.041 303.108 316.967 302.951 316.897 302.883L316.428 302.541L316.734 302.226L316.329 301.727C316.534 301.517 316.688 301.364 316.791 301.268C316.895 301.173 316.979 301.081 317.044 300.991C317.106 300.883 317.175 300.753 317.25 300.603C317.326 300.453 317.445 300.207 317.609 299.865L317.81 299.448L318.218 299.591C318.305 299.637 318.478 299.669 318.738 299.688C319.014 299.684 319.251 299.686 319.45 299.694C319.794 299.739 320.114 299.768 320.413 299.78C320.708 299.774 320.955 299.834 321.153 299.961L321.305 300.174Z" fill="white"/>
</g>
<defs>
<clipPath id="clip0_511_812">
<rect width="390" height="368" fill="white"/>
</clipPath>
</defs>
</svg>
