<svg width="308" height="72" viewBox="0 0 308 72" fill="none" xmlns="http://www.w3.org/2000/svg">
<path d="M1.94401 38.965C0.871363 38.965 0 38.0963 0 37.0237V34.9763C0 33.9037 0.871363 33.035 1.94401 33.035C3.01666 33.035 3.88803 33.9037 3.88803 34.9763V37.0237C3.88803 38.0963 3.01666 38.965 1.94401 38.965ZM11.1132 40.0906V31.9094C11.1132 30.8341 10.2445 29.9653 9.17182 29.9653C8.09652 29.9653 7.22781 30.8341 7.22781 31.9094V40.0906C7.22781 41.1633 8.09652 42.0346 9.17182 42.0346C10.2445 42.0346 11.1132 41.1633 11.1132 40.0906ZM18.3357 46.892V25.108C18.3357 24.0327 17.467 23.1639 16.3917 23.1639C15.319 23.1639 14.4503 24.0327 14.4503 25.108V46.892C14.4503 47.9647 15.319 48.836 16.3917 48.836C17.467 48.836 18.3357 47.9647 18.3357 46.892ZM25.5635 40.0906V31.9094C25.5635 30.8341 24.6948 29.9653 23.6195 29.9653C22.5468 29.9653 21.6781 30.8341 21.6781 31.9094V40.0906C21.6781 41.1633 22.5468 42.0346 23.6195 42.0346C24.6948 42.0346 25.5635 41.1633 25.5635 40.0906ZM32.7913 38.1811V33.8189C32.7913 32.7436 31.9226 31.8749 30.8473 31.8749C29.7747 31.8749 28.9033 32.7436 28.9033 33.8189V38.1811C28.9033 39.2564 29.7747 40.1251 30.8473 40.1251C31.9226 40.1251 32.7913 39.2564 32.7913 38.1811ZM40.0112 42.5458V29.4542C40.0112 28.3815 39.1425 27.5102 38.0698 27.5102C36.9945 27.5102 36.1258 28.3815 36.1258 29.4542V42.5458C36.1258 43.6185 36.9945 44.4872 38.0698 44.4872C39.1425 44.4872 40.0112 43.6185 40.0112 42.5458ZM47.239 49.8054V22.1919C47.239 21.1193 46.3703 20.2506 45.2976 20.2506C44.2223 20.2506 43.3536 21.1193 43.3536 22.1919V49.8054C43.3536 50.8807 44.2223 51.7494 45.2976 51.7494C46.3703 51.7494 47.239 50.8807 47.239 49.8054ZM54.4668 58.7044V13.2956C54.4668 12.2203 53.5981 11.3516 52.5228 11.3516C51.4501 11.3516 50.5814 12.2203 50.5814 13.2956V58.7044C50.5814 59.7771 51.4501 60.6484 52.5228 60.6484C53.5981 60.6484 54.4668 59.7771 54.4668 58.7044ZM61.6893 49.1406V22.8567C61.6893 21.7841 60.8206 20.9154 59.7453 20.9154C58.6727 20.9154 57.8013 21.7841 57.8013 22.8567V49.1406C57.8013 50.2159 58.6727 51.0846 59.7453 51.0846C60.8206 51.0846 61.6893 50.2159 61.6893 49.1406ZM68.9171 42.5458V29.4542C68.9171 28.3815 68.0458 27.5102 66.9731 27.5102C65.8978 27.5102 65.0291 28.3815 65.0291 29.4542V42.5458C65.0291 43.6185 65.8978 44.4872 66.9731 44.4872C68.0458 44.4872 68.9171 43.6185 68.9171 42.5458ZM76.1423 40.0906V31.9094C76.1423 30.8341 75.2736 29.9653 74.2009 29.9653C73.1256 29.9653 72.2569 30.8341 72.2569 31.9094V40.0906C72.2569 41.1633 73.1256 42.0346 74.2009 42.0346C75.2736 42.0346 76.1423 41.1633 76.1423 40.0906ZM83.3648 37.466V34.534C83.3648 33.4587 82.4961 32.59 81.4208 32.59C80.3481 32.59 79.4794 33.4587 79.4794 34.534V37.466C79.4794 38.5386 80.3481 39.41 81.4208 39.41C82.4961 39.41 83.3648 38.5386 83.3648 37.466ZM90.5926 41.7777V30.2223C90.5926 29.147 89.7239 28.2782 88.6486 28.2782C87.576 28.2782 86.7072 29.147 86.7072 30.2223V41.7777C86.7072 42.853 87.576 43.7218 88.6486 43.7218C89.7239 43.7218 90.5926 42.853 90.5926 41.7777ZM97.8204 39.3755V32.6245C97.8204 31.5518 96.9517 30.6804 95.8764 30.6804C94.8038 30.6804 93.9324 31.5518 93.9324 32.6245V39.3755C93.9324 40.4482 94.8038 41.3169 95.8764 41.3169C96.9517 41.3169 97.8204 40.4482 97.8204 39.3755ZM105.04 47.7607V24.2392C105.04 23.1639 104.172 22.2952 103.099 22.2952C102.024 22.2952 101.155 23.1639 101.155 24.2392V47.7607C101.155 48.836 102.024 49.7048 103.099 49.7048C104.172 49.7048 105.04 48.836 105.04 47.7607ZM112.268 57.9893V14.0107C112.268 12.938 111.399 12.0667 110.327 12.0667C109.251 12.0667 108.383 12.938 108.383 14.0107V57.9893C108.383 59.062 109.251 59.9307 110.327 59.9307C111.399 59.9307 112.268 59.062 112.268 57.9893ZM119.496 70.056V1.94136C119.496 0.868715 118.627 0 117.552 0C116.479 0 115.611 0.868715 115.611 1.94136V70.056C115.611 71.1313 116.479 72 117.552 72C118.627 72 119.496 71.1313 119.496 70.056ZM126.718 57.9893V14.0107C126.718 12.938 125.85 12.0667 124.774 12.0667C123.702 12.0667 122.83 12.938 122.83 14.0107V57.9893C122.83 59.062 123.702 59.9307 124.774 59.9307C125.85 59.9307 126.718 59.062 126.718 57.9893ZM133.946 47.7607V24.2392C133.946 23.1639 133.075 22.2952 132.002 22.2952C130.927 22.2952 130.058 23.1639 130.058 24.2392V47.7607C130.058 48.836 130.927 49.7048 132.002 49.7048C133.075 49.7048 133.946 48.836 133.946 47.7607ZM141.171 39.5795V32.4205C141.171 31.3452 140.303 30.4765 139.23 30.4765C138.155 30.4765 137.286 31.3452 137.286 32.4205V39.5795C137.286 40.6521 138.155 41.5235 139.23 41.5235C140.303 41.5235 141.171 40.6521 141.171 39.5795ZM148.399 42.085V29.915C148.399 28.8397 147.53 27.971 146.458 27.971C145.383 27.971 144.514 28.8397 144.514 29.915V42.085C144.514 43.1576 145.383 44.029 146.458 44.029C147.525 44.029 148.399 43.1576 148.399 42.085ZM155.622 47.7607V24.2392C155.622 23.1639 154.753 22.2952 153.678 22.2952C152.605 22.2952 151.734 23.1639 151.734 24.2392V47.7607C151.734 48.836 152.605 49.7048 153.678 49.7048C154.753 49.7048 155.622 48.836 155.622 47.7607ZM162.85 56.0956V15.9017C162.85 14.8291 161.978 13.9603 160.906 13.9603C159.833 13.9603 158.962 14.8291 158.962 15.9017V56.0956C158.962 57.1709 159.833 58.0397 160.906 58.0397C161.978 58.0397 162.85 57.1709 162.85 56.0956ZM170.077 47.7607V24.2392C170.077 23.1639 169.206 22.2952 168.133 22.2952C167.058 22.2952 166.189 23.1639 166.189 24.2392V47.7607C166.189 48.836 167.058 49.7048 168.133 49.7048C169.201 49.7048 170.077 48.836 170.077 47.7607ZM177.297 42.085V29.915C177.297 28.8397 176.428 27.971 175.356 27.971C174.281 27.971 173.412 28.8397 173.412 29.915V42.085C173.412 43.1576 174.281 44.029 175.356 44.029C176.428 44.029 177.297 43.1576 177.297 42.085ZM184.525 38.4035V33.5965C184.525 32.5212 183.656 31.6525 182.581 31.6525C181.508 31.6525 180.64 32.5212 180.64 33.5965V38.4035C180.64 39.4762 181.508 40.3475 182.581 40.3475C183.656 40.3475 184.525 39.4762 184.525 38.4035ZM191.753 40.909V31.091C191.753 30.0157 190.884 29.147 189.809 29.147C188.736 29.147 187.865 30.0157 187.865 31.091V40.909C187.865 41.9817 188.736 42.853 189.809 42.853C190.876 42.853 191.753 41.9817 191.753 40.909ZM198.975 39.1186V32.8814C198.975 31.8061 198.104 30.9374 197.031 30.9374C195.956 30.9374 195.087 31.8061 195.087 32.8814V39.1186C195.087 40.1939 195.956 41.0626 197.031 41.0626C198.104 41.0626 198.975 40.1939 198.975 39.1186ZM206.2 44.6938V27.3062C206.2 26.2336 205.332 25.3622 204.259 25.3622C203.184 25.3622 202.315 26.2336 202.315 27.3062V44.6938C202.315 45.7664 203.184 46.6351 204.259 46.6351C205.332 46.6351 206.2 45.7664 206.2 44.6938ZM213.428 52.6711V19.3289C213.428 18.2562 212.56 17.3849 211.484 17.3849C210.412 17.3849 209.543 18.2562 209.543 19.3289V52.6711C209.543 53.7438 210.412 54.6125 211.484 54.6125C212.554 54.6125 213.428 53.7438 213.428 52.6711ZM220.651 63.9194V8.07798C220.651 7.00533 219.782 6.13662 218.707 6.13662C217.634 6.13662 216.763 7.00533 216.763 8.07798V63.9194C216.763 64.9947 217.634 65.8634 218.707 65.8634C219.782 65.8634 220.651 64.9947 220.651 63.9194ZM227.879 51.7997V20.1976C227.879 19.125 227.007 18.2562 225.935 18.2562C224.859 18.2562 223.991 19.125 223.991 20.1976V51.7997C223.991 52.875 224.859 53.7438 225.935 53.7438C227.007 53.7438 227.879 52.875 227.879 51.7997ZM299.868 51.7997V20.1976C299.868 19.125 298.997 18.2562 297.924 18.2562C296.849 18.2562 295.98 19.125 295.98 20.1976V51.7997C295.98 52.875 296.849 53.7438 297.924 53.7438C298.997 53.7438 299.868 52.875 299.868 51.7997ZM235.104 41.881V30.119C235.104 29.0463 234.235 28.1749 233.162 28.1749C232.087 28.1749 231.218 29.0463 231.218 30.119V41.881C231.218 42.9537 232.087 43.8224 233.162 43.8224C234.235 43.8224 235.104 42.9537 235.104 41.881ZM285.547 41.881V30.119C285.547 29.0463 284.679 28.1749 283.606 28.1749C282.531 28.1749 281.662 29.0463 281.662 30.119V41.881C281.662 42.9537 282.531 43.8224 283.606 43.8224C284.679 43.8224 285.547 42.9537 285.547 41.881ZM242.326 38.1466V33.8507C242.326 32.7781 241.458 31.9094 240.382 31.9094C239.31 31.9094 238.441 32.7781 238.441 33.8507V38.1466C238.441 39.2219 239.31 40.0906 240.382 40.0906C241.458 40.0906 242.326 39.2219 242.326 38.1466ZM249.554 39.9873V32.01C249.554 30.9374 248.685 30.0686 247.61 30.0686C246.537 30.0686 245.669 30.9374 245.669 32.01V39.9873C245.669 41.0626 246.537 41.9314 247.61 41.9314C248.685 41.9314 249.554 41.0626 249.554 39.9873ZM278.389 39.9873V32.01C278.389 30.9374 277.52 30.0686 276.447 30.0686C275.372 30.0686 274.503 30.9374 274.503 32.01V39.9873C274.503 41.0626 275.372 41.9314 276.447 41.9314C277.52 41.9314 278.389 41.0626 278.389 39.9873ZM256.782 46.6351V25.3622C256.782 24.2896 255.913 23.4209 254.838 23.4209C253.765 23.4209 252.894 24.2896 252.894 25.3622V46.6351C252.894 47.7104 253.765 48.5791 254.838 48.5791C255.913 48.5791 256.782 47.7104 256.782 46.6351ZM307.027 46.6351V25.3622C307.027 24.2896 306.156 23.4209 305.083 23.4209C304.01 23.4209 303.139 24.2896 303.139 25.3622V46.6351C303.139 47.7104 304.01 48.5791 305.083 48.5791C306.156 48.5791 307.027 47.7104 307.027 46.6351ZM292.709 46.6351V25.3622C292.709 24.2896 291.838 23.4209 290.765 23.4209C289.69 23.4209 288.821 24.2896 288.821 25.3622V46.6351C288.821 47.7104 289.69 48.5791 290.765 48.5791C291.838 48.5791 292.709 47.7104 292.709 46.6351ZM264.002 39.1186V32.8814C264.002 31.8061 263.133 30.9374 262.06 30.9374C260.985 30.9374 260.116 31.8061 260.116 32.8814V39.1186C260.116 40.1939 260.985 41.0626 262.06 41.0626C263.133 41.0626 264.002 40.1939 264.002 39.1186ZM271.23 42.2889V29.7111C271.23 28.6358 270.361 27.7671 269.288 27.7671C268.213 27.7671 267.344 28.6358 267.344 29.7111V42.2889C267.344 43.3642 268.213 44.2329 269.288 44.2329C270.361 44.2329 271.23 43.3642 271.23 42.2889Z" fill="#8370DE"/>
<path d="M97.0902 23.0945C96.9482 21.6622 96.3385 20.5495 95.2614 19.7564C94.1842 18.9633 92.7223 18.5668 90.8757 18.5668C89.621 18.5668 88.5616 18.7443 87.6974 19.0994C86.8333 19.4427 86.1705 19.9221 85.7088 20.5376C85.259 21.1532 85.0341 21.8516 85.0341 22.6328C85.0104 23.2839 85.1465 23.852 85.4425 24.3374C85.7502 24.8227 86.1705 25.2429 86.7031 25.598C87.2358 25.9413 87.8513 26.2431 88.5497 26.5036C89.2481 26.7521 89.9938 26.9652 90.7869 27.1428L94.054 27.924C95.6402 28.2791 97.0961 28.7526 98.4219 29.3445C99.7476 29.9363 100.896 30.6643 101.866 31.5284C102.837 32.3925 103.589 33.4105 104.121 34.5824C104.666 35.7543 104.944 37.0978 104.956 38.6129C104.944 40.8383 104.376 42.7678 103.251 44.4013C102.139 46.023 100.529 47.2836 98.4219 48.1832C96.3267 49.071 93.7995 49.5149 90.8402 49.5149C87.9046 49.5149 85.3478 49.0651 83.1697 48.1655C81.0036 47.2659 79.3108 45.9342 78.0916 44.1705C76.8842 42.3949 76.2509 40.1991 76.1918 37.5831H83.6314C83.7143 38.8023 84.0634 39.8203 84.679 40.6371C85.3063 41.442 86.1409 42.0516 87.1825 42.4659C88.236 42.8684 89.4257 43.0696 90.7514 43.0696C92.0535 43.0696 93.1839 42.8802 94.1428 42.5014C95.1134 42.1226 95.8651 41.5959 96.3977 40.9212C96.9304 40.2464 97.1967 39.4711 97.1967 38.5952C97.1967 37.7784 96.9541 37.0919 96.4688 36.5355C95.9953 35.9792 95.2969 35.5057 94.3736 35.1151C93.4621 34.7244 92.3435 34.3693 91.0178 34.0497L87.0582 33.0554C83.9924 32.3097 81.5717 31.1437 79.7962 29.5575C78.0206 27.9714 77.1387 25.8348 77.1506 23.1477C77.1387 20.946 77.7247 19.0225 78.9084 17.3771C80.1039 15.7318 81.7434 14.4474 83.8267 13.5241C85.91 12.6009 88.2775 12.1392 90.929 12.1392C93.6278 12.1392 95.9834 12.6009 97.9957 13.5241C100.02 14.4474 101.594 15.7318 102.719 17.3771C103.843 19.0225 104.423 20.9283 104.459 23.0945H97.0902ZM109.985 59.2273V21.7273H117.443V26.3082H117.78C118.111 25.5743 118.591 24.8286 119.218 24.071C119.857 23.3016 120.686 22.6624 121.704 22.1534C122.734 21.6326 124.012 21.3722 125.539 21.3722C127.528 21.3722 129.363 21.893 131.044 22.9347C132.724 23.9645 134.068 25.5211 135.074 27.6044C136.08 29.6759 136.583 32.2741 136.583 35.3991C136.583 38.4413 136.092 41.0099 135.11 43.1051C134.139 45.1884 132.813 46.7687 131.132 47.8459C129.463 48.9112 127.593 49.4439 125.521 49.4439C124.054 49.4439 122.805 49.2012 121.775 48.7159C120.757 48.2306 119.923 47.621 119.271 46.8871C118.62 46.1413 118.123 45.3897 117.78 44.6321H117.549V59.2273H109.985ZM117.389 35.3636C117.389 36.9853 117.614 38.3999 118.064 39.6072C118.514 40.8146 119.165 41.7557 120.017 42.4304C120.869 43.0933 121.905 43.4247 123.124 43.4247C124.356 43.4247 125.397 43.0874 126.249 42.4126C127.102 41.7261 127.747 40.7791 128.185 39.5717C128.635 38.3525 128.86 36.9498 128.86 35.3636C128.86 33.7893 128.641 32.4044 128.203 31.2088C127.765 30.0133 127.119 29.0781 126.267 28.4034C125.415 27.7287 124.367 27.3913 123.124 27.3913C121.893 27.3913 120.852 27.7169 119.999 28.3679C119.159 29.0189 118.514 29.9422 118.064 31.1378C117.614 32.3333 117.389 33.742 117.389 35.3636ZM153.948 49.5327C151.19 49.5327 148.805 48.9467 146.793 47.7749C144.792 46.5911 143.248 44.9458 142.159 42.8388C141.07 40.7199 140.525 38.2637 140.525 35.4702C140.525 32.6529 141.07 30.1908 142.159 28.0838C143.248 25.965 144.792 24.3196 146.793 23.1477C148.805 21.964 151.19 21.3722 153.948 21.3722C156.706 21.3722 159.086 21.964 161.086 23.1477C163.098 24.3196 164.649 25.965 165.738 28.0838C166.827 30.1908 167.372 32.6529 167.372 35.4702C167.372 38.2637 166.827 40.7199 165.738 42.8388C164.649 44.9458 163.098 46.5911 161.086 47.7749C159.086 48.9467 156.706 49.5327 153.948 49.5327ZM153.984 43.6733C155.239 43.6733 156.286 43.3182 157.127 42.608C157.967 41.8859 158.6 40.9034 159.026 39.6605C159.464 38.4176 159.683 37.0031 159.683 35.4169C159.683 33.8307 159.464 32.4162 159.026 31.1733C158.6 29.9304 157.967 28.9479 157.127 28.2259C156.286 27.5038 155.239 27.1428 153.984 27.1428C152.717 27.1428 151.652 27.5038 150.788 28.2259C149.936 28.9479 149.29 29.9304 148.852 31.1733C148.426 32.4162 148.213 33.8307 148.213 35.4169C148.213 37.0031 148.426 38.4176 148.852 39.6605C149.29 40.9034 149.936 41.8859 150.788 42.608C151.652 43.3182 152.717 43.6733 153.984 43.6733ZM186.796 21.7273V27.4091H170.372V21.7273H186.796ZM174.101 15.1932H181.665V40.6193C181.665 41.3177 181.771 41.8622 181.985 42.2528C182.198 42.6316 182.494 42.898 182.872 43.0518C183.263 43.2057 183.713 43.2827 184.222 43.2827C184.577 43.2827 184.932 43.2531 185.287 43.1939C185.642 43.1229 185.914 43.0696 186.104 43.0341L187.294 48.6626C186.915 48.781 186.382 48.9171 185.695 49.071C185.009 49.2367 184.174 49.3374 183.192 49.3729C181.369 49.4439 179.771 49.2012 178.398 48.6449C177.037 48.0885 175.977 47.2244 175.22 46.0526C174.462 44.8807 174.089 43.401 174.101 41.6136V15.1932ZM199.873 12.6364V49H192.309V12.6364H199.873ZM218.362 49.5327C215.556 49.5327 213.141 48.9645 211.117 47.8281C209.105 46.6799 207.554 45.0582 206.465 42.9631C205.376 40.8561 204.832 38.3643 204.832 35.4879C204.832 32.6825 205.376 30.2204 206.465 28.1016C207.554 25.9827 209.087 24.3314 211.064 23.1477C213.053 21.964 215.384 21.3722 218.06 21.3722C219.859 21.3722 221.534 21.6622 223.085 22.2422C224.647 22.8104 226.008 23.6686 227.168 24.8168C228.34 25.965 229.252 27.4091 229.903 29.1491C230.554 30.8774 230.879 32.9015 230.879 35.2216V37.299H207.85V32.6115H223.759C223.759 31.5225 223.522 30.5578 223.049 29.7173C222.576 28.8769 221.919 28.2199 221.078 27.7464C220.25 27.2611 219.285 27.0185 218.184 27.0185C217.036 27.0185 216.018 27.2848 215.13 27.8175C214.254 28.3383 213.567 29.0426 213.07 29.9304C212.573 30.8063 212.319 31.7829 212.307 32.8601V37.3168C212.307 38.6662 212.555 39.8321 213.053 40.8146C213.562 41.7971 214.278 42.5547 215.201 43.0874C216.124 43.62 217.219 43.8864 218.486 43.8864C219.326 43.8864 220.096 43.768 220.794 43.5312C221.492 43.2945 222.09 42.9394 222.587 42.4659C223.085 41.9924 223.463 41.4124 223.724 40.7259L230.719 41.1875C230.364 42.8684 229.636 44.3362 228.536 45.5909C227.446 46.8338 226.038 47.8045 224.31 48.5028C222.593 49.1894 220.611 49.5327 218.362 49.5327Z" fill="white"/>
</svg>
